Belanosima-Bold.ufo
<glyph name="exclam" format="2">
  <advance width="670"/>
  <unicode hex="0021"/>
  <outline>
    <contour>
      <point x="128" y="1612" type="curve" smooth="yes"/>
      <point x="128" y="1332"/>
      <point x="140" y="1052"/>
      <point x="140" y="772" type="curve" smooth="yes"/>
      <point x="140" y="674"/>
      <point x="138" y="577"/>
      <point x="138" y="479" type="curve" smooth="yes"/>
      <point x="138" y="454"/>
      <point x="152" y="438"/>
      <point x="178" y="438" type="curve" smooth="yes"/>
      <point x="474" y="438" type="line" smooth="yes"/>
      <point x="500" y="438"/>
      <point x="514" y="453"/>
      <point x="514" y="479" type="curve" smooth="yes"/>
      <point x="514" y="734" type="line" smooth="yes"/>
      <point x="514" y="1027"/>
      <point x="524" y="1320"/>
      <point x="524" y="1613" type="curve" smooth="yes"/>
      <point x="524" y="1640"/>
      <point x="510" y="1654"/>
      <point x="483" y="1654" type="curve" smooth="yes"/>
      <point x="169" y="1654" type="line" smooth="yes"/>
      <point x="140" y="1654"/>
      <point x="128" y="1641"/>
    </contour>
    <contour>
      <point x="85" y="122" type="curve" smooth="yes"/>
      <point x="85" y="-5"/>
      <point x="234" y="-47"/>
      <point x="337" y="-47" type="curve" smooth="yes"/>
      <point x="440" y="-47"/>
      <point x="585" y="-4"/>
      <point x="585" y="122" type="curve" smooth="yes"/>
      <point x="585" y="240"/>
      <point x="467" y="299"/>
      <point x="363" y="299" type="curve" smooth="yes"/>
      <point x="266" y="299"/>
      <point x="85" y="243"/>
    </contour>
  </outline>
</glyph>
<glyph name="quotedbl" format="2">
  <advance width="975"/>
  <unicode hex="0022"/>
  <outline>
    <contour>
      <point x="435" y="1587" type="curve" smooth="yes"/>
      <point x="133" y="1587" type="line" smooth="yes"/>
      <point x="108" y="1587"/>
      <point x="93" y="1576"/>
      <point x="93" y="1550" type="curve" smooth="yes"/>
      <point x="93" y="1454"/>
      <point x="100" y="1356"/>
      <point x="103" y="1260" type="curve" smooth="yes"/>
      <point x="105" y="1200"/>
      <point x="102" y="1138"/>
      <point x="108" y="1079" type="curve" smooth="yes"/>
      <point x="111" y="1053"/>
      <point x="121" y="1038"/>
      <point x="149" y="1038" type="curve" smooth="yes"/>
      <point x="425" y="1038" type="line" smooth="yes"/>
      <point x="453" y="1038"/>
      <point x="463" y="1052"/>
      <point x="465" y="1078" type="curve" smooth="yes"/>
      <point x="470" y="1133"/>
      <point x="468" y="1189"/>
      <point x="469" y="1244" type="curve" smooth="yes"/>
      <point x="472" y="1345"/>
      <point x="475" y="1445"/>
      <point x="475" y="1546" type="curve" smooth="yes"/>
      <point x="475" y="1573"/>
      <point x="463" y="1587"/>
    </contour>
    <contour>
      <point x="863" y="1587" type="curve" smooth="yes"/>
      <point x="563" y="1587" type="line" smooth="yes"/>
      <point x="536" y="1587"/>
      <point x="521" y="1573"/>
      <point x="521" y="1546" type="curve" smooth="yes"/>
      <point x="521" y="1079" type="line" smooth="yes"/>
      <point x="521" y="1053"/>
      <point x="535" y="1038"/>
      <point x="561" y="1038" type="curve" smooth="yes"/>
      <point x="836" y="1038" type="line" smooth="yes"/>
      <point x="863" y="1038"/>
      <point x="875" y="1053"/>
      <point x="877" y="1078" type="curve" smooth="yes"/>
      <point x="885" y="1163"/>
      <point x="885" y="1249"/>
      <point x="890" y="1334" type="curve" smooth="yes"/>
      <point x="894" y="1406"/>
      <point x="903" y="1478"/>
      <point x="903" y="1549" type="curve" smooth="yes"/>
      <point x="903" y="1576"/>
      <point x="889" y="1587"/>
    </contour>
  </outline>
</glyph>
<glyph name="numbersign" format="2">
  <advance width="1534"/>
  <unicode hex="0023"/>
  <outline>
    <contour>
      <point x="727" y="1413" type="curve" smooth="yes"/>
      <point x="452" y="1413" type="line" smooth="yes"/>
      <point x="427" y="1413"/>
      <point x="417" y="1402"/>
      <point x="413" y="1378" type="curve" smooth="yes"/>
      <point x="399" y="1299"/>
      <point x="391" y="1219"/>
      <point x="379" y="1139" type="curve" smooth="yes"/>
      <point x="374" y="1107"/>
      <point x="374" y="1072"/>
      <point x="365" y="1041" type="curve"/>
      <point x="363" y="1035"/>
      <point x="360" y="1030"/>
      <point x="353" y="1030" type="curve" smooth="yes"/>
      <point x="180" y="1030" type="line" smooth="yes"/>
      <point x="156" y="1030"/>
      <point x="144" y="1020"/>
      <point x="141" y="996" type="curve" smooth="yes"/>
      <point x="133" y="935"/>
      <point x="120" y="870"/>
      <point x="120" y="809" type="curve" smooth="yes"/>
      <point x="120" y="782"/>
      <point x="136" y="772"/>
      <point x="161" y="772" type="curve" smooth="yes"/>
      <point x="313" y="772" type="line" smooth="yes"/>
      <point x="325" y="772"/>
      <point x="329" y="771"/>
      <point x="329" y="757" type="curve" smooth="yes"/>
      <point x="329" y="744"/>
      <point x="314" y="653"/>
      <point x="310" y="640" type="curve"/>
      <point x="308" y="635"/>
      <point x="305" y="630"/>
      <point x="299" y="630" type="curve" smooth="yes"/>
      <point x="127" y="630" type="line" smooth="yes"/>
      <point x="102" y="630"/>
      <point x="91" y="618"/>
      <point x="86" y="594" type="curve" smooth="yes"/>
      <point x="77" y="548"/>
      <point x="53" y="445"/>
      <point x="53" y="403" type="curve" smooth="yes"/>
      <point x="53" y="377"/>
      <point x="68" y="369"/>
      <point x="92" y="369" type="curve" smooth="yes"/>
      <point x="249" y="369" type="line" smooth="yes"/>
      <point x="256" y="369"/>
      <point x="261" y="363"/>
      <point x="261" y="356" type="curve" smooth="yes"/>
      <point x="261" y="329"/>
      <point x="251" y="294"/>
      <point x="246" y="267" type="curve" smooth="yes"/>
      <point x="232" y="195"/>
      <point x="218" y="123"/>
      <point x="203" y="52" type="curve" smooth="yes"/>
      <point x="202" y="47"/>
      <point x="201" y="40"/>
      <point x="201" y="34" type="curve" smooth="yes"/>
      <point x="201" y="8"/>
      <point x="217" y="0"/>
      <point x="241" y="0" type="curve" smooth="yes"/>
      <point x="518" y="0" type="line" smooth="yes"/>
      <point x="543" y="0"/>
      <point x="555" y="13"/>
      <point x="559" y="36" type="curve" smooth="yes"/>
      <point x="579" y="141"/>
      <point x="593" y="247"/>
      <point x="613" y="352" type="curve"/>
      <point x="615" y="360"/>
      <point x="615" y="369"/>
      <point x="626" y="369" type="curve" smooth="yes"/>
      <point x="770" y="369" type="line" smooth="yes"/>
      <point x="778" y="369"/>
      <point x="782" y="363"/>
      <point x="782" y="355" type="curve" smooth="yes"/>
      <point x="782" y="322"/>
      <point x="772" y="289"/>
      <point x="767" y="256" type="curve" smooth="yes"/>
      <point x="756" y="186"/>
      <point x="742" y="116"/>
      <point x="735" y="46" type="curve"/>
      <point x="735" y="42"/>
      <point x="734" y="38"/>
      <point x="734" y="34" type="curve" smooth="yes"/>
      <point x="734" y="8"/>
      <point x="752" y="0"/>
      <point x="775" y="0" type="curve" smooth="yes"/>
      <point x="1051" y="0" type="line" smooth="yes"/>
      <point x="1077" y="0"/>
      <point x="1087" y="12"/>
      <point x="1090" y="36" type="curve" smooth="yes"/>
      <point x="1094" y="64"/>
      <point x="1132" y="362"/>
      <point x="1132" y="363" type="curve"/>
      <point x="1140" y="376"/>
      <point x="1307" y="369"/>
      <point x="1332" y="369" type="curve" smooth="yes"/>
      <point x="1357" y="369"/>
      <point x="1368" y="381"/>
      <point x="1372" y="405" type="curve" smooth="yes"/>
      <point x="1379" y="444"/>
      <point x="1399" y="561"/>
      <point x="1399" y="595" type="curve" smooth="yes"/>
      <point x="1399" y="621"/>
      <point x="1381" y="630"/>
      <point x="1358" y="630" type="curve" smooth="yes"/>
      <point x="1188" y="630" type="line" smooth="yes"/>
      <point x="1177" y="630"/>
      <point x="1173" y="630"/>
      <point x="1173" y="644" type="curve" smooth="yes"/>
      <point x="1173" y="680"/>
      <point x="1183" y="727"/>
      <point x="1192" y="762" type="curve"/>
      <point x="1193" y="767"/>
      <point x="1194" y="770"/>
      <point x="1200" y="772" type="curve" smooth="yes"/>
      <point x="1203" y="773"/>
      <point x="1205" y="772"/>
      <point x="1208" y="772" type="curve" smooth="yes"/>
      <point x="1393" y="772" type="line" smooth="yes"/>
      <point x="1417" y="772"/>
      <point x="1428" y="783"/>
      <point x="1432" y="806" type="curve" smooth="yes"/>
      <point x="1443" y="866"/>
      <point x="1458" y="934"/>
      <point x="1458" y="995" type="curve" smooth="yes"/>
      <point x="1458" y="1022"/>
      <point x="1441" y="1030"/>
      <point x="1417" y="1030" type="curve" smooth="yes"/>
      <point x="1248" y="1030" type="line" smooth="yes"/>
      <point x="1242" y="1030"/>
      <point x="1236" y="1037"/>
      <point x="1236" y="1043" type="curve" smooth="yes"/>
      <point x="1236" y="1070"/>
      <point x="1247" y="1109"/>
      <point x="1252" y="1136" type="curve" smooth="yes"/>
      <point x="1267" y="1212"/>
      <point x="1283" y="1288"/>
      <point x="1299" y="1364" type="curve"/>
      <point x="1300" y="1371"/>
      <point x="1302" y="1377"/>
      <point x="1302" y="1384" type="curve" smooth="yes"/>
      <point x="1302" y="1406"/>
      <point x="1278" y="1413"/>
      <point x="1260" y="1413" type="curve" smooth="yes"/>
      <point x="985" y="1413" type="line" smooth="yes"/>
      <point x="962" y="1413"/>
      <point x="948" y="1402"/>
      <point x="943" y="1379" type="curve" smooth="yes"/>
      <point x="919" y="1269"/>
      <point x="906" y="1157"/>
      <point x="886" y="1047" type="curve"/>
      <point x="884" y="1039"/>
      <point x="884" y="1030"/>
      <point x="873" y="1030" type="curve" smooth="yes"/>
      <point x="727" y="1030" type="line" smooth="yes"/>
      <point x="714" y="1030"/>
      <point x="715" y="1039"/>
      <point x="715" y="1048" type="curve" smooth="yes"/>
      <point x="715" y="1077"/>
      <point x="725" y="1109"/>
      <point x="730" y="1138" type="curve" smooth="yes"/>
      <point x="742" y="1213"/>
      <point x="760" y="1289"/>
      <point x="768" y="1365" type="curve"/>
      <point x="768" y="1369"/>
      <point x="769" y="1373"/>
      <point x="769" y="1377" type="curve" smooth="yes"/>
      <point x="769" y="1404"/>
      <point x="752" y="1413"/>
    </contour>
    <contour>
      <point x="678" y="772" type="curve"/>
      <point x="846" y="772" type="line"/>
      <point x="840" y="725"/>
      <point x="832" y="677"/>
      <point x="825" y="630" type="curve"/>
      <point x="655" y="630" type="line"/>
      <point x="664" y="677"/>
      <point x="672" y="724"/>
    </contour>
  </outline>
</glyph>
<glyph name="dollar" format="2">
  <advance width="1102"/>
  <unicode hex="0024"/>
  <outline>
    <contour>
      <point x="384" y="-147" type="curve" smooth="yes"/>
      <point x="513" y="-147" type="line" smooth="yes"/>
      <point x="583" y="-147"/>
      <point x="569" y="-84"/>
      <point x="569" y="-34" type="curve" smooth="yes"/>
      <point x="569" y="-20"/>
      <point x="575" y="-15"/>
      <point x="588" y="-13" type="curve" smooth="yes"/>
      <point x="639" y="-4"/>
      <point x="685" y="3"/>
      <point x="733" y="23" type="curve" smooth="yes"/>
      <point x="924" y="104"/>
      <point x="995" y="296"/>
      <point x="995" y="492" type="curve" smooth="yes"/>
      <point x="995" y="700"/>
      <point x="927" y="840"/>
      <point x="741" y="940" type="curve" smooth="yes"/>
      <point x="730" y="946"/>
      <point x="716" y="950"/>
      <point x="716" y="965" type="curve" smooth="yes"/>
      <point x="717" y="1185" type="line" smooth="yes"/>
      <point x="717" y="1194"/>
      <point x="719" y="1207"/>
      <point x="731" y="1207" type="curve" smooth="yes"/>
      <point x="762" y="1207"/>
      <point x="852" y="1131"/>
      <point x="888" y="1131" type="curve" smooth="yes"/>
      <point x="912" y="1131"/>
      <point x="927" y="1151"/>
      <point x="937" y="1170" type="curve" smooth="yes"/>
      <point x="977" y="1245"/>
      <point x="1018" y="1324"/>
      <point x="1055" y="1401" type="curve" smooth="yes"/>
      <point x="1060" y="1411"/>
      <point x="1063" y="1421"/>
      <point x="1063" y="1432" type="curve" smooth="yes"/>
      <point x="1063" y="1449"/>
      <point x="1054" y="1462"/>
      <point x="1042" y="1473" type="curve" smooth="yes"/>
      <point x="976" y="1534"/>
      <point x="894" y="1581"/>
      <point x="807" y="1604" type="curve" smooth="yes"/>
      <point x="784" y="1610"/>
      <point x="761" y="1612"/>
      <point x="739" y="1617" type="curve" smooth="yes"/>
      <point x="727" y="1620"/>
      <point x="721" y="1624"/>
      <point x="721" y="1638" type="curve" smooth="yes"/>
      <point x="721" y="1662"/>
      <point x="722" y="1685"/>
      <point x="722" y="1709" type="curve" smooth="yes"/>
      <point x="722" y="1751"/>
      <point x="702" y="1772"/>
      <point x="660" y="1772" type="curve" smooth="yes"/>
      <point x="534" y="1772" type="line" smooth="yes"/>
      <point x="453" y="1772"/>
      <point x="473" y="1689"/>
      <point x="473" y="1633" type="curve" smooth="yes"/>
      <point x="473" y="1621"/>
      <point x="468" y="1616"/>
      <point x="457" y="1613" type="curve"/>
      <point x="414" y="1599"/>
      <point x="375" y="1587"/>
      <point x="335" y="1564" type="curve" smooth="yes"/>
      <point x="177" y="1473"/>
      <point x="114" y="1303"/>
      <point x="114" y="1128" type="curve"/>
      <point x="115" y="1114" type="line"/>
      <point x="118" y="924"/>
      <point x="173" y="800"/>
      <point x="320" y="679" type="curve" smooth="yes"/>
      <point x="325" y="675"/>
      <point x="328" y="670"/>
      <point x="328" y="663" type="curve" smooth="yes"/>
      <point x="328" y="464" type="line" smooth="yes"/>
      <point x="328" y="456"/>
      <point x="327" y="440"/>
      <point x="315" y="440" type="curve" smooth="yes"/>
      <point x="295" y="440"/>
      <point x="261" y="484"/>
      <point x="238" y="484" type="curve" smooth="yes"/>
      <point x="225" y="484"/>
      <point x="217" y="473"/>
      <point x="211" y="463" type="curve" smooth="yes"/>
      <point x="188" y="426"/>
      <point x="167" y="386"/>
      <point x="145" y="348" type="curve" smooth="yes"/>
      <point x="118" y="301"/>
      <point x="91" y="255"/>
      <point x="65" y="208" type="curve" smooth="yes"/>
      <point x="59" y="197"/>
      <point x="54" y="186"/>
      <point x="54" y="174" type="curve" smooth="yes"/>
      <point x="54" y="154"/>
      <point x="66" y="141"/>
      <point x="81" y="130" type="curve" smooth="yes"/>
      <point x="132" y="92"/>
      <point x="192" y="60"/>
      <point x="251" y="36" type="curve" smooth="yes"/>
      <point x="270" y="28"/>
      <point x="290" y="23"/>
      <point x="309" y="15" type="curve" smooth="yes"/>
      <point x="319" y="11"/>
      <point x="324" y="6"/>
      <point x="324" y="-5" type="curve" smooth="yes"/>
      <point x="324" y="-32"/>
      <point x="323" y="-58"/>
      <point x="323" y="-85" type="curve" smooth="yes"/>
      <point x="323" y="-127"/>
      <point x="342" y="-147"/>
    </contour>
  </outline>
</glyph>
<glyph name="percent" format="2">
  <advance width="1778"/>
  <unicode hex="0025"/>
  <outline>
    <contour>
      <point x="418" y="705" type="curve" smooth="yes"/>
      <point x="698" y="705"/>
      <point x="786" y="925"/>
      <point x="786" y="1170" type="curve" smooth="yes"/>
      <point x="786" y="1415"/>
      <point x="693" y="1618"/>
      <point x="418" y="1618" type="curve" smooth="yes"/>
      <point x="151" y="1618"/>
      <point x="46" y="1429"/>
      <point x="46" y="1185" type="curve" smooth="yes"/>
      <point x="46" y="937"/>
      <point x="131" y="705"/>
    </contour>
    <contour>
      <point x="410" y="1162" type="curve"/>
      <point x="412" y="1166"/>
      <point x="412" y="1171"/>
      <point x="412" y="1175" type="curve" smooth="yes"/>
      <point x="412" y="1216"/>
      <point x="399" y="1256"/>
      <point x="399" y="1297" type="curve" smooth="yes"/>
      <point x="399" y="1304"/>
      <point x="399" y="1326"/>
      <point x="412" y="1323" type="curve"/>
      <point x="413" y="1323"/>
      <point x="414" y="1324"/>
      <point x="415" y="1324" type="curve" smooth="yes"/>
      <point x="427" y="1324"/>
      <point x="427" y="1302"/>
      <point x="427" y="1294" type="curve" smooth="yes"/>
      <point x="427" y="1254"/>
      <point x="416" y="1215"/>
      <point x="416" y="1176" type="curve" smooth="yes"/>
      <point x="416" y="1172"/>
      <point x="416" y="1166"/>
      <point x="418" y="1162" type="curve"/>
      <point x="410" y="1138"/>
      <point x="440" y="1056"/>
      <point x="440" y="1021" type="curve" smooth="yes"/>
      <point x="440" y="1013"/>
      <point x="438" y="1000"/>
      <point x="428" y="1000" type="curve" smooth="yes"/>
      <point x="407" y="1000"/>
      <point x="408" y="1046"/>
      <point x="408" y="1060" type="curve" smooth="yes"/>
      <point x="408" y="1083"/>
      <point x="414" y="1144"/>
    </contour>
    <contour>
      <point x="1359" y="-90" type="curve" smooth="yes"/>
      <point x="1629" y="-90"/>
      <point x="1721" y="103"/>
      <point x="1721" y="345" type="curve" smooth="yes"/>
      <point x="1721" y="591"/>
      <point x="1633" y="823"/>
      <point x="1349" y="823" type="curve" smooth="yes"/>
      <point x="1077" y="823"/>
      <point x="983" y="619"/>
      <point x="983" y="377" type="curve" smooth="yes"/>
      <point x="983" y="124"/>
      <point x="1072" y="-90"/>
    </contour>
    <contour>
      <point x="1348" y="370" type="curve"/>
      <point x="1349" y="373"/>
      <point x="1350" y="377"/>
      <point x="1350" y="381" type="curve" smooth="yes"/>
      <point x="1350" y="421"/>
      <point x="1336" y="461"/>
      <point x="1336" y="501" type="curve" smooth="yes"/>
      <point x="1336" y="509"/>
      <point x="1336" y="531"/>
      <point x="1350" y="527" type="curve"/>
      <point x="1351" y="528"/>
      <point x="1352" y="528"/>
      <point x="1353" y="528" type="curve" smooth="yes"/>
      <point x="1363" y="528"/>
      <point x="1363" y="511"/>
      <point x="1363" y="504" type="curve" smooth="yes"/>
      <point x="1363" y="464"/>
      <point x="1350" y="424"/>
      <point x="1350" y="384" type="curve" smooth="yes"/>
      <point x="1350" y="379"/>
      <point x="1350" y="374"/>
      <point x="1352" y="370" type="curve"/>
      <point x="1351" y="366"/>
      <point x="1350" y="362"/>
      <point x="1350" y="358" type="curve" smooth="yes"/>
      <point x="1350" y="314"/>
      <point x="1376" y="271"/>
      <point x="1376" y="226" type="curve" smooth="yes"/>
      <point x="1376" y="218"/>
      <point x="1374" y="206"/>
      <point x="1364" y="206" type="curve" smooth="yes"/>
      <point x="1344" y="206"/>
      <point x="1344" y="249"/>
      <point x="1344" y="262" type="curve" smooth="yes"/>
      <point x="1344" y="294"/>
      <point x="1354" y="340"/>
    </contour>
    <contour>
      <point x="1601" y="1615" type="curve" smooth="yes"/>
      <point x="1333" y="1615" type="line" smooth="yes"/>
      <point x="1311" y="1615"/>
      <point x="1298" y="1607"/>
      <point x="1284" y="1590" type="curve" smooth="yes"/>
      <point x="1223" y="1513"/>
      <point x="1166" y="1431"/>
      <point x="1108" y="1351" type="curve" smooth="yes"/>
      <point x="1004" y="1207"/>
      <point x="900" y="1061"/>
      <point x="797" y="916" type="curve" smooth="yes"/>
      <point x="672" y="739"/>
      <point x="546" y="561"/>
      <point x="419" y="384" type="curve" smooth="yes"/>
      <point x="349" y="288"/>
      <point x="277" y="193"/>
      <point x="208" y="97" type="curve" smooth="yes"/>
      <point x="196" y="81"/>
      <point x="180" y="59"/>
      <point x="180" y="38" type="curve" smooth="yes"/>
      <point x="180" y="1"/>
      <point x="234" y="-1"/>
      <point x="257" y="-1" type="curve" smooth="yes"/>
      <point x="517" y="-5" type="line" smooth="yes"/>
      <point x="539" y="-5"/>
      <point x="555" y="3"/>
      <point x="568" y="20" type="curve" smooth="yes"/>
      <point x="617" y="82"/>
      <point x="662" y="149"/>
      <point x="708" y="213" type="curve" smooth="yes"/>
      <point x="813" y="358"/>
      <point x="916" y="504"/>
      <point x="1019" y="650" type="curve" smooth="yes"/>
      <point x="1157" y="844"/>
      <point x="1295" y="1038"/>
      <point x="1436" y="1230" type="curve" smooth="yes"/>
      <point x="1507" y="1326"/>
      <point x="1579" y="1420"/>
      <point x="1650" y="1516" type="curve" smooth="yes"/>
      <point x="1662" y="1532"/>
      <point x="1679" y="1555"/>
      <point x="1679" y="1577" type="curve" smooth="yes"/>
      <point x="1679" y="1614"/>
      <point x="1624" y="1615"/>
    </contour>
  </outline>
</glyph>
<glyph name="ampersand" format="2">
  <advance width="1430"/>
  <unicode hex="0026"/>
  <outline>
    <contour>
      <point x="1051" y="620" type="curve" smooth="yes"/>
      <point x="1051" y="622"/>
      <point x="1052" y="625"/>
      <point x="1053" y="627" type="curve"/>
      <point x="1069" y="689"/>
      <point x="1165" y="943"/>
      <point x="1165" y="979" type="curve" smooth="yes"/>
      <point x="1165" y="1017"/>
      <point x="1132" y="1025"/>
      <point x="1100" y="1025" type="curve" smooth="yes"/>
      <point x="837" y="1025" type="line" smooth="yes"/>
      <point x="818" y="1025"/>
      <point x="810" y="1053"/>
      <point x="802" y="1067" type="curve" smooth="yes"/>
      <point x="775" y="1115"/>
      <point x="745" y="1164"/>
      <point x="739" y="1220" type="curve" smooth="yes"/>
      <point x="737" y="1238"/>
      <point x="727" y="1256"/>
      <point x="727" y="1275" type="curve" smooth="yes"/>
      <point x="727" y="1284"/>
      <point x="730" y="1290"/>
      <point x="740" y="1290" type="curve" smooth="yes"/>
      <point x="782" y="1290"/>
      <point x="844" y="1196"/>
      <point x="866" y="1165" type="curve" smooth="yes"/>
      <point x="877" y="1149"/>
      <point x="892" y="1131"/>
      <point x="913" y="1131" type="curve" smooth="yes"/>
      <point x="934" y="1131"/>
      <point x="949" y="1148"/>
      <point x="961" y="1163" type="curve" smooth="yes"/>
      <point x="989" y="1198"/>
      <point x="1014" y="1234"/>
      <point x="1041" y="1269" type="curve" smooth="yes"/>
      <point x="1063" y="1298"/>
      <point x="1087" y="1328"/>
      <point x="1108" y="1358" type="curve" smooth="yes"/>
      <point x="1116" y="1369"/>
      <point x="1122" y="1380"/>
      <point x="1122" y="1394" type="curve" smooth="yes"/>
      <point x="1122" y="1405"/>
      <point x="1118" y="1415"/>
      <point x="1112" y="1424" type="curve" smooth="yes"/>
      <point x="1018" y="1572"/>
      <point x="842" y="1659"/>
      <point x="669" y="1659" type="curve" smooth="yes"/>
      <point x="439" y="1659"/>
      <point x="286" y="1510"/>
      <point x="286" y="1278" type="curve" smooth="yes"/>
      <point x="286" y="1180"/>
      <point x="328" y="1085"/>
      <point x="370" y="998" type="curve" smooth="yes"/>
      <point x="372" y="994"/>
      <point x="373" y="990"/>
      <point x="373" y="986" type="curve" smooth="yes"/>
      <point x="373" y="978"/>
      <point x="366" y="973"/>
      <point x="360" y="969" type="curve"/>
      <point x="331" y="952"/>
      <point x="303" y="935"/>
      <point x="276" y="914" type="curve" smooth="yes"/>
      <point x="136" y="804"/>
      <point x="63" y="641"/>
      <point x="59" y="464" type="curve"/>
      <point x="58" y="453" type="line"/>
      <point x="58" y="182"/>
      <point x="246" y="-31"/>
      <point x="523" y="-31" type="curve" smooth="yes"/>
      <point x="643" y="-31"/>
      <point x="731" y="6"/>
      <point x="812" y="94" type="curve"/>
      <point x="817" y="99"/>
      <point x="822" y="106"/>
      <point x="830" y="106" type="curve" smooth="yes"/>
      <point x="860" y="106"/>
      <point x="862" y="0"/>
      <point x="932" y="0" type="curve" smooth="yes"/>
      <point x="1295" y="0" type="line" smooth="yes"/>
      <point x="1322" y="0"/>
      <point x="1367" y="4"/>
      <point x="1367" y="41" type="curve" smooth="yes"/>
      <point x="1367" y="60"/>
      <point x="1357" y="77"/>
      <point x="1348" y="93" type="curve" smooth="yes"/>
      <point x="1317" y="148"/>
      <point x="1051" y="603"/>
    </contour>
    <contour>
      <point x="622" y="472" type="line"/>
      <point x="606" y="436"/>
      <point x="633" y="361"/>
      <point x="573" y="361" type="curve" smooth="yes"/>
      <point x="508" y="361"/>
      <point x="504" y="468"/>
      <point x="504" y="514" type="curve" smooth="yes"/>
      <point x="504" y="575" type="line" smooth="yes"/>
      <point x="504" y="609"/>
      <point x="507" y="666"/>
      <point x="540" y="684" type="curve"/>
      <point x="668" y="435" type="line"/>
    </contour>
  </outline>
</glyph>
<glyph name="quotesingle" format="2">
  <advance width="594"/>
  <unicode hex="0027"/>
  <outline>
    <contour>
      <point x="431" y="1596" type="curve" smooth="yes"/>
      <point x="169" y="1596" type="line" smooth="yes"/>
      <point x="127" y="1596"/>
      <point x="107" y="1576"/>
      <point x="107" y="1534" type="curve" smooth="yes"/>
      <point x="107" y="1447"/>
      <point x="108" y="1360"/>
      <point x="109" y="1273" type="curve" smooth="yes"/>
      <point x="109" y="1218"/>
      <point x="108" y="1163"/>
      <point x="110" y="1108" type="curve" smooth="yes"/>
      <point x="112" y="1067"/>
      <point x="130" y="1046"/>
      <point x="172" y="1046" type="curve" smooth="yes"/>
      <point x="417" y="1046" type="line" smooth="yes"/>
      <point x="459" y="1046"/>
      <point x="477" y="1066"/>
      <point x="479" y="1106" type="curve" smooth="yes"/>
      <point x="482" y="1152"/>
      <point x="482" y="1198"/>
      <point x="483" y="1244" type="curve" smooth="yes"/>
      <point x="493" y="1532" type="line"/>
      <point x="493" y="1537" type="line" smooth="yes"/>
      <point x="493" y="1578"/>
      <point x="471" y="1596"/>
    </contour>
  </outline>
</glyph>
<glyph name="parenleft" format="2">
  <advance width="911"/>
  <unicode hex="0028"/>
  <outline>
    <contour>
      <point x="94" y="632" type="curve" smooth="yes"/>
      <point x="94" y="266"/>
      <point x="243" y="-114"/>
      <point x="526" y="-353" type="curve" smooth="yes"/>
      <point x="532" y="-358"/>
      <point x="540" y="-362"/>
      <point x="548" y="-362" type="curve" smooth="yes"/>
      <point x="572" y="-362"/>
      <point x="771" y="-282"/>
      <point x="806" y="-267" type="curve" smooth="yes"/>
      <point x="821" y="-261"/>
      <point x="841" y="-252"/>
      <point x="841" y="-232" type="curve" smooth="yes"/>
      <point x="841" y="-218"/>
      <point x="828" y="-204"/>
      <point x="819" y="-195" type="curve"/>
      <point x="592" y="46"/>
      <point x="481" y="293"/>
      <point x="481" y="627" type="curve" smooth="yes"/>
      <point x="481" y="888"/>
      <point x="550" y="1151"/>
      <point x="712" y="1360" type="curve" smooth="yes"/>
      <point x="732" y="1386"/>
      <point x="834" y="1486"/>
      <point x="834" y="1509" type="curve" smooth="yes"/>
      <point x="834" y="1529"/>
      <point x="815" y="1537"/>
      <point x="800" y="1544" type="curve" smooth="yes"/>
      <point x="768" y="1558"/>
      <point x="568" y="1637"/>
      <point x="546" y="1637" type="curve" smooth="yes"/>
      <point x="538" y="1637"/>
      <point x="531" y="1633"/>
      <point x="525" y="1628" type="curve" smooth="yes"/>
      <point x="241" y="1383"/>
      <point x="94" y="1003"/>
    </contour>
  </outline>
</glyph>
<glyph name="parenright" format="2">
  <advance width="911"/>
  <unicode hex="0029"/>
  <outline>
    <contour>
      <point x="824" y="642" type="curve" smooth="yes"/>
      <point x="824" y="942"/>
      <point x="731" y="1250"/>
      <point x="553" y="1492" type="curve" smooth="yes"/>
      <point x="520" y="1538"/>
      <point x="482" y="1585"/>
      <point x="441" y="1625" type="curve" smooth="yes"/>
      <point x="430" y="1636"/>
      <point x="416" y="1643"/>
      <point x="400" y="1643" type="curve" smooth="yes"/>
      <point x="381" y="1643"/>
      <point x="168" y="1553"/>
      <point x="138" y="1538" type="curve" smooth="yes"/>
      <point x="118" y="1528"/>
      <point x="90" y="1515"/>
      <point x="90" y="1487" type="curve" smooth="yes"/>
      <point x="90" y="1467"/>
      <point x="105" y="1449"/>
      <point x="117" y="1434" type="curve" smooth="yes"/>
      <point x="146" y="1398"/>
      <point x="175" y="1363"/>
      <point x="200" y="1324" type="curve" smooth="yes"/>
      <point x="332" y="1123"/>
      <point x="386" y="885"/>
      <point x="386" y="647" type="curve" smooth="yes"/>
      <point x="386" y="405"/>
      <point x="331" y="162"/>
      <point x="197" y="-42" type="curve" smooth="yes"/>
      <point x="172" y="-82"/>
      <point x="143" y="-117"/>
      <point x="113" y="-154" type="curve" smooth="yes"/>
      <point x="101" y="-169"/>
      <point x="87" y="-186"/>
      <point x="87" y="-207" type="curve" smooth="yes"/>
      <point x="87" y="-235"/>
      <point x="115" y="-248"/>
      <point x="136" y="-258" type="curve" smooth="yes"/>
      <point x="166" y="-272"/>
      <point x="380" y="-360"/>
      <point x="400" y="-360" type="curve" smooth="yes"/>
      <point x="416" y="-360"/>
      <point x="428" y="-354"/>
      <point x="439" y="-343" type="curve" smooth="yes"/>
      <point x="695" y="-100"/>
      <point x="824" y="296"/>
    </contour>
  </outline>
</glyph>
<glyph name="asterisk" format="2">
  <advance width="1004"/>
  <unicode hex="002A"/>
  <outline>
    <contour>
      <point x="409" y="936" type="curve" smooth="yes"/>
      <point x="591" y="936" type="line" smooth="yes"/>
      <point x="648" y="936"/>
      <point x="602" y="1017"/>
      <point x="639" y="1017" type="curve" smooth="yes"/>
      <point x="676" y="1017"/>
      <point x="750" y="981"/>
      <point x="790" y="981" type="curve" smooth="yes"/>
      <point x="812" y="981"/>
      <point x="827" y="993"/>
      <point x="838" y="1011" type="curve" smooth="yes"/>
      <point x="854" y="1036"/>
      <point x="925" y="1149"/>
      <point x="925" y="1170" type="curve" smooth="yes"/>
      <point x="925" y="1219"/>
      <point x="791" y="1213"/>
      <point x="791" y="1239" type="curve" smooth="yes"/>
      <point x="791" y="1265"/>
      <point x="933" y="1259"/>
      <point x="933" y="1311" type="curve" smooth="yes"/>
      <point x="933" y="1334"/>
      <point x="872" y="1430"/>
      <point x="857" y="1456" type="curve" smooth="yes"/>
      <point x="845" y="1476"/>
      <point x="830" y="1489"/>
      <point x="806" y="1489" type="curve" smooth="yes"/>
      <point x="766" y="1489"/>
      <point x="686" y="1453"/>
      <point x="648" y="1453" type="curve" smooth="yes"/>
      <point x="639" y="1453"/>
      <point x="633" y="1461"/>
      <point x="633" y="1470" type="curve" smooth="yes"/>
      <point x="633" y="1486"/>
      <point x="635" y="1502"/>
      <point x="635" y="1519" type="curve" smooth="yes"/>
      <point x="635" y="1542"/>
      <point x="619" y="1552"/>
      <point x="597" y="1552" type="curve" smooth="yes"/>
      <point x="413" y="1552" type="line" smooth="yes"/>
      <point x="365" y="1552"/>
      <point x="375" y="1508"/>
      <point x="375" y="1474" type="curve" smooth="yes"/>
      <point x="375" y="1463"/>
      <point x="371" y="1453"/>
      <point x="358" y="1453" type="curve" smooth="yes"/>
      <point x="316" y="1453"/>
      <point x="247" y="1490"/>
      <point x="205" y="1490" type="curve" smooth="yes"/>
      <point x="182" y="1490"/>
      <point x="166" y="1478"/>
      <point x="155" y="1459" type="curve" smooth="yes"/>
      <point x="141" y="1435"/>
      <point x="77" y="1329"/>
      <point x="77" y="1309" type="curve" smooth="yes"/>
      <point x="77" y="1265"/>
      <point x="205" y="1268"/>
      <point x="205" y="1241" type="curve" smooth="yes"/>
      <point x="205" y="1216"/>
      <point x="77" y="1221"/>
      <point x="77" y="1179" type="curve" smooth="yes"/>
      <point x="77" y="1159"/>
      <point x="151" y="1044"/>
      <point x="166" y="1019" type="curve" smooth="yes"/>
      <point x="177" y="1001"/>
      <point x="192" y="988"/>
      <point x="214" y="988" type="curve" smooth="yes"/>
      <point x="261" y="988"/>
      <point x="315" y="1020"/>
      <point x="360" y="1020" type="curve" smooth="yes"/>
      <point x="401" y="1020"/>
      <point x="347" y="936"/>
    </contour>
  </outline>
</glyph>
<glyph name="plus" format="2">
  <advance width="1108"/>
  <unicode hex="002B"/>
  <outline>
    <contour>
      <point x="358" y="715" type="curve" smooth="yes"/>
      <point x="358" y="701"/>
      <point x="351" y="694"/>
      <point x="337" y="694" type="curve" smooth="yes"/>
      <point x="163" y="694" type="line" smooth="yes"/>
      <point x="122" y="694"/>
      <point x="102" y="674"/>
      <point x="102" y="633" type="curve" smooth="yes"/>
      <point x="102" y="550"/>
      <point x="100" y="466"/>
      <point x="100" y="383" type="curve" smooth="yes"/>
      <point x="100" y="341"/>
      <point x="120" y="321"/>
      <point x="162" y="321" type="curve" smooth="yes"/>
      <point x="336" y="321" type="line" smooth="yes"/>
      <point x="351" y="321"/>
      <point x="356" y="314"/>
      <point x="356" y="300" type="curve" smooth="yes"/>
      <point x="356" y="258"/>
      <point x="355" y="217"/>
      <point x="355" y="175" type="curve" smooth="yes"/>
      <point x="355" y="133"/>
      <point x="375" y="113"/>
      <point x="417" y="113" type="curve" smooth="yes"/>
      <point x="680" y="113" type="line" smooth="yes"/>
      <point x="722" y="113"/>
      <point x="742" y="133"/>
      <point x="742" y="175" type="curve" smooth="yes"/>
      <point x="742" y="217"/>
      <point x="741" y="258"/>
      <point x="741" y="300" type="curve" smooth="yes"/>
      <point x="741" y="313"/>
      <point x="747" y="321"/>
      <point x="761" y="321" type="curve" smooth="yes"/>
      <point x="934" y="321" type="line" smooth="yes"/>
      <point x="976" y="321"/>
      <point x="996" y="341"/>
      <point x="996" y="383" type="curve" smooth="yes"/>
      <point x="996" y="466"/>
      <point x="994" y="550"/>
      <point x="994" y="633" type="curve" smooth="yes"/>
      <point x="994" y="674"/>
      <point x="974" y="694"/>
      <point x="933" y="694" type="curve" smooth="yes"/>
      <point x="760" y="694" type="line" smooth="yes"/>
      <point x="746" y="694"/>
      <point x="740" y="702"/>
      <point x="740" y="715" type="curve" smooth="yes"/>
      <point x="740" y="850" type="line" smooth="yes"/>
      <point x="740" y="891"/>
      <point x="720" y="911"/>
      <point x="679" y="911" type="curve" smooth="yes"/>
      <point x="419" y="911" type="line" smooth="yes"/>
      <point x="377" y="911"/>
      <point x="357" y="891"/>
      <point x="357" y="849" type="curve" smooth="yes"/>
      <point x="357" y="804"/>
      <point x="358" y="760"/>
    </contour>
  </outline>
</glyph>
<glyph name="comma" format="2">
  <advance width="709"/>
  <unicode hex="002C"/>
  <outline>
    <contour>
      <point x="574" y="193" type="curve" smooth="yes"/>
      <point x="300" y="193" type="line" smooth="yes"/>
      <point x="283" y="193"/>
      <point x="271" y="184"/>
      <point x="263" y="170" type="curve" smooth="yes"/>
      <point x="233" y="119"/>
      <point x="206" y="66"/>
      <point x="178" y="14" type="curve" smooth="yes"/>
      <point x="138" y="-59"/>
      <point x="95" y="-130"/>
      <point x="55" y="-203" type="curve" smooth="yes"/>
      <point x="49" y="-214"/>
      <point x="42" y="-226"/>
      <point x="42" y="-239" type="curve" smooth="yes"/>
      <point x="42" y="-263"/>
      <point x="72" y="-266"/>
      <point x="90" y="-266" type="curve" smooth="yes"/>
      <point x="352" y="-266" type="line" smooth="yes"/>
      <point x="369" y="-266"/>
      <point x="379" y="-259"/>
      <point x="388" y="-246" type="curve"/>
      <point x="421" y="-201"/>
      <point x="446" y="-147"/>
      <point x="475" y="-99" type="curve" smooth="yes"/>
      <point x="520" y="-23"/>
      <point x="566" y="53"/>
      <point x="609" y="130" type="curve" smooth="yes"/>
      <point x="615" y="141"/>
      <point x="622" y="152"/>
      <point x="622" y="165" type="curve" smooth="yes"/>
      <point x="622" y="190"/>
      <point x="593" y="193"/>
    </contour>
  </outline>
</glyph>
<glyph name="period" format="2">
  <advance width="709"/>
  <unicode hex="002E"/>
  <outline>
    <contour>
      <point x="138" y="171" type="curve" smooth="yes"/>
      <point x="138" y="59"/>
      <point x="254" y="0"/>
      <point x="353" y="0" type="curve" smooth="yes"/>
      <point x="452" y="0"/>
      <point x="572" y="58"/>
      <point x="572" y="171" type="curve" smooth="yes"/>
      <point x="572" y="275"/>
      <point x="445" y="344"/>
      <point x="353" y="344" type="curve" smooth="yes"/>
      <point x="260" y="344"/>
      <point x="138" y="275"/>
    </contour>
  </outline>
</glyph>
<glyph name="slash" format="2">
  <advance width="768"/>
  <unicode hex="002F"/>
  <outline>
    <contour>
      <point x="728" y="1622" type="curve" smooth="yes"/>
      <point x="529" y="1622" type="line" smooth="yes"/>
      <point x="507" y="1622"/>
      <point x="497" y="1612"/>
      <point x="489" y="1593" type="curve" smooth="yes"/>
      <point x="463" y="1534"/>
      <point x="447" y="1452"/>
      <point x="429" y="1388" type="curve" smooth="yes"/>
      <point x="298" y="929"/>
      <point x="172" y="469"/>
      <point x="32" y="13" type="curve" smooth="yes"/>
      <point x="30" y="6"/>
      <point x="28" y="-2"/>
      <point x="28" y="-9" type="curve" smooth="yes"/>
      <point x="28" y="-35"/>
      <point x="50" y="-40"/>
      <point x="71" y="-40" type="curve" smooth="yes"/>
      <point x="265" y="-40" type="line" smooth="yes"/>
      <point x="287" y="-40"/>
      <point x="297" y="-30"/>
      <point x="305" y="-11" type="curve" smooth="yes"/>
      <point x="329" y="44"/>
      <point x="347" y="133"/>
      <point x="364" y="194" type="curve" smooth="yes"/>
      <point x="493" y="654"/>
      <point x="622" y="1113"/>
      <point x="766" y="1569" type="curve"/>
      <point x="768" y="1576"/>
      <point x="770" y="1584"/>
      <point x="770" y="1591" type="curve" smooth="yes"/>
      <point x="770" y="1617"/>
      <point x="749" y="1622"/>
    </contour>
  </outline>
</glyph>
<glyph name="zero" format="2">
  <advance width="1356"/>
  <unicode hex="0030"/>
  <outline>
    <contour>
      <point x="675" y="4" type="curve" smooth="yes"/>
      <point x="1070" y="4"/>
      <point x="1308" y="195"/>
      <point x="1308" y="603" type="curve" smooth="yes"/>
      <point x="1308" y="1043"/>
      <point x="1093" y="1219"/>
      <point x="665" y="1219" type="curve" smooth="yes"/>
      <point x="230" y="1219"/>
      <point x="48" y="1038"/>
      <point x="48" y="603" type="curve" smooth="yes"/>
      <point x="48" y="186"/>
      <point x="270" y="4"/>
    </contour>
    <contour>
      <point x="676" y="366" type="curve" smooth="yes"/>
      <point x="513" y="366"/>
      <point x="457" y="459"/>
      <point x="457" y="611" type="curve" smooth="yes"/>
      <point x="457" y="765"/>
      <point x="512" y="854"/>
      <point x="677" y="854" type="curve" smooth="yes"/>
      <point x="833" y="854"/>
      <point x="900" y="774"/>
      <point x="900" y="622" type="curve" smooth="yes"/>
      <point x="900" y="467"/>
      <point x="844" y="366"/>
    </contour>
  </outline>
</glyph>
<glyph name="one" format="2">
  <advance width="786"/>
  <unicode hex="0031"/>
  <outline>
    <contour>
      <point x="39" y="1161" type="curve" smooth="yes"/>
      <point x="39" y="1064"/>
      <point x="43" y="967"/>
      <point x="43" y="870" type="curve" smooth="yes"/>
      <point x="43" y="843"/>
      <point x="58" y="829"/>
      <point x="84" y="829" type="curve" smooth="yes"/>
      <point x="281" y="829" type="line" smooth="yes"/>
      <point x="288" y="829"/>
      <point x="293" y="823"/>
      <point x="293" y="816" type="curve" smooth="yes"/>
      <point x="293" y="558"/>
      <point x="289" y="299"/>
      <point x="289" y="41" type="curve" smooth="yes"/>
      <point x="289" y="14"/>
      <point x="303" y="0"/>
      <point x="330" y="0" type="curve" smooth="yes"/>
      <point x="636" y="0" type="line" smooth="yes"/>
      <point x="665" y="0"/>
      <point x="676" y="14"/>
      <point x="676" y="42" type="curve" smooth="yes"/>
      <point x="676" y="259"/>
      <point x="668" y="477"/>
      <point x="668" y="694" type="curve" smooth="yes"/>
      <point x="668" y="850"/>
      <point x="672" y="1005"/>
      <point x="672" y="1161" type="curve" smooth="yes"/>
      <point x="672" y="1188"/>
      <point x="659" y="1202"/>
      <point x="632" y="1202" type="curve" smooth="yes"/>
      <point x="79" y="1202" type="line" smooth="yes"/>
      <point x="52" y="1202"/>
      <point x="39" y="1188"/>
    </contour>
  </outline>
</glyph>
<glyph name="two" format="2">
  <advance width="1122"/>
  <unicode hex="0032"/>
  <outline>
    <contour>
      <point x="179" y="0" type="curve" smooth="yes"/>
      <point x="1000" y="0" type="line" smooth="yes"/>
      <point x="1029" y="0"/>
      <point x="1040" y="14"/>
      <point x="1040" y="42" type="curve" smooth="yes"/>
      <point x="1040" y="146"/>
      <point x="1029" y="249"/>
      <point x="1029" y="353" type="curve" smooth="yes"/>
      <point x="1029" y="379"/>
      <point x="1014" y="394"/>
      <point x="988" y="394" type="curve" smooth="yes"/>
      <point x="950" y="394"/>
      <point x="906" y="389"/>
      <point x="869" y="395" type="curve"/>
      <point x="868" y="396"/>
      <point x="867" y="397"/>
      <point x="867" y="399" type="curve" smooth="yes"/>
      <point x="867" y="412"/>
      <point x="1051" y="612"/>
      <point x="1051" y="788" type="curve" smooth="yes"/>
      <point x="1051" y="1057"/>
      <point x="810" y="1225"/>
      <point x="558" y="1225" type="curve" smooth="yes"/>
      <point x="532" y="1225" type="line" smooth="yes"/>
      <point x="276" y="1225"/>
      <point x="55" y="1057"/>
      <point x="55" y="788" type="curve" smooth="yes"/>
      <point x="55" y="648"/>
      <point x="118" y="487"/>
      <point x="231" y="400" type="curve" smooth="yes"/>
      <point x="239" y="394"/>
      <point x="244" y="391"/>
      <point x="254" y="391" type="curve" smooth="yes"/>
      <point x="268" y="391"/>
      <point x="274" y="398"/>
      <point x="283" y="408" type="curve" smooth="yes"/>
      <point x="306" y="433"/>
      <point x="452" y="617"/>
      <point x="452" y="637" type="curve" smooth="yes"/>
      <point x="452" y="673"/>
      <point x="400" y="691"/>
      <point x="400" y="748" type="curve" smooth="yes"/>
      <point x="400" y="835"/>
      <point x="476" y="828"/>
      <point x="541" y="828" type="curve" smooth="yes"/>
      <point x="598" y="828"/>
      <point x="669" y="781"/>
      <point x="669" y="719" type="curve" smooth="yes"/>
      <point x="669" y="706"/>
      <point x="659" y="665"/>
      <point x="654" y="652" type="curve" smooth="yes"/>
      <point x="571" y="422"/>
      <point x="318" y="237"/>
      <point x="151" y="65" type="curve" smooth="yes"/>
      <point x="139" y="52"/>
      <point x="126" y="40"/>
      <point x="126" y="21" type="curve" smooth="yes"/>
      <point x="126" y="1"/>
      <point x="166" y="0"/>
    </contour>
  </outline>
</glyph>
<glyph name="three" format="2">
  <advance width="1028"/>
  <unicode hex="0033"/>
  <outline>
    <contour>
      <point x="851" y="1202" type="curve" smooth="yes"/>
      <point x="209" y="1202" type="line" smooth="yes"/>
      <point x="167" y="1202"/>
      <point x="147" y="1182"/>
      <point x="147" y="1140" type="curve" smooth="yes"/>
      <point x="147" y="1086"/>
      <point x="147" y="1031"/>
      <point x="149" y="977" type="curve" smooth="yes"/>
      <point x="150" y="936"/>
      <point x="168" y="916"/>
      <point x="210" y="916" type="curve" smooth="yes"/>
      <point x="392" y="916" type="line" smooth="yes"/>
      <point x="401" y="916"/>
      <point x="415" y="913"/>
      <point x="415" y="901" type="curve" smooth="yes"/>
      <point x="415" y="881"/>
      <point x="241" y="550"/>
      <point x="241" y="540" type="curve" smooth="yes"/>
      <point x="241" y="526"/>
      <point x="270" y="532"/>
      <point x="279" y="532" type="curve" smooth="yes"/>
      <point x="346" y="532"/>
      <point x="490" y="518"/>
      <point x="490" y="425" type="curve" smooth="yes"/>
      <point x="490" y="374"/>
      <point x="444" y="352"/>
      <point x="399" y="352" type="curve" smooth="yes"/>
      <point x="322" y="352"/>
      <point x="303" y="406"/>
      <point x="266" y="406" type="curve" smooth="yes"/>
      <point x="246" y="406"/>
      <point x="231" y="387"/>
      <point x="220" y="372" type="curve" smooth="yes"/>
      <point x="172" y="308"/>
      <point x="124" y="241"/>
      <point x="79" y="175" type="curve"/>
      <point x="71" y="164"/>
      <point x="64" y="151"/>
      <point x="64" y="137" type="curve" smooth="yes"/>
      <point x="64" y="119"/>
      <point x="76" y="106"/>
      <point x="90" y="96" type="curve" smooth="yes"/>
      <point x="188" y="27"/>
      <point x="354" y="-14"/>
      <point x="473" y="-14" type="curve" smooth="yes"/>
      <point x="718" y="-14"/>
      <point x="941" y="146"/>
      <point x="941" y="406" type="curve" smooth="yes"/>
      <point x="941" y="572"/>
      <point x="871" y="680"/>
      <point x="725" y="754" type="curve"/>
      <point x="718" y="758"/>
      <point x="710" y="762"/>
      <point x="710" y="771" type="curve" smooth="yes"/>
      <point x="710" y="800"/>
      <point x="922" y="1113"/>
      <point x="922" y="1162" type="curve" smooth="yes"/>
      <point x="922" y="1199"/>
      <point x="878" y="1202"/>
    </contour>
  </outline>
</glyph>
<glyph name="four" format="2">
  <advance width="1235"/>
  <unicode hex="0034"/>
  <outline>
    <contour>
      <point x="643" y="0" type="curve" smooth="yes"/>
      <point x="966" y="0" type="line" smooth="yes"/>
      <point x="1008" y="0"/>
      <point x="1027" y="21"/>
      <point x="1027" y="62" type="curve" smooth="yes"/>
      <point x="1027" y="110"/>
      <point x="1025" y="158" name=".hr01"/>
      <point x="1024" y="206" type="curve" smooth="yes"/>
      <point x="1023" y="266"/>
      <point x="1186" y="172"/>
      <point x="1186" y="289" type="curve" smooth="yes"/>
      <point x="1186" y="332"/>
      <point x="1186" y="376"/>
      <point x="1185" y="419" type="curve" smooth="yes"/>
      <point x="1183" y="535"/>
      <point x="1021" y="441"/>
      <point x="1021" y="501" type="curve" smooth="yes"/>
      <point x="1021" y="676" type="line" smooth="yes"/>
      <point x="1021" y="835"/>
      <point x="1023" y="995"/>
      <point x="1023" y="1154" type="curve" smooth="yes"/>
      <point x="1023" y="1195"/>
      <point x="1004" y="1216"/>
      <point x="962" y="1216" type="curve" smooth="yes"/>
      <point x="612" y="1216" type="line" smooth="yes"/>
      <point x="588" y="1216"/>
      <point x="570" y="1206"/>
      <point x="558" y="1185" type="curve" smooth="yes"/>
      <point x="488" y="1066"/>
      <point x="422" y="942"/>
      <point x="355" y="821" type="curve" smooth="yes"/>
      <point x="261" y="654"/>
      <point x="165" y="487"/>
      <point x="70" y="320" type="curve" smooth="yes"/>
      <point x="61" y="304"/>
      <point x="52" y="286"/>
      <point x="52" y="267" type="curve" smooth="yes"/>
      <point x="52" y="231"/>
      <point x="96" y="227"/>
      <point x="123" y="227" type="curve" smooth="yes"/>
      <point x="562" y="227" type="line" smooth="yes"/>
      <point x="576" y="227"/>
      <point x="582" y="220"/>
      <point x="582" y="206" type="curve" smooth="yes"/>
      <point x="582" y="61" type="line" smooth="yes"/>
      <point x="582" y="20"/>
      <point x="602" y="0"/>
    </contour>
    <contour>
      <point x="420" y="480" type="line"/>
      <point x="474" y="577"/>
      <point x="529" y="673"/>
      <point x="583" y="770" type="curve"/>
      <point x="583" y="480" type="line"/>
    </contour>
  </outline>
</glyph>
<glyph name="five" format="2">
  <advance width="1092"/>
  <unicode hex="0035"/>
  <outline>
    <contour>
      <point x="542" y="-14" type="curve" smooth="yes"/>
      <point x="776" y="-14"/>
      <point x="1031" y="154"/>
      <point x="1031" y="407" type="curve" smooth="yes"/>
      <point x="1031" y="593"/>
      <point x="882" y="713"/>
      <point x="715" y="757" type="curve" smooth="yes"/>
      <point x="665" y="770"/>
      <point x="617" y="773"/>
      <point x="566" y="778" type="curve" smooth="yes"/>
      <point x="534" y="781"/>
      <point x="545" y="830"/>
      <point x="545" y="854" type="curve" smooth="yes"/>
      <point x="545" y="868"/>
      <point x="552" y="875"/>
      <point x="566" y="875" type="curve" smooth="yes"/>
      <point x="847" y="875" type="line" smooth="yes"/>
      <point x="889" y="875"/>
      <point x="907" y="895"/>
      <point x="909" y="936" type="curve" smooth="yes"/>
      <point x="912" y="1004"/>
      <point x="911" y="1072"/>
      <point x="911" y="1140" type="curve" smooth="yes"/>
      <point x="911" y="1182"/>
      <point x="891" y="1202"/>
      <point x="849" y="1202" type="curve" smooth="yes"/>
      <point x="231" y="1202" type="line" smooth="yes"/>
      <point x="189" y="1202"/>
      <point x="170" y="1182"/>
      <point x="170" y="1140" type="curve" smooth="yes"/>
      <point x="170" y="949"/>
      <point x="172" y="757"/>
      <point x="172" y="566" type="curve" smooth="yes"/>
      <point x="172" y="534"/>
      <point x="178" y="500"/>
      <point x="217" y="500" type="curve" smooth="yes"/>
      <point x="230" y="500"/>
      <point x="243" y="504"/>
      <point x="255" y="508" type="curve" smooth="yes"/>
      <point x="309" y="525"/>
      <point x="361" y="540"/>
      <point x="418" y="540" type="curve" smooth="yes"/>
      <point x="478" y="540"/>
      <point x="580" y="530"/>
      <point x="580" y="450" type="curve" smooth="yes"/>
      <point x="580" y="373"/>
      <point x="482" y="357"/>
      <point x="423" y="357" type="curve" smooth="yes"/>
      <point x="377" y="357"/>
      <point x="333" y="366"/>
      <point x="289" y="380" type="curve" smooth="yes"/>
      <point x="279" y="383"/>
      <point x="269" y="386"/>
      <point x="258" y="386" type="curve" smooth="yes"/>
      <point x="236" y="386"/>
      <point x="223" y="375"/>
      <point x="210" y="359" type="curve" smooth="yes"/>
      <point x="169" y="309"/>
      <point x="118" y="240"/>
      <point x="82" y="186" type="curve" smooth="yes"/>
      <point x="74" y="174"/>
      <point x="66" y="162"/>
      <point x="66" y="147" type="curve" smooth="yes"/>
      <point x="66" y="127"/>
      <point x="80" y="114"/>
      <point x="95" y="104" type="curve" smooth="yes"/>
      <point x="210" y="25"/>
      <point x="404" y="-14"/>
    </contour>
  </outline>
</glyph>
<glyph name="six" format="2">
  <advance width="1223"/>
  <unicode hex="0036"/>
  <outline>
    <contour>
      <point x="622" y="-14" type="curve" smooth="yes"/>
      <point x="898" y="-14"/>
      <point x="1183" y="123"/>
      <point x="1183" y="435" type="curve" smooth="yes"/>
      <point x="1183" y="692"/>
      <point x="1003" y="823"/>
      <point x="759" y="823" type="curve" smooth="yes"/>
      <point x="705" y="823"/>
      <point x="653" y="815"/>
      <point x="602" y="798" type="curve" smooth="yes"/>
      <point x="587" y="793"/>
      <point x="560" y="782"/>
      <point x="544" y="782" type="curve" smooth="yes"/>
      <point x="540" y="782"/>
      <point x="535" y="783"/>
      <point x="535" y="787" type="curve" smooth="yes"/>
      <point x="535" y="799"/>
      <point x="568" y="830"/>
      <point x="574" y="836" type="curve" smooth="yes"/>
      <point x="631" y="893"/>
      <point x="701" y="930"/>
      <point x="775" y="960" type="curve" smooth="yes"/>
      <point x="798" y="969"/>
      <point x="839" y="985"/>
      <point x="839" y="1015" type="curve" smooth="yes"/>
      <point x="839" y="1039"/>
      <point x="816" y="1060"/>
      <point x="801" y="1075" type="curve" smooth="yes"/>
      <point x="747" y="1128"/>
      <point x="683" y="1189"/>
      <point x="626" y="1238" type="curve" smooth="yes"/>
      <point x="614" y="1248"/>
      <point x="603" y="1256"/>
      <point x="586" y="1256" type="curve" smooth="yes"/>
      <point x="577" y="1256"/>
      <point x="567" y="1253"/>
      <point x="559" y="1249" type="curve" smooth="yes"/>
      <point x="271" y="1111"/>
      <point x="42" y="855"/>
      <point x="42" y="522" type="curve" smooth="yes"/>
      <point x="42" y="179"/>
      <point x="294" y="-14"/>
    </contour>
    <contour>
      <point x="494" y="407" type="curve" smooth="yes"/>
      <point x="494" y="416"/>
      <point x="494" y="425"/>
      <point x="495" y="434" type="curve"/>
      <point x="499" y="495"/>
      <point x="573" y="505"/>
      <point x="622" y="505" type="curve" smooth="yes"/>
      <point x="674" y="505"/>
      <point x="728" y="488"/>
      <point x="728" y="426" type="curve" smooth="yes"/>
      <point x="728" y="360"/>
      <point x="675" y="327"/>
      <point x="614" y="327" type="curve" smooth="yes"/>
      <point x="563" y="327"/>
      <point x="494" y="343"/>
    </contour>
  </outline>
</glyph>
<glyph name="seven" format="2">
  <advance width="1053"/>
  <unicode hex="0037"/>
  <outline>
    <contour>
      <point x="967" y="1211" type="curve" smooth="yes"/>
      <point x="93" y="1211" type="line" smooth="yes"/>
      <point x="64" y="1211"/>
      <point x="54" y="1198"/>
      <point x="54" y="1170" type="curve" smooth="yes"/>
      <point x="54" y="1088"/>
      <point x="57" y="1006"/>
      <point x="59" y="924" type="curve" smooth="yes"/>
      <point x="60" y="881"/>
      <point x="58" y="837"/>
      <point x="61" y="794" type="curve" smooth="yes"/>
      <point x="63" y="767"/>
      <point x="72" y="753"/>
      <point x="101" y="753" type="curve" smooth="yes"/>
      <point x="386" y="753" type="line" smooth="yes"/>
      <point x="390" y="753"/>
      <point x="398" y="750"/>
      <point x="398" y="745" type="curve" smooth="yes"/>
      <point x="398" y="744"/>
      <point x="397" y="737"/>
      <point x="397" y="736" type="curve"/>
      <point x="362" y="630"/>
      <point x="92" y="67"/>
      <point x="92" y="29" type="curve" smooth="yes"/>
      <point x="92" y="4"/>
      <point x="116" y="0"/>
      <point x="136" y="0" type="curve" smooth="yes"/>
      <point x="534" y="0" type="line" smooth="yes"/>
      <point x="555" y="0"/>
      <point x="563" y="9"/>
      <point x="572" y="26" type="curve" smooth="yes"/>
      <point x="595" y="71"/>
      <point x="609" y="125"/>
      <point x="627" y="172" type="curve" smooth="yes"/>
      <point x="723" y="429" type="line" smooth="yes"/>
      <point x="814" y="672"/>
      <point x="911" y="913"/>
      <point x="1004" y="1155" type="curve" smooth="yes"/>
      <point x="1007" y="1163"/>
      <point x="1010" y="1172"/>
      <point x="1010" y="1181" type="curve" smooth="yes"/>
      <point x="1010" y="1207"/>
      <point x="988" y="1211"/>
    </contour>
  </outline>
</glyph>
<glyph name="eight" format="2">
  <advance width="1073"/>
  <unicode hex="0038"/>
  <outline>
    <contour>
      <point x="24" y="408" type="curve" smooth="yes"/>
      <point x="24" y="147"/>
      <point x="286" y="-14"/>
      <point x="524" y="-14" type="curve" smooth="yes"/>
      <point x="547" y="-14" type="line" smooth="yes"/>
      <point x="789" y="-14"/>
      <point x="1047" y="148"/>
      <point x="1047" y="412" type="curve" smooth="yes"/>
      <point x="1047" y="617"/>
      <point x="873" y="706"/>
      <point x="873" y="730" type="curve" smooth="yes"/>
      <point x="873" y="736"/>
      <point x="878" y="742"/>
      <point x="882" y="746" type="curve"/>
      <point x="940" y="811"/>
      <point x="954" y="862"/>
      <point x="954" y="949" type="curve" smooth="yes"/>
      <point x="954" y="1130"/>
      <point x="704" y="1218"/>
      <point x="555" y="1218" type="curve" smooth="yes"/>
      <point x="386" y="1218"/>
      <point x="148" y="1132"/>
      <point x="148" y="929" type="curve" smooth="yes"/>
      <point x="148" y="855"/>
      <point x="159" y="806"/>
      <point x="202" y="746" type="curve" smooth="yes"/>
      <point x="205" y="742"/>
      <point x="208" y="737"/>
      <point x="208" y="731" type="curve" smooth="yes"/>
      <point x="208" y="708"/>
      <point x="24" y="613"/>
    </contour>
    <contour>
      <point x="446" y="428" type="curve" smooth="yes"/>
      <point x="446" y="483"/>
      <point x="472" y="536"/>
      <point x="534" y="536" type="curve" smooth="yes"/>
      <point x="603" y="536"/>
      <point x="617" y="479"/>
      <point x="617" y="421" type="curve" smooth="yes"/>
      <point x="617" y="364"/>
      <point x="600" y="306"/>
      <point x="532" y="306" type="curve" smooth="yes"/>
      <point x="463" y="306"/>
      <point x="446" y="371"/>
    </contour>
    <contour>
      <point x="456" y="896" type="curve" smooth="yes"/>
      <point x="456" y="946"/>
      <point x="475" y="991"/>
      <point x="532" y="991" type="curve" smooth="yes"/>
      <point x="588" y="991"/>
      <point x="607" y="946"/>
      <point x="607" y="897" type="curve" smooth="yes"/>
      <point x="607" y="850"/>
      <point x="591" y="804"/>
      <point x="536" y="804" type="curve" smooth="yes"/>
      <point x="482" y="804"/>
      <point x="456" y="846"/>
    </contour>
  </outline>
</glyph>
<glyph name="nine" format="2">
  <advance width="1223"/>
  <unicode hex="0039"/>
  <outline>
    <contour>
      <point x="507" y="390" type="curve" smooth="yes"/>
      <point x="537" y="390"/>
      <point x="566" y="393"/>
      <point x="595" y="397" type="curve"/>
      <point x="606" y="399"/>
      <point x="619" y="402"/>
      <point x="630" y="402" type="curve" smooth="yes"/>
      <point x="632" y="402"/>
      <point x="635" y="401"/>
      <point x="637" y="401" type="curve"/>
      <point x="638" y="397" type="line"/>
      <point x="629" y="387"/>
      <point x="617" y="381"/>
      <point x="605" y="374" type="curve" smooth="yes"/>
      <point x="505" y="315"/>
      <point x="399" y="286"/>
      <point x="289" y="254" type="curve" smooth="yes"/>
      <point x="274" y="250"/>
      <point x="247" y="244"/>
      <point x="247" y="223" type="curve" smooth="yes"/>
      <point x="247" y="189"/>
      <point x="410" y="16"/>
      <point x="442" y="-18" type="curve" smooth="yes"/>
      <point x="451" y="-28"/>
      <point x="455" y="-33"/>
      <point x="470" y="-33" type="curve" smooth="yes"/>
      <point x="477" y="-33"/>
      <point x="483" y="-31"/>
      <point x="489" y="-28" type="curve"/>
      <point x="828" y="126"/>
      <point x="1186" y="331"/>
      <point x="1186" y="753" type="curve" smooth="yes"/>
      <point x="1186" y="1060"/>
      <point x="898" y="1249"/>
      <point x="614" y="1249" type="curve" smooth="yes"/>
      <point x="334" y="1249"/>
      <point x="52" y="1097"/>
      <point x="52" y="786" type="curve" smooth="yes"/>
      <point x="52" y="529"/>
      <point x="269" y="390"/>
    </contour>
    <contour>
      <point x="604" y="673" type="curve" smooth="yes"/>
      <point x="530" y="673"/>
      <point x="407" y="690"/>
      <point x="407" y="787" type="curve" smooth="yes"/>
      <point x="407" y="888"/>
      <point x="543" y="903"/>
      <point x="618" y="903" type="curve" smooth="yes"/>
      <point x="667" y="903"/>
      <point x="811" y="876"/>
      <point x="811" y="810" type="curve" smooth="yes"/>
      <point x="811" y="758" type="line"/>
      <point x="768" y="698"/>
      <point x="674" y="673"/>
    </contour>
  </outline>
</glyph>
<glyph name="colon" format="2">
  <advance width="627"/>
  <unicode hex="003A"/>
  <outline>
    <contour>
      <point x="94" y="860" type="curve" smooth="yes"/>
      <point x="94" y="743"/>
      <point x="192" y="651"/>
      <point x="308" y="651" type="curve" smooth="yes"/>
      <point x="424" y="651"/>
      <point x="527" y="741"/>
      <point x="527" y="860" type="curve" smooth="yes"/>
      <point x="527" y="974"/>
      <point x="421" y="1071"/>
      <point x="309" y="1071" type="curve" smooth="yes"/>
      <point x="195" y="1071"/>
      <point x="94" y="975"/>
    </contour>
    <contour>
      <point x="92" y="206" type="curve" smooth="yes"/>
      <point x="92" y="89"/>
      <point x="194" y="0"/>
      <point x="308" y="0" type="curve" smooth="yes"/>
      <point x="422" y="0"/>
      <point x="529" y="88"/>
      <point x="529" y="206" type="curve" smooth="yes"/>
      <point x="529" y="322"/>
      <point x="424" y="422"/>
      <point x="309" y="422" type="curve" smooth="yes"/>
      <point x="193" y="422"/>
      <point x="92" y="322"/>
    </contour>
  </outline>
</glyph>
<glyph name="semicolon" format="2">
  <advance width="627"/>
  <unicode hex="003B"/>
  <outline>
    <contour>
      <point x="191" y="766" type="curve" smooth="yes"/>
      <point x="191" y="647"/>
      <point x="303" y="555"/>
      <point x="418" y="555" type="curve" smooth="yes"/>
      <point x="536" y="555"/>
      <point x="609" y="655"/>
      <point x="609" y="766" type="curve" smooth="yes"/>
      <point x="609" y="875"/>
      <point x="533" y="976"/>
      <point x="418" y="976" type="curve" smooth="yes"/>
      <point x="309" y="976"/>
      <point x="191" y="880"/>
    </contour>
    <contour>
      <point x="457" y="194" type="curve" smooth="yes"/>
      <point x="232" y="194" type="line" smooth="yes"/>
      <point x="205" y="194"/>
      <point x="188" y="183"/>
      <point x="176" y="159" type="curve" smooth="yes"/>
      <point x="151" y="109"/>
      <point x="128" y="58"/>
      <point x="103" y="8" type="curve" smooth="yes"/>
      <point x="74" y="-53"/>
      <point x="43" y="-114"/>
      <point x="13" y="-175" type="curve" smooth="yes"/>
      <point x="6" y="-190"/>
      <point x="-1" y="-206"/>
      <point x="-1" y="-223" type="curve" smooth="yes"/>
      <point x="-1" y="-260"/>
      <point x="39" y="-265"/>
      <point x="68" y="-265" type="curve" smooth="yes"/>
      <point x="280" y="-265" type="line" smooth="yes"/>
      <point x="306" y="-265"/>
      <point x="322" y="-254"/>
      <point x="334" y="-232" type="curve" smooth="yes"/>
      <point x="396" y="-122"/>
      <point x="455" y="-8"/>
      <point x="512" y="105" type="curve"/>
      <point x="519" y="120"/>
      <point x="527" y="135"/>
      <point x="527" y="152" type="curve" smooth="yes"/>
      <point x="527" y="189"/>
      <point x="485" y="194"/>
    </contour>
  </outline>
</glyph>
<glyph name="less" format="2">
  <advance width="911"/>
  <unicode hex="003C"/>
  <outline>
    <contour>
      <point x="778" y="957" type="curve" smooth="yes"/>
      <point x="778" y="982"/>
      <point x="776" y="1035"/>
      <point x="740" y="1035" type="curve" smooth="yes"/>
      <point x="718" y="1035"/>
      <point x="696" y="1020"/>
      <point x="680" y="1008" type="curve" smooth="yes"/>
      <point x="560" y="921"/>
      <point x="442" y="831"/>
      <point x="323" y="742" type="curve" smooth="yes"/>
      <point x="248" y="686"/>
      <point x="171" y="632"/>
      <point x="98" y="574" type="curve" smooth="yes"/>
      <point x="83" y="562"/>
      <point x="65" y="546"/>
      <point x="65" y="525" type="curve" smooth="yes"/>
      <point x="65" y="504"/>
      <point x="83" y="488"/>
      <point x="98" y="476" type="curve" smooth="yes"/>
      <point x="178" y="413"/>
      <point x="262" y="354"/>
      <point x="343" y="294" type="curve" smooth="yes"/>
      <point x="457" y="210"/>
      <point x="569" y="124"/>
      <point x="684" y="43" type="curve"/>
      <point x="700" y="31"/>
      <point x="723" y="16"/>
      <point x="744" y="16" type="curve" smooth="yes"/>
      <point x="780" y="16"/>
      <point x="781" y="68"/>
      <point x="781" y="93" type="curve" smooth="yes"/>
      <point x="781" y="200"/>
      <point x="778" y="308"/>
      <point x="778" y="415" type="curve" smooth="yes"/>
      <point x="778" y="436"/>
      <point x="824" y="490"/>
      <point x="824" y="525" type="curve" smooth="yes"/>
      <point x="824" y="565"/>
      <point x="780" y="602"/>
      <point x="777" y="637" type="curve" smooth="yes"/>
      <point x="775" y="665"/>
      <point x="777" y="696"/>
      <point x="777" y="725" type="curve" smooth="yes"/>
      <point x="777" y="802"/>
      <point x="778" y="880"/>
    </contour>
  </outline>
</glyph>
<glyph name="equal" format="2">
  <advance width="1079"/>
  <unicode hex="003D"/>
  <outline>
    <contour>
      <point x="119" y="855" type="curve" smooth="yes"/>
      <point x="119" y="658" type="line" smooth="yes"/>
      <point x="119" y="631"/>
      <point x="132" y="617"/>
      <point x="159" y="617" type="curve" smooth="yes"/>
      <point x="918" y="617" type="line" smooth="yes"/>
      <point x="946" y="617"/>
      <point x="958" y="631"/>
      <point x="958" y="658" type="curve" smooth="yes"/>
      <point x="959" y="724"/>
      <point x="960" y="789"/>
      <point x="960" y="855" type="curve" smooth="yes"/>
      <point x="960" y="880"/>
      <point x="944" y="896"/>
      <point x="919" y="896" type="curve" smooth="yes"/>
      <point x="159" y="896" type="line" smooth="yes"/>
      <point x="133" y="896"/>
      <point x="119" y="881"/>
    </contour>
    <contour>
      <point x="111" y="233" type="line" smooth="yes"/>
      <point x="110" y="207"/>
      <point x="125" y="192"/>
      <point x="151" y="192" type="curve" smooth="yes"/>
      <point x="926" y="192" type="line" smooth="yes"/>
      <point x="953" y="192"/>
      <point x="966" y="207"/>
      <point x="966" y="233" type="curve" smooth="yes"/>
      <point x="966" y="298"/>
      <point x="963" y="364"/>
      <point x="961" y="429" type="curve" smooth="yes"/>
      <point x="960" y="457"/>
      <point x="948" y="469"/>
      <point x="920" y="469" type="curve" smooth="yes"/>
      <point x="157" y="469" type="line" smooth="yes"/>
      <point x="128" y="469"/>
      <point x="118" y="457"/>
      <point x="117" y="429" type="curve" smooth="yes"/>
    </contour>
  </outline>
</glyph>
<glyph name="greater" format="2">
  <advance width="911"/>
  <unicode hex="003E"/>
  <outline>
    <contour>
      <point x="87" y="46" type="curve" smooth="yes"/>
      <point x="87" y="29"/>
      <point x="88" y="-1"/>
      <point x="111" y="-1" type="curve" smooth="yes"/>
      <point x="126" y="-1"/>
      <point x="139" y="8"/>
      <point x="151" y="16" type="curve" smooth="yes"/>
      <point x="283" y="105"/>
      <point x="411" y="199"/>
      <point x="541" y="292" type="curve" smooth="yes"/>
      <point x="605" y="338"/>
      <point x="670" y="384"/>
      <point x="734" y="430" type="curve" smooth="yes"/>
      <point x="762" y="450"/>
      <point x="792" y="469"/>
      <point x="819" y="491" type="curve"/>
      <point x="829" y="500"/>
      <point x="841" y="510"/>
      <point x="841" y="525" type="curve" smooth="yes"/>
      <point x="841" y="540"/>
      <point x="829" y="550"/>
      <point x="819" y="558" type="curve" smooth="yes"/>
      <point x="724" y="634"/>
      <point x="620" y="701"/>
      <point x="521" y="772" type="curve" smooth="yes"/>
      <point x="401" y="858"/>
      <point x="283" y="949"/>
      <point x="160" y="1030" type="curve" smooth="yes"/>
      <point x="148" y="1038"/>
      <point x="136" y="1046"/>
      <point x="121" y="1046" type="curve" smooth="yes"/>
      <point x="98" y="1046"/>
      <point x="97" y="1018"/>
      <point x="97" y="1001" type="curve" smooth="yes"/>
      <point x="97" y="913"/>
      <point x="95" y="824"/>
      <point x="99" y="736" type="curve" smooth="yes"/>
      <point x="100" y="722"/>
      <point x="101" y="718"/>
      <point x="110" y="707" type="curve" smooth="yes"/>
      <point x="133" y="679"/>
      <point x="273" y="548"/>
      <point x="273" y="527" type="curve" smooth="yes"/>
      <point x="273" y="504"/>
      <point x="130" y="374"/>
      <point x="107" y="346" type="curve"/>
      <point x="98" y="336"/>
      <point x="96" y="330"/>
      <point x="95" y="317" type="curve"/>
      <point x="91" y="279"/>
      <point x="93" y="241"/>
      <point x="92" y="203" type="curve" smooth="yes"/>
      <point x="91" y="151"/>
      <point x="87" y="98"/>
    </contour>
  </outline>
</glyph>
<glyph name="question" format="2">
  <advance width="913"/>
  <unicode hex="003F"/>
  <outline>
    <contour>
      <point x="618" y="455" type="line"/>
      <point x="618" y="454"/>
      <point x="621" y="452"/>
      <point x="622" y="452" type="curve"/>
      <point x="622" y="452"/>
      <point x="622" y="453"/>
      <point x="622" y="453" type="curve"/>
      <point x="625" y="559"/>
      <point x="647" y="702"/>
      <point x="709" y="791" type="curve" smooth="yes"/>
      <point x="728" y="818"/>
      <point x="749" y="844"/>
      <point x="769" y="871" type="curve" smooth="yes"/>
      <point x="854" y="989"/>
      <point x="886" y="1071"/>
      <point x="889" y="1218" type="curve"/>
      <point x="889" y="1230" type="line" smooth="yes"/>
      <point x="889" y="1502"/>
      <point x="765" y="1625"/>
      <point x="494" y="1625" type="curve" smooth="yes"/>
      <point x="265" y="1625"/>
      <point x="92" y="1493"/>
      <point x="26" y="1275" type="curve"/>
      <point x="24" y="1269"/>
      <point x="23" y="1263"/>
      <point x="23" y="1256" type="curve" smooth="yes"/>
      <point x="23" y="1232"/>
      <point x="38" y="1217"/>
      <point x="58" y="1207" type="curve" smooth="yes"/>
      <point x="98" y="1186"/>
      <point x="139" y="1169"/>
      <point x="180" y="1149" type="curve" smooth="yes"/>
      <point x="221" y="1129"/>
      <point x="262" y="1107"/>
      <point x="303" y="1089" type="curve"/>
      <point x="313" y="1084"/>
      <point x="323" y="1081"/>
      <point x="335" y="1081" type="curve" smooth="yes"/>
      <point x="396" y="1081"/>
      <point x="362" y="1189"/>
      <point x="431" y="1225" type="curve" smooth="yes"/>
      <point x="435" y="1227"/>
      <point x="441" y="1229"/>
      <point x="444" y="1233" type="curve"/>
      <point x="440" y="1231"/>
      <point x="434" y="1226"/>
      <point x="434" y="1221" type="curve" smooth="yes"/>
      <point x="434" y="1212"/>
      <point x="439" y="1204"/>
      <point x="439" y="1195" type="curve" smooth="yes"/>
      <point x="439" y="1101"/>
      <point x="386" y="1056"/>
      <point x="337" y="985" type="curve" smooth="yes"/>
      <point x="231" y="832"/>
      <point x="203" y="681"/>
      <point x="203" y="499" type="curve" smooth="yes"/>
      <point x="203" y="470"/>
      <point x="218" y="455"/>
      <point x="247" y="455" type="curve" smooth="yes"/>
    </contour>
    <contour>
      <point x="407" y="-78" type="curve" smooth="yes"/>
      <point x="532" y="-78"/>
      <point x="632" y="-12"/>
      <point x="632" y="121" type="curve" smooth="yes"/>
      <point x="632" y="248"/>
      <point x="537" y="329"/>
      <point x="414" y="329" type="curve" smooth="yes"/>
      <point x="295" y="329"/>
      <point x="178" y="249"/>
      <point x="178" y="121" type="curve" smooth="yes"/>
      <point x="178" y="-13"/>
      <point x="283" y="-78"/>
    </contour>
  </outline>
</glyph>
<glyph name="at" format="2">
  <advance width="1540"/>
  <unicode hex="0040"/>
  <outline>
    <contour>
      <point x="735" y="-509" type="curve" smooth="yes"/>
      <point x="910" y="-509"/>
      <point x="1158" y="-439"/>
      <point x="1286" y="-316" type="curve" smooth="yes"/>
      <point x="1297" y="-305"/>
      <point x="1306" y="-293"/>
      <point x="1306" y="-277" type="curve" smooth="yes"/>
      <point x="1306" y="-263"/>
      <point x="1299" y="-250"/>
      <point x="1291" y="-239" type="curve" smooth="yes"/>
      <point x="1259" y="-193"/>
      <point x="1225" y="-145"/>
      <point x="1189" y="-102" type="curve" smooth="yes"/>
      <point x="1176" y="-86"/>
      <point x="1163" y="-73"/>
      <point x="1141" y="-73" type="curve" smooth="yes"/>
      <point x="1125" y="-73"/>
      <point x="1111" y="-81"/>
      <point x="1098" y="-89" type="curve" smooth="yes"/>
      <point x="1006" y="-146"/>
      <point x="910" y="-186"/>
      <point x="800" y="-186" type="curve" smooth="yes"/>
      <point x="639" y="-186"/>
      <point x="495" y="-113"/>
      <point x="402" y="18" type="curve"/>
      <point x="398" y="23"/>
      <point x="350" y="91"/>
      <point x="350" y="99" type="curve" smooth="yes"/>
      <point x="350" y="101"/>
      <point x="353" y="99"/>
      <point x="355" y="99" type="curve" smooth="yes"/>
      <point x="371" y="99"/>
      <point x="462" y="-31"/>
      <point x="628" y="-31" type="curve" smooth="yes"/>
      <point x="788" y="-31"/>
      <point x="914" y="129"/>
      <point x="930" y="129" type="curve" smooth="yes"/>
      <point x="937" y="129"/>
      <point x="942" y="123"/>
      <point x="947" y="118" type="curve"/>
      <point x="1026" y="31"/>
      <point x="1123" y="-15"/>
      <point x="1242" y="-15" type="curve" smooth="yes"/>
      <point x="1602" y="-15"/>
      <point x="1733" y="417"/>
      <point x="1733" y="710" type="curve" smooth="yes"/>
      <point x="1733" y="1201"/>
      <point x="1516" y="1552"/>
      <point x="987" y="1552" type="curve" smooth="yes"/>
      <point x="284" y="1552"/>
      <point x="-79" y="1051"/>
      <point x="-79" y="383" type="curve" smooth="yes"/>
      <point x="-79" y="-8"/>
      <point x="106" y="-362"/>
      <point x="500" y="-474" type="curve" smooth="yes"/>
      <point x="575" y="-495"/>
      <point x="657" y="-509"/>
    </contour>
    <contour>
      <point x="951" y="959" type="line"/>
      <point x="892" y="1037"/>
      <point x="863" y="1057"/>
      <point x="763" y="1057" type="curve" smooth="yes"/>
      <point x="524" y="1057"/>
      <point x="369" y="890"/>
      <point x="313" y="669" type="curve"/>
      <point x="369" y="1016"/>
      <point x="560" y="1229"/>
      <point x="925" y="1229" type="curve" smooth="yes"/>
      <point x="1098" y="1229"/>
      <point x="1244" y="1169"/>
      <point x="1310" y="998" type="curve"/>
      <point x="972" y="998" type="line"/>
    </contour>
    <contour>
      <point x="730" y="503" type="curve" smooth="yes"/>
      <point x="730" y="572"/>
      <point x="749" y="722"/>
      <point x="842" y="722" type="curve" smooth="yes"/>
      <point x="878" y="722"/>
      <point x="892" y="669"/>
      <point x="906" y="643" type="curve"/>
      <point x="866" y="351" type="line"/>
      <point x="837" y="341"/>
      <point x="828" y="305"/>
      <point x="810" y="305" type="curve" smooth="yes"/>
      <point x="740" y="305"/>
      <point x="730" y="453"/>
    </contour>
    <contour>
      <point x="1352" y="785" type="curve"/>
      <point x="1353" y="760"/>
      <point x="1353" y="734"/>
      <point x="1353" y="708" type="curve" smooth="yes"/>
      <point x="1353" y="594"/>
      <point x="1339" y="482"/>
      <point x="1319" y="370" type="curve"/>
      <point x="1315" y="382"/>
      <point x="1314" y="394"/>
      <point x="1314" y="406" type="curve" smooth="yes"/>
      <point x="1314" y="417"/>
      <point x="1314" y="428"/>
      <point x="1315" y="439" type="curve" smooth="yes"/>
      <point x="1325" y="554"/>
      <point x="1339" y="670"/>
    </contour>
  </outline>
</glyph>
<glyph name="A" format="2">
  <advance width="1493"/>
  <unicode hex="0041"/>
  <anchor x="746" y="0" name="bottom"/>
  <anchor x="1288" y="19" name="ogonek"/>
  <anchor x="746" y="1507" name="top"/>
  <outline>
    <contour>
      <point x="82" y="0" type="curve" smooth="yes"/>
      <point x="439" y="0" type="line" smooth="yes"/>
      <point x="493" y="0"/>
      <point x="481" y="73"/>
      <point x="514" y="96" type="curve"/>
      <point x="517" y="96"/>
      <point x="519" y="97"/>
      <point x="522" y="97" type="curve" smooth="yes"/>
      <point x="892" y="97" type="line" smooth="yes"/>
      <point x="895" y="97"/>
      <point x="897" y="96"/>
      <point x="900" y="96" type="curve"/>
      <point x="932" y="73"/>
      <point x="917" y="0"/>
      <point x="971" y="0" type="curve" smooth="yes"/>
      <point x="1411" y="0" type="line" smooth="yes"/>
      <point x="1429" y="0"/>
      <point x="1457" y="3"/>
      <point x="1457" y="28" type="curve" smooth="yes"/>
      <point x="1457" y="38"/>
      <point x="1450" y="52"/>
      <point x="1445" y="61" type="curve" smooth="yes"/>
      <point x="1321" y="292"/>
      <point x="1199" y="522"/>
      <point x="1083" y="757" type="curve" smooth="yes"/>
      <point x="1010" y="905"/>
      <point x="940" y="1054"/>
      <point x="868" y="1202" type="curve" smooth="yes"/>
      <point x="834" y="1273"/>
      <point x="800" y="1345"/>
      <point x="762" y="1413" type="curve"/>
      <point x="759" y="1419"/>
      <point x="753" y="1423"/>
      <point x="746" y="1423" type="curve" smooth="yes"/>
      <point x="739" y="1423"/>
      <point x="733" y="1419"/>
      <point x="729" y="1413" type="curve"/>
      <point x="693" y="1350"/>
      <point x="662" y="1282"/>
      <point x="630" y="1216" type="curve" smooth="yes"/>
      <point x="563" y="1078"/>
      <point x="498" y="938"/>
      <point x="430" y="800" type="curve" smooth="yes"/>
      <point x="308" y="551"/>
      <point x="182" y="304"/>
      <point x="48" y="61" type="curve"/>
      <point x="42" y="51"/>
      <point x="36" y="40"/>
      <point x="36" y="28" type="curve" smooth="yes"/>
      <point x="36" y="3"/>
      <point x="64" y="0"/>
    </contour>
    <contour>
      <point x="638" y="395" type="line"/>
      <point x="720" y="594" type="line"/>
      <point x="745" y="528"/>
      <point x="768" y="461"/>
      <point x="793" y="395" type="curve"/>
    </contour>
  </outline>
</glyph>
<glyph name="B" format="2">
  <advance width="1432"/>
  <unicode hex="0042"/>
  <anchor x="741" y="0" name="bottom"/>
  <anchor x="741" y="1374" name="top"/>
  <outline>
    <contour>
      <point x="108" y="1332" type="curve" smooth="yes"/>
      <point x="108" y="1262"/>
      <point x="115" y="1192"/>
      <point x="117" y="1122" type="curve" smooth="yes"/>
      <point x="122" y="990"/>
      <point x="124" y="858"/>
      <point x="124" y="726" type="curve" smooth="yes"/>
      <point x="124" y="572"/>
      <point x="123" y="418"/>
      <point x="116" y="264" type="curve" smooth="yes"/>
      <point x="113" y="190"/>
      <point x="104" y="116"/>
      <point x="104" y="42" type="curve" smooth="yes"/>
      <point x="104" y="14"/>
      <point x="115" y="0"/>
      <point x="144" y="0" type="curve" smooth="yes"/>
      <point x="745" y="0" type="line" smooth="yes"/>
      <point x="1032" y="0"/>
      <point x="1358" y="77"/>
      <point x="1358" y="427" type="curve" smooth="yes"/>
      <point x="1358" y="663"/>
      <point x="1161" y="721"/>
      <point x="1156" y="745" type="curve"/>
      <point x="1158" y="749"/>
      <point x="1160" y="754"/>
      <point x="1163" y="757" type="curve"/>
      <point x="1175" y="772"/>
      <point x="1191" y="785"/>
      <point x="1203" y="800" type="curve" smooth="yes"/>
      <point x="1256" y="867"/>
      <point x="1282" y="946"/>
      <point x="1282" y="1031" type="curve" smooth="yes"/>
      <point x="1282" y="1311"/>
      <point x="908" y="1374"/>
      <point x="692" y="1374" type="curve" smooth="yes"/>
      <point x="148" y="1374" type="line" smooth="yes"/>
      <point x="119" y="1374"/>
      <point x="108" y="1360"/>
    </contour>
    <contour>
      <point x="708" y="393" type="curve" smooth="yes"/>
      <point x="566" y="393" type="line"/>
      <point x="566" y="450"/>
      <point x="568" y="508"/>
      <point x="568" y="565" type="curve"/>
      <point x="737" y="565" type="line" smooth="yes"/>
      <point x="790" y="565"/>
      <point x="894" y="560"/>
      <point x="894" y="486" type="curve" smooth="yes"/>
      <point x="894" y="393"/>
      <point x="774" y="393"/>
    </contour>
    <contour>
      <point x="708" y="868" type="curve" smooth="yes"/>
      <point x="568" y="868" type="line"/>
      <point x="568" y="927"/>
      <point x="566" y="986"/>
      <point x="566" y="1045" type="curve"/>
      <point x="705" y="1045" type="line" smooth="yes"/>
      <point x="759" y="1045"/>
      <point x="818" y="1014"/>
      <point x="818" y="954" type="curve" smooth="yes"/>
      <point x="818" y="892"/>
      <point x="762" y="868"/>
    </contour>
  </outline>
</glyph>
<glyph name="C" format="2">
  <advance width="1335"/>
  <unicode hex="0043"/>
  <anchor x="736" y="0" name="bottom"/>
  <anchor x="704" y="1427" name="top"/>
  <outline>
    <contour>
      <point x="1088" y="484" type="curve" smooth="yes"/>
      <point x="1073" y="484"/>
      <point x="1066" y="478"/>
      <point x="1053" y="472" type="curve"/>
      <point x="991" y="440"/>
      <point x="920" y="428"/>
      <point x="850" y="428" type="curve" smooth="yes"/>
      <point x="668" y="428"/>
      <point x="539" y="503"/>
      <point x="539" y="701" type="curve" smooth="yes"/>
      <point x="539" y="868"/>
      <point x="684" y="948"/>
      <point x="835" y="948" type="curve" smooth="yes"/>
      <point x="929" y="948"/>
      <point x="1024" y="884"/>
      <point x="1047" y="884" type="curve" smooth="yes"/>
      <point x="1066" y="884"/>
      <point x="1073" y="899"/>
      <point x="1080" y="914" type="curve" smooth="yes"/>
      <point x="1095" y="946"/>
      <point x="1211" y="1232"/>
      <point x="1211" y="1244" type="curve" smooth="yes"/>
      <point x="1211" y="1258"/>
      <point x="1202" y="1268"/>
      <point x="1191" y="1275" type="curve" smooth="yes"/>
      <point x="1079" y="1349"/>
      <point x="873" y="1388"/>
      <point x="740" y="1388" type="curve" smooth="yes"/>
      <point x="315" y="1388"/>
      <point x="77" y="1119"/>
      <point x="77" y="702" type="curve" smooth="yes"/>
      <point x="77" y="254"/>
      <point x="359" y="-14"/>
      <point x="803" y="-14" type="curve" smooth="yes"/>
      <point x="941" y="-14"/>
      <point x="1139" y="31"/>
      <point x="1249" y="119" type="curve" smooth="yes"/>
      <point x="1255" y="124"/>
      <point x="1265" y="134"/>
      <point x="1265" y="143" type="curve" smooth="yes"/>
      <point x="1265" y="159"/>
      <point x="1142" y="418"/>
      <point x="1125" y="451" type="curve" smooth="yes"/>
      <point x="1117" y="466"/>
      <point x="1108" y="484"/>
    </contour>
  </outline>
</glyph>
<glyph name="D" format="2">
  <advance width="1507"/>
  <unicode hex="0044"/>
  <anchor x="791" y="0" name="bottom"/>
  <anchor x="334" y="687" name="center"/>
  <anchor x="609" y="1374" name="top"/>
  <outline>
    <contour>
      <point x="165" y="0" type="curve" smooth="yes"/>
      <point x="688" y="0" type="line" smooth="yes"/>
      <point x="1083" y="0"/>
      <point x="1440" y="217"/>
      <point x="1440" y="647" type="curve" smooth="yes"/>
      <point x="1440" y="1154"/>
      <point x="1084" y="1374"/>
      <point x="615" y="1374" type="curve" smooth="yes"/>
      <point x="167" y="1374" type="line" smooth="yes"/>
      <point x="123" y="1374"/>
      <point x="106" y="1353"/>
      <point x="106" y="1310" type="curve" smooth="yes"/>
      <point x="106" y="1240"/>
      <point x="109" y="1170"/>
      <point x="110" y="1099" type="curve" smooth="yes"/>
      <point x="112" y="972"/>
      <point x="114" y="844"/>
      <point x="114" y="717" type="curve" smooth="yes"/>
      <point x="114" y="572"/>
      <point x="112" y="426"/>
      <point x="109" y="281" type="curve" smooth="yes"/>
      <point x="108" y="209"/>
      <point x="104" y="135"/>
      <point x="104" y="63" type="curve" smooth="yes"/>
      <point x="104" y="20"/>
      <point x="121" y="0"/>
    </contour>
    <contour>
      <point x="565" y="441" type="line"/>
      <point x="566" y="607"/>
      <point x="565" y="775"/>
      <point x="565" y="941" type="curve"/>
      <point x="698" y="941" type="line" smooth="yes"/>
      <point x="873" y="941"/>
      <point x="971" y="861"/>
      <point x="971" y="681" type="curve" smooth="yes"/>
      <point x="971" y="465"/>
      <point x="792" y="441"/>
      <point x="619" y="441" type="curve" smooth="yes"/>
    </contour>
  </outline>
</glyph>
<glyph name="E" format="2">
  <advance width="1210"/>
  <unicode hex="0045"/>
  <anchor x="633" y="0" name="bottom"/>
  <anchor x="964" y="19" name="ogonek"/>
  <anchor x="633" y="1440" name="top"/>
  <anchor x="122" y="1374" name="topleft"/>
  <outline>
    <contour>
      <point x="107" y="1332" type="curve" smooth="yes"/>
      <point x="107" y="1266"/>
      <point x="111" y="1200"/>
      <point x="113" y="1134" type="curve" smooth="yes"/>
      <point x="117" y="996"/>
      <point x="121" y="857"/>
      <point x="121" y="719" type="curve" smooth="yes"/>
      <point x="121" y="566"/>
      <point x="118" y="414"/>
      <point x="113" y="261" type="curve" smooth="yes"/>
      <point x="110" y="188"/>
      <point x="104" y="115"/>
      <point x="104" y="42" type="curve" smooth="yes"/>
      <point x="104" y="14"/>
      <point x="115" y="0"/>
      <point x="144" y="0" type="curve" smooth="yes"/>
      <point x="1109" y="0" type="line" smooth="yes"/>
      <point x="1138" y="0"/>
      <point x="1149" y="14"/>
      <point x="1149" y="42" type="curve" smooth="yes"/>
      <point x="1149" y="161"/>
      <point x="1138" y="282"/>
      <point x="1135" y="401" type="curve" smooth="yes"/>
      <point x="1134" y="429"/>
      <point x="1122" y="441"/>
      <point x="1094" y="441" type="curve" smooth="yes"/>
      <point x="576" y="442" type="line" smooth="yes"/>
      <point x="563" y="442"/>
      <point x="562" y="471"/>
      <point x="562" y="479" type="curve" smooth="yes"/>
      <point x="562" y="497"/>
      <point x="556" y="529"/>
      <point x="580" y="529" type="curve" smooth="yes"/>
      <point x="995" y="529" type="line" smooth="yes"/>
      <point x="1021" y="529"/>
      <point x="1035" y="544"/>
      <point x="1035" y="570" type="curve" smooth="yes"/>
      <point x="1035" y="802" type="line" smooth="yes"/>
      <point x="1035" y="828"/>
      <point x="1021" y="843"/>
      <point x="995" y="843" type="curve" smooth="yes"/>
      <point x="576" y="843" type="line" smooth="yes"/>
      <point x="564" y="843"/>
      <point x="562" y="874"/>
      <point x="562" y="882" type="curve" smooth="yes"/>
      <point x="562" y="893"/>
      <point x="558" y="934"/>
      <point x="576" y="934" type="curve" smooth="yes"/>
      <point x="1070" y="934" type="line" smooth="yes"/>
      <point x="1098" y="934"/>
      <point x="1108" y="947"/>
      <point x="1111" y="974" type="curve" smooth="yes"/>
      <point x="1115" y="1019"/>
      <point x="1113" y="1066"/>
      <point x="1114" y="1112" type="curve" smooth="yes"/>
      <point x="1116" y="1187"/>
      <point x="1121" y="1262"/>
      <point x="1121" y="1337" type="curve" smooth="yes"/>
      <point x="1121" y="1363"/>
      <point x="1107" y="1374"/>
      <point x="1082" y="1374" type="curve" smooth="yes"/>
      <point x="147" y="1374" type="line" smooth="yes"/>
      <point x="118" y="1374"/>
      <point x="107" y="1360"/>
    </contour>
  </outline>
</glyph>
<glyph name="F" format="2">
  <advance width="1208"/>
  <unicode hex="0046"/>
  <anchor x="615" y="0" name="bottom"/>
  <anchor x="615" y="1374" name="top"/>
  <outline>
    <contour>
      <point x="105" y="1311" type="curve" smooth="yes"/>
      <point x="105" y="1115"/>
      <point x="111" y="918"/>
      <point x="111" y="722" type="curve" smooth="yes"/>
      <point x="111" y="573"/>
      <point x="110" y="424"/>
      <point x="108" y="275" type="curve" smooth="yes"/>
      <point x="107" y="205"/>
      <point x="104" y="134"/>
      <point x="104" y="63" type="curve" smooth="yes"/>
      <point x="104" y="21"/>
      <point x="122" y="0"/>
      <point x="165" y="0" type="curve" smooth="yes"/>
      <point x="501" y="0" type="line" smooth="yes"/>
      <point x="542" y="0"/>
      <point x="562" y="20"/>
      <point x="562" y="61" type="curve" smooth="yes"/>
      <point x="562" y="173"/>
      <point x="563" y="284"/>
      <point x="563" y="396" type="curve" smooth="yes"/>
      <point x="563" y="410"/>
      <point x="569" y="417"/>
      <point x="583" y="417" type="curve" smooth="yes"/>
      <point x="1002" y="417" type="line" smooth="yes"/>
      <point x="1044" y="417"/>
      <point x="1064" y="437"/>
      <point x="1064" y="479" type="curve" smooth="yes"/>
      <point x="1064" y="572"/>
      <point x="1066" y="666"/>
      <point x="1063" y="759" type="curve" smooth="yes"/>
      <point x="1062" y="801"/>
      <point x="1044" y="821"/>
      <point x="1001" y="821" type="curve" smooth="yes"/>
      <point x="583" y="821" type="line" smooth="yes"/>
      <point x="570" y="821"/>
      <point x="563" y="828"/>
      <point x="563" y="841" type="curve" smooth="yes"/>
      <point x="563" y="913" type="line" smooth="yes"/>
      <point x="563" y="927"/>
      <point x="569" y="934"/>
      <point x="583" y="934" type="curve" smooth="yes"/>
      <point x="1090" y="934" type="line" smooth="yes"/>
      <point x="1132" y="934"/>
      <point x="1150" y="954"/>
      <point x="1152" y="995" type="curve" smooth="yes"/>
      <point x="1154" y="1038"/>
      <point x="1153" y="1081"/>
      <point x="1154" y="1124" type="curve" smooth="yes"/>
      <point x="1155" y="1186"/>
      <point x="1157" y="1249"/>
      <point x="1157" y="1311" type="curve" smooth="yes"/>
      <point x="1157" y="1353"/>
      <point x="1138" y="1374"/>
      <point x="1095" y="1374" type="curve" smooth="yes"/>
      <point x="167" y="1374" type="line" smooth="yes"/>
      <point x="124" y="1374"/>
      <point x="105" y="1353"/>
    </contour>
  </outline>
</glyph>
<glyph name="G" format="2">
  <advance width="1542"/>
  <unicode hex="0047"/>
  <anchor x="748" y="0" name="bottom"/>
  <anchor x="834" y="1374" name="top"/>
  <outline>
    <contour>
      <point x="1461" y="203" type="curve" smooth="yes"/>
      <point x="1461" y="355"/>
      <point x="1455" y="508"/>
      <point x="1455" y="661" type="curve" smooth="yes"/>
      <point x="1455" y="752" type="line" smooth="yes"/>
      <point x="1455" y="794"/>
      <point x="1435" y="814"/>
      <point x="1393" y="814" type="curve" smooth="yes"/>
      <point x="857" y="814" type="line" smooth="yes"/>
      <point x="816" y="814"/>
      <point x="796" y="794"/>
      <point x="796" y="753" type="curve" smooth="yes"/>
      <point x="796" y="574" type="line" smooth="yes"/>
      <point x="796" y="533"/>
      <point x="816" y="513"/>
      <point x="857" y="513" type="curve" smooth="yes"/>
      <point x="1054" y="513" type="line" smooth="yes"/>
      <point x="1066" y="513"/>
      <point x="1075" y="506"/>
      <point x="1075" y="493" type="curve" smooth="yes"/>
      <point x="1075" y="481"/>
      <point x="1072" y="474"/>
      <point x="1060" y="470" type="curve" smooth="yes"/>
      <point x="1004" y="451"/>
      <point x="911" y="442"/>
      <point x="852" y="442" type="curve" smooth="yes"/>
      <point x="685" y="442"/>
      <point x="536" y="472"/>
      <point x="536" y="672" type="curve" smooth="yes"/>
      <point x="536" y="909"/>
      <point x="730" y="930"/>
      <point x="920" y="930" type="curve" smooth="yes"/>
      <point x="1018" y="930"/>
      <point x="1114" y="913"/>
      <point x="1209" y="890" type="curve" smooth="yes"/>
      <point x="1217" y="888"/>
      <point x="1225" y="886"/>
      <point x="1234" y="886" type="curve" smooth="yes"/>
      <point x="1266" y="886"/>
      <point x="1278" y="907"/>
      <point x="1287" y="934" type="curve" smooth="yes"/>
      <point x="1297" y="963"/>
      <point x="1377" y="1256"/>
      <point x="1377" y="1271" type="curve" smooth="yes"/>
      <point x="1377" y="1300"/>
      <point x="1359" y="1311"/>
      <point x="1334" y="1320" type="curve" smooth="yes"/>
      <point x="1205" y="1367"/>
      <point x="1014" y="1387"/>
      <point x="876" y="1387" type="curve" smooth="yes"/>
      <point x="362" y="1387"/>
      <point x="67" y="1152"/>
      <point x="67" y="621" type="curve" smooth="yes"/>
      <point x="67" y="161"/>
      <point x="478" y="-14"/>
      <point x="879" y="-14" type="curve" smooth="yes"/>
      <point x="1029" y="-14"/>
      <point x="1333" y="53"/>
      <point x="1442" y="158" type="curve" smooth="yes"/>
      <point x="1457" y="172"/>
      <point x="1461" y="183"/>
    </contour>
  </outline>
</glyph>
<glyph name="H" format="2">
  <advance width="1583"/>
  <unicode hex="0048"/>
  <anchor x="793" y="0" name="bottom"/>
  <anchor x="793" y="687" name="center"/>
  <anchor x="793" y="1374" name="top"/>
  <anchor x="99" y="1374" name="topleft"/>
  <outline>
    <contour>
      <point x="1416" y="1374" type="curve" smooth="yes"/>
      <point x="1080" y="1374" type="line" smooth="yes"/>
      <point x="1037" y="1374"/>
      <point x="1021" y="1354"/>
      <point x="1019" y="1313" type="curve" smooth="yes"/>
      <point x="1016" y="1264"/>
      <point x="1017" y="1213"/>
      <point x="1017" y="1164" type="curve" smooth="yes"/>
      <point x="1016" y="1070"/>
      <point x="1016" y="976"/>
      <point x="1016" y="882" type="curve" smooth="yes"/>
      <point x="1016" y="869"/>
      <point x="1008" y="862"/>
      <point x="995" y="862" type="curve" smooth="yes"/>
      <point x="586" y="862" type="line" smooth="yes"/>
      <point x="573" y="862"/>
      <point x="566" y="869"/>
      <point x="566" y="882" type="curve" smooth="yes"/>
      <point x="566" y="976"/>
      <point x="566" y="1070"/>
      <point x="565" y="1164" type="curve" smooth="yes"/>
      <point x="565" y="1213"/>
      <point x="566" y="1264"/>
      <point x="563" y="1313" type="curve" smooth="yes"/>
      <point x="561" y="1354"/>
      <point x="545" y="1374"/>
      <point x="502" y="1374" type="curve" smooth="yes"/>
      <point x="167" y="1374" type="line" smooth="yes"/>
      <point x="123" y="1374"/>
      <point x="106" y="1353"/>
      <point x="106" y="1310" type="curve" smooth="yes"/>
      <point x="106" y="1246"/>
      <point x="109" y="1183"/>
      <point x="110" y="1119" type="curve" smooth="yes"/>
      <point x="113" y="985"/>
      <point x="114" y="851"/>
      <point x="114" y="717" type="curve" smooth="yes"/>
      <point x="114" y="569"/>
      <point x="113" y="422"/>
      <point x="110" y="274" type="curve" smooth="yes"/>
      <point x="109" y="204"/>
      <point x="104" y="134"/>
      <point x="104" y="64" type="curve" smooth="yes"/>
      <point x="104" y="21"/>
      <point x="122" y="0"/>
      <point x="166" y="0" type="curve" smooth="yes"/>
      <point x="501" y="0" type="line" smooth="yes"/>
      <point x="544" y="0"/>
      <point x="561" y="20"/>
      <point x="563" y="61" type="curve" smooth="yes"/>
      <point x="566" y="110"/>
      <point x="564" y="161"/>
      <point x="564" y="211" type="curve" smooth="yes"/>
      <point x="565" y="305"/>
      <point x="566" y="400"/>
      <point x="566" y="494" type="curve" smooth="yes"/>
      <point x="566" y="507"/>
      <point x="573" y="514"/>
      <point x="586" y="514" type="curve" smooth="yes"/>
      <point x="996" y="514" type="line" smooth="yes"/>
      <point x="1009" y="514"/>
      <point x="1016" y="507"/>
      <point x="1016" y="494" type="curve" smooth="yes"/>
      <point x="1016" y="400"/>
      <point x="1017" y="305"/>
      <point x="1018" y="211" type="curve" smooth="yes"/>
      <point x="1018" y="161"/>
      <point x="1016" y="110"/>
      <point x="1019" y="61" type="curve" smooth="yes"/>
      <point x="1021" y="20"/>
      <point x="1038" y="0"/>
      <point x="1081" y="0" type="curve" smooth="yes"/>
      <point x="1417" y="0" type="line" smooth="yes"/>
      <point x="1461" y="0"/>
      <point x="1479" y="21"/>
      <point x="1479" y="64" type="curve" smooth="yes"/>
      <point x="1479" y="134"/>
      <point x="1474" y="204"/>
      <point x="1473" y="274" type="curve" smooth="yes"/>
      <point x="1470" y="422"/>
      <point x="1469" y="569"/>
      <point x="1469" y="717" type="curve" smooth="yes"/>
      <point x="1469" y="851"/>
      <point x="1469" y="985"/>
      <point x="1472" y="1119" type="curve" smooth="yes"/>
      <point x="1473" y="1183"/>
      <point x="1477" y="1246"/>
      <point x="1477" y="1310" type="curve" smooth="yes"/>
      <point x="1477" y="1353"/>
      <point x="1460" y="1374"/>
    </contour>
  </outline>
</glyph>
<glyph name="I" format="2">
  <advance width="733"/>
  <unicode hex="0049"/>
  <anchor x="369" y="0" name="bottom"/>
  <anchor x="513" y="19" name="ogonek"/>
  <anchor x="369" y="1440" name="top"/>
  <anchor x="-13" y="1374" name="topleft"/>
  <outline>
    <contour>
      <point x="139" y="1333" type="curve" smooth="yes"/>
      <point x="139" y="1139"/>
      <point x="145" y="945"/>
      <point x="145" y="751" type="curve" smooth="yes"/>
      <point x="145" y="514"/>
      <point x="138" y="278"/>
      <point x="138" y="41" type="curve" smooth="yes"/>
      <point x="138" y="14"/>
      <point x="151" y="0"/>
      <point x="178" y="0" type="curve" smooth="yes"/>
      <point x="556" y="0" type="line" smooth="yes"/>
      <point x="583" y="0"/>
      <point x="597" y="14"/>
      <point x="597" y="41" type="curve" smooth="yes"/>
      <point x="597" y="278"/>
      <point x="589" y="514"/>
      <point x="589" y="751" type="curve" smooth="yes"/>
      <point x="589" y="945"/>
      <point x="595" y="1139"/>
      <point x="595" y="1333" type="curve" smooth="yes"/>
      <point x="595" y="1361"/>
      <point x="582" y="1374"/>
      <point x="554" y="1374" type="curve" smooth="yes"/>
      <point x="180" y="1374" type="line" smooth="yes"/>
      <point x="153" y="1374"/>
      <point x="139" y="1360"/>
    </contour>
  </outline>
</glyph>
<glyph name="J" format="2">
  <advance width="831"/>
  <unicode hex="004A"/>
  <anchor x="299" y="0" name="bottom"/>
  <anchor x="530" y="1440" name="top"/>
  <outline>
    <contour>
      <point x="723" y="744" type="curve" smooth="yes"/>
      <point x="723" y="934"/>
      <point x="727" y="1123"/>
      <point x="727" y="1312" type="curve" smooth="yes"/>
      <point x="727" y="1353"/>
      <point x="708" y="1374"/>
      <point x="666" y="1374" type="curve" smooth="yes"/>
      <point x="327" y="1374" type="line" smooth="yes"/>
      <point x="285" y="1374"/>
      <point x="265" y="1354"/>
      <point x="265" y="1312" type="curve" smooth="yes"/>
      <point x="265" y="1130"/>
      <point x="267" y="949"/>
      <point x="267" y="767" type="curve" smooth="yes"/>
      <point x="267" y="639"/>
      <point x="266" y="510"/>
      <point x="266" y="382" type="curve" smooth="yes"/>
      <point x="266" y="277"/>
      <point x="240" y="200"/>
      <point x="132" y="170" type="curve" smooth="yes"/>
      <point x="109" y="164"/>
      <point x="88" y="162"/>
      <point x="65" y="158" type="curve" smooth="yes"/>
      <point x="24" y="150"/>
      <point x="11" y="138"/>
      <point x="7" y="96" type="curve" smooth="yes"/>
      <point x="3" y="54"/>
      <point x="5" y="9"/>
      <point x="5" y="-34" type="curve"/>
      <point x="3" y="-98"/>
      <point x="0" y="-163"/>
      <point x="0" y="-228" type="curve" smooth="yes"/>
      <point x="0" y="-266"/>
      <point x="13" y="-289"/>
      <point x="54" y="-289" type="curve" smooth="yes"/>
      <point x="62" y="-289" type="line"/>
      <point x="462" y="-254"/>
      <point x="722" y="-43"/>
      <point x="725" y="376" type="curve" smooth="yes"/>
      <point x="726" y="499"/>
      <point x="723" y="622"/>
    </contour>
  </outline>
</glyph>
<glyph name="K" format="2">
  <advance width="1466"/>
  <unicode hex="004B"/>
  <anchor x="612" y="0" name="bottom"/>
  <anchor x="779" y="1374" name="top"/>
  <outline>
    <contour>
      <point x="530" y="1374" type="curve" smooth="yes"/>
      <point x="148" y="1374" type="line" smooth="yes"/>
      <point x="119" y="1374"/>
      <point x="108" y="1360"/>
      <point x="108" y="1332" type="curve" smooth="yes"/>
      <point x="108" y="1265"/>
      <point x="115" y="1198"/>
      <point x="118" y="1131" type="curve" smooth="yes"/>
      <point x="124" y="992"/>
      <point x="125" y="851"/>
      <point x="125" y="712" type="curve" smooth="yes"/>
      <point x="125" y="561"/>
      <point x="123" y="410"/>
      <point x="116" y="259" type="curve" smooth="yes"/>
      <point x="113" y="187"/>
      <point x="104" y="114"/>
      <point x="104" y="42" type="curve" smooth="yes"/>
      <point x="104" y="14"/>
      <point x="115" y="0"/>
      <point x="144" y="0" type="curve" smooth="yes"/>
      <point x="528" y="0" type="line" smooth="yes"/>
      <point x="558" y="0"/>
      <point x="567" y="13"/>
      <point x="569" y="41" type="curve" smooth="yes"/>
      <point x="575" y="152"/>
      <point x="572" y="264"/>
      <point x="572" y="375" type="curve" smooth="yes"/>
      <point x="572" y="387"/>
      <point x="569" y="431"/>
      <point x="579" y="440" type="curve"/>
      <point x="581" y="440" type="line" smooth="yes"/>
      <point x="589" y="440"/>
      <point x="592" y="433"/>
      <point x="596" y="428" type="curve"/>
      <point x="670" y="327"/>
      <point x="744" y="226"/>
      <point x="819" y="126" type="curve" smooth="yes"/>
      <point x="845" y="91"/>
      <point x="871" y="53"/>
      <point x="900" y="21" type="curve" smooth="yes"/>
      <point x="910" y="10"/>
      <point x="916" y="5"/>
      <point x="932" y="5" type="curve" smooth="yes"/>
      <point x="1360" y="5" type="line" smooth="yes"/>
      <point x="1378" y="5"/>
      <point x="1411" y="6"/>
      <point x="1411" y="31" type="curve" smooth="yes"/>
      <point x="1411" y="46"/>
      <point x="1399" y="60"/>
      <point x="1391" y="71" type="curve" smooth="yes"/>
      <point x="1239" y="277"/>
      <point x="1084" y="482"/>
      <point x="944" y="696" type="curve"/>
      <point x="943" y="706" type="line"/>
      <point x="947" y="710" type="line"/>
      <point x="1159" y="882"/>
      <point x="1292" y="1056"/>
      <point x="1366" y="1322" type="curve"/>
      <point x="1367" y="1327"/>
      <point x="1369" y="1337"/>
      <point x="1369" y="1342" type="curve" smooth="yes"/>
      <point x="1369" y="1367"/>
      <point x="1351" y="1374"/>
      <point x="1329" y="1374" type="curve" smooth="yes"/>
      <point x="962" y="1374" type="line" smooth="yes"/>
      <point x="936" y="1374"/>
      <point x="928" y="1362"/>
      <point x="921" y="1339" type="curve" smooth="yes"/>
      <point x="910" y="1303"/>
      <point x="902" y="1267"/>
      <point x="889" y="1232" type="curve" smooth="yes"/>
      <point x="838" y="1098"/>
      <point x="724" y="972"/>
      <point x="592" y="915" type="curve"/>
      <point x="588" y="913"/>
      <point x="585" y="913"/>
      <point x="581" y="913" type="curve" smooth="yes"/>
      <point x="576" y="913"/>
      <point x="575" y="924"/>
      <point x="575" y="927" type="curve" smooth="yes"/>
      <point x="575" y="1062"/>
      <point x="571" y="1198"/>
      <point x="571" y="1333" type="curve" smooth="yes"/>
      <point x="571" y="1361"/>
      <point x="557" y="1374"/>
    </contour>
  </outline>
</glyph>
<glyph name="L" format="2">
  <advance width="1180"/>
  <unicode hex="004C"/>
  <anchor x="598" y="0" name="bottom"/>
  <anchor x="598" y="687" name="center"/>
  <anchor x="325" y="1440" name="top"/>
  <anchor x="1088" y="1374" name="topright"/>
  <outline>
    <contour>
      <point x="104" y="1311" type="curve" smooth="yes"/>
      <point x="104" y="1109"/>
      <point x="111" y="906"/>
      <point x="111" y="703" type="curve" smooth="yes"/>
      <point x="111" y="559"/>
      <point x="109" y="414"/>
      <point x="107" y="270" type="curve" smooth="yes"/>
      <point x="106" y="201"/>
      <point x="103" y="132"/>
      <point x="103" y="63" type="curve" smooth="yes"/>
      <point x="103" y="21"/>
      <point x="123" y="0"/>
      <point x="165" y="0" type="curve" smooth="yes"/>
      <point x="1058" y="0" type="line" smooth="yes"/>
      <point x="1101" y="0"/>
      <point x="1119" y="21"/>
      <point x="1119" y="63" type="curve" smooth="yes"/>
      <point x="1119" y="127"/>
      <point x="1117" y="192"/>
      <point x="1116" y="257" type="curve" smooth="yes"/>
      <point x="1115" y="297"/>
      <point x="1117" y="339"/>
      <point x="1114" y="380" type="curve" smooth="yes"/>
      <point x="1111" y="421"/>
      <point x="1095" y="441"/>
      <point x="1052" y="441" type="curve" smooth="yes"/>
      <point x="583" y="441" type="line" smooth="yes"/>
      <point x="569" y="441"/>
      <point x="562" y="448"/>
      <point x="562" y="462" type="curve" smooth="yes"/>
      <point x="562" y="746" type="line"/>
      <point x="562" y="1313" type="line" smooth="yes"/>
      <point x="562" y="1354"/>
      <point x="542" y="1374"/>
      <point x="501" y="1374" type="curve" smooth="yes"/>
      <point x="166" y="1374" type="line" smooth="yes"/>
      <point x="124" y="1374"/>
      <point x="104" y="1353"/>
    </contour>
  </outline>
</glyph>
<glyph name="M" format="2">
  <advance width="1737"/>
  <unicode hex="004D"/>
  <anchor x="870" y="0" name="bottom"/>
  <anchor x="870" y="1374" name="top"/>
  <outline>
    <contour>
      <point x="145" y="0" type="curve" smooth="yes"/>
      <point x="506" y="0" type="line" smooth="yes"/>
      <point x="532" y="0"/>
      <point x="547" y="13"/>
      <point x="548" y="40" type="curve" smooth="yes"/>
      <point x="552" y="197" type="line" smooth="yes"/>
      <point x="552" y="200"/>
      <point x="553" y="212"/>
      <point x="557" y="212" type="curve" smooth="yes"/>
      <point x="571" y="212"/>
      <point x="802" y="-24"/>
      <point x="834" y="-53" type="curve" smooth="yes"/>
      <point x="843" y="-61"/>
      <point x="851" y="-68"/>
      <point x="863" y="-68" type="curve" smooth="yes"/>
      <point x="875" y="-68"/>
      <point x="884" y="-60"/>
      <point x="892" y="-52" type="curve" smooth="yes"/>
      <point x="923" y="-22"/>
      <point x="1149" y="230"/>
      <point x="1161" y="230" type="curve"/>
      <point x="1165" y="228" type="line"/>
      <point x="1170" y="217"/>
      <point x="1170" y="63"/>
      <point x="1171" y="40" type="curve" smooth="yes"/>
      <point x="1172" y="13"/>
      <point x="1186" y="0"/>
      <point x="1213" y="0" type="curve" smooth="yes"/>
      <point x="1592" y="0" type="line" smooth="yes"/>
      <point x="1618" y="0"/>
      <point x="1631" y="11"/>
      <point x="1631" y="37" type="curve" smooth="yes"/>
      <point x="1631" y="117"/>
      <point x="1621" y="198"/>
      <point x="1617" y="278" type="curve" smooth="yes"/>
      <point x="1609" y="441"/>
      <point x="1606" y="605"/>
      <point x="1606" y="768" type="curve" smooth="yes"/>
      <point x="1606" y="950"/>
      <point x="1620" y="1131"/>
      <point x="1624" y="1313" type="curve"/>
      <point x="1624" y="1325" type="line" smooth="yes"/>
      <point x="1624" y="1341"/>
      <point x="1626" y="1375"/>
      <point x="1604" y="1375" type="curve" smooth="yes"/>
      <point x="1602" y="1375"/>
      <point x="1600" y="1374"/>
      <point x="1598" y="1374" type="curve"/>
      <point x="1580" y="1369"/>
      <point x="1568" y="1357"/>
      <point x="1555" y="1344" type="curve" smooth="yes"/>
      <point x="1455" y="1249"/>
      <point x="854" y="613"/>
      <point x="853" y="613" type="curve" smooth="yes"/>
      <point x="842" y="613" type="line"/>
      <point x="840" y="614"/>
      <point x="837" y="616"/>
      <point x="836" y="617" type="curve" smooth="yes"/>
      <point x="763" y="690"/>
      <point x="695" y="774"/>
      <point x="626" y="852" type="curve" smooth="yes"/>
      <point x="481" y="1017"/>
      <point x="336" y="1184"/>
      <point x="180" y="1339" type="curve" smooth="yes"/>
      <point x="169" y="1350"/>
      <point x="147" y="1373"/>
      <point x="130" y="1373" type="curve" smooth="yes"/>
      <point x="111" y="1373"/>
      <point x="110" y="1344"/>
      <point x="110" y="1331" type="curve" smooth="yes"/>
      <point x="110" y="1310" type="line"/>
      <point x="114" y="1114"/>
      <point x="129" y="918"/>
      <point x="129" y="721" type="curve" smooth="yes"/>
      <point x="129" y="566"/>
      <point x="125" y="410"/>
      <point x="118" y="255" type="curve" smooth="yes"/>
      <point x="115" y="185"/>
      <point x="105" y="113"/>
      <point x="105" y="43" type="curve" smooth="yes"/>
      <point x="105" y="14"/>
      <point x="115" y="0"/>
    </contour>
  </outline>
</glyph>
<glyph name="N" format="2">
  <advance width="1577"/>
  <unicode hex="004E"/>
  <anchor x="789" y="0" name="bottom"/>
  <anchor x="725" y="1374" name="top"/>
  <outline>
    <contour>
      <point x="1470" y="-42" type="curve" smooth="yes"/>
      <point x="1474" y="-42"/>
      <point x="1476" y="-40"/>
      <point x="1476" y="-36" type="curve" smooth="yes"/>
      <point x="1476" y="45"/>
      <point x="1471" y="126"/>
      <point x="1469" y="207" type="curve" smooth="yes"/>
      <point x="1465" y="378"/>
      <point x="1462" y="548"/>
      <point x="1462" y="719" type="curve" smooth="yes"/>
      <point x="1462" y="850"/>
      <point x="1464" y="982"/>
      <point x="1466" y="1114" type="curve" smooth="yes"/>
      <point x="1468" y="1179"/>
      <point x="1471" y="1245"/>
      <point x="1471" y="1311" type="curve" smooth="yes"/>
      <point x="1471" y="1353"/>
      <point x="1453" y="1374"/>
      <point x="1410" y="1374" type="curve" smooth="yes"/>
      <point x="1070" y="1374" type="line" smooth="yes"/>
      <point x="1028" y="1374"/>
      <point x="1008" y="1354"/>
      <point x="1008" y="1312" type="curve" smooth="yes"/>
      <point x="1011" y="919" type="line" smooth="yes"/>
      <point x="1011" y="910"/>
      <point x="1011" y="895"/>
      <point x="998" y="895" type="curve" smooth="yes"/>
      <point x="975" y="895"/>
      <point x="145" y="1417"/>
      <point x="111" y="1417" type="curve" smooth="yes"/>
      <point x="106" y="1417"/>
      <point x="102" y="1414"/>
      <point x="102" y="1409" type="curve" smooth="yes"/>
      <point x="102" y="1333"/>
      <point x="107" y="1257"/>
      <point x="108" y="1181" type="curve" smooth="yes"/>
      <point x="112" y="1021"/>
      <point x="114" y="861"/>
      <point x="114" y="701" type="curve" smooth="yes"/>
      <point x="114" y="557"/>
      <point x="112" y="413"/>
      <point x="109" y="270" type="curve" smooth="yes"/>
      <point x="108" y="201"/>
      <point x="104" y="132"/>
      <point x="104" y="64" type="curve" smooth="yes"/>
      <point x="104" y="21"/>
      <point x="122" y="0"/>
      <point x="166" y="0" type="curve" smooth="yes"/>
      <point x="511" y="0" type="line" smooth="yes"/>
      <point x="553" y="0"/>
      <point x="573" y="20"/>
      <point x="573" y="62" type="curve" smooth="yes"/>
      <point x="573" y="191"/>
      <point x="569" y="320"/>
      <point x="569" y="449" type="curve" smooth="yes"/>
      <point x="569" y="458"/>
      <point x="569" y="473"/>
      <point x="582" y="473" type="curve" smooth="yes"/>
      <point x="603" y="473"/>
      <point x="1442" y="-42"/>
    </contour>
  </outline>
</glyph>
<glyph name="O" format="2">
  <advance width="1589"/>
  <unicode hex="004F"/>
  <anchor x="796" y="0" name="bottom"/>
  <anchor x="796" y="687" name="center"/>
  <anchor x="1232" y="19" name="ogonek"/>
  <anchor x="796" y="1409" name="top"/>
  <anchor x="24" y="1374" name="topleft"/>
  <anchor x="912" y="1531" name="topright"/>
  <outline>
    <contour>
      <point x="80" y="685" type="curve" smooth="yes"/>
      <point x="80" y="288"/>
      <point x="400" y="-14"/>
      <point x="793" y="-14" type="curve" smooth="yes"/>
      <point x="1183" y="-14"/>
      <point x="1508" y="283"/>
      <point x="1508" y="679" type="curve" smooth="yes"/>
      <point x="1508" y="1071"/>
      <point x="1178" y="1390"/>
      <point x="789" y="1390" type="curve" smooth="yes"/>
      <point x="401" y="1390"/>
      <point x="80" y="1074"/>
    </contour>
    <contour>
      <point x="541" y="693" type="curve" smooth="yes"/>
      <point x="541" y="842"/>
      <point x="647" y="948"/>
      <point x="796" y="948" type="curve" smooth="yes"/>
      <point x="949" y="948"/>
      <point x="1047" y="834"/>
      <point x="1047" y="685" type="curve" smooth="yes"/>
      <point x="1047" y="542"/>
      <point x="959" y="428"/>
      <point x="809" y="428" type="curve" smooth="yes"/>
      <point x="655" y="428"/>
      <point x="541" y="538"/>
    </contour>
  </outline>
</glyph>
<glyph name="P" format="2">
  <advance width="1391"/>
  <unicode hex="0050"/>
  <anchor x="716" y="0" name="bottom"/>
  <anchor x="716" y="1374" name="top"/>
  <outline>
    <contour>
      <point x="108" y="1332" type="curve" smooth="yes"/>
      <point x="108" y="1261"/>
      <point x="114" y="1189"/>
      <point x="117" y="1118" type="curve" smooth="yes"/>
      <point x="122" y="983"/>
      <point x="124" y="849"/>
      <point x="124" y="714" type="curve" smooth="yes"/>
      <point x="124" y="562"/>
      <point x="120" y="411"/>
      <point x="114" y="260" type="curve" smooth="yes"/>
      <point x="111" y="188"/>
      <point x="104" y="114"/>
      <point x="104" y="42" type="curve" smooth="yes"/>
      <point x="104" y="14"/>
      <point x="115" y="0"/>
      <point x="144" y="0" type="curve" smooth="yes"/>
      <point x="521" y="0" type="line" smooth="yes"/>
      <point x="553" y="0"/>
      <point x="558" y="13"/>
      <point x="562" y="41" type="curve" smooth="yes"/>
      <point x="569" y="91"/>
      <point x="564" y="149"/>
      <point x="564" y="199" type="curve" smooth="yes"/>
      <point x="564" y="225"/>
      <point x="566" y="251"/>
      <point x="566" y="277" type="curve" smooth="yes"/>
      <point x="566" y="283"/>
      <point x="570" y="290"/>
      <point x="577" y="290" type="curve" smooth="yes"/>
      <point x="775" y="290" type="line" smooth="yes"/>
      <point x="1115" y="290"/>
      <point x="1331" y="490"/>
      <point x="1331" y="834" type="curve" smooth="yes"/>
      <point x="1331" y="1222"/>
      <point x="1020" y="1374"/>
      <point x="673" y="1374" type="curve" smooth="yes"/>
      <point x="148" y="1374" type="line" smooth="yes"/>
      <point x="119" y="1374"/>
      <point x="108" y="1360"/>
    </contour>
    <contour>
      <point x="721" y="635" type="curve" smooth="yes"/>
      <point x="566" y="635" type="line"/>
      <point x="568" y="757"/>
      <point x="566" y="880"/>
      <point x="566" y="1002" type="curve"/>
      <point x="721" y="1002" type="line" smooth="yes"/>
      <point x="829" y="1002"/>
      <point x="887" y="949"/>
      <point x="887" y="840" type="curve" smooth="yes"/>
      <point x="887" y="723"/>
      <point x="854" y="635"/>
    </contour>
  </outline>
</glyph>
<glyph name="Q" format="2">
  <advance width="1589"/>
  <unicode hex="0051"/>
  <anchor x="816" y="0" name="bottom"/>
  <anchor x="816" y="1374" name="top"/>
  <outline>
    <contour>
      <point x="80" y="685" type="curve" smooth="yes"/>
      <point x="80" y="288"/>
      <point x="400" y="-14"/>
      <point x="793" y="-14" type="curve" smooth="yes"/>
      <point x="823" y="-14"/>
      <point x="853" y="-8"/>
      <point x="883" y="-8" type="curve" smooth="yes"/>
      <point x="925" y="-8"/>
      <point x="908" y="-136"/>
      <point x="972" y="-137" type="curve" smooth="yes"/>
      <point x="1326" y="-141" type="line" smooth="yes"/>
      <point x="1341" y="-141"/>
      <point x="1375" y="-140"/>
      <point x="1375" y="-118" type="curve" smooth="yes"/>
      <point x="1375" y="-83"/>
      <point x="1251" y="71"/>
      <point x="1226" y="115" type="curve"/>
      <point x="1225" y="122" type="line"/>
      <point x="1232" y="128" type="line"/>
      <point x="1408" y="266"/>
      <point x="1509" y="460"/>
      <point x="1509" y="685" type="curve" smooth="yes"/>
      <point x="1509" y="1074"/>
      <point x="1178" y="1388"/>
      <point x="793" y="1388" type="curve" smooth="yes"/>
      <point x="403" y="1388"/>
      <point x="80" y="1078"/>
    </contour>
    <contour>
      <point x="947" y="530" type="line"/>
      <point x="869" y="528"/>
      <point x="792" y="526"/>
      <point x="714" y="523" type="curve"/>
      <point x="725" y="494"/>
      <point x="735" y="464"/>
      <point x="745" y="434" type="curve"/>
      <point x="619" y="460"/>
      <point x="542" y="569"/>
      <point x="542" y="695" type="curve" smooth="yes"/>
      <point x="542" y="843"/>
      <point x="648" y="948"/>
      <point x="796" y="948" type="curve" smooth="yes"/>
      <point x="952" y="948"/>
      <point x="1047" y="831"/>
      <point x="1047" y="681" type="curve" smooth="yes"/>
      <point x="1047" y="611"/>
      <point x="1023" y="540"/>
      <point x="973" y="490" type="curve"/>
    </contour>
  </outline>
</glyph>
<glyph name="R" format="2">
  <advance width="1391"/>
  <unicode hex="0052"/>
  <anchor x="776" y="0" name="bottom"/>
  <anchor x="642" y="1440" name="top"/>
  <outline>
    <contour>
      <point x="636" y="1374" type="curve" smooth="yes"/>
      <point x="167" y="1374" type="line" smooth="yes"/>
      <point x="124" y="1374"/>
      <point x="105" y="1353"/>
      <point x="105" y="1311" type="curve" smooth="yes"/>
      <point x="105" y="1247"/>
      <point x="108" y="1183"/>
      <point x="109" y="1119" type="curve" smooth="yes"/>
      <point x="111" y="985"/>
      <point x="113" y="851"/>
      <point x="113" y="717" type="curve" smooth="yes"/>
      <point x="113" y="569"/>
      <point x="112" y="422"/>
      <point x="109" y="274" type="curve" smooth="yes"/>
      <point x="108" y="204"/>
      <point x="104" y="133"/>
      <point x="104" y="63" type="curve" smooth="yes"/>
      <point x="104" y="21"/>
      <point x="121" y="0"/>
      <point x="165" y="0" type="curve" smooth="yes"/>
      <point x="501" y="0" type="line" smooth="yes"/>
      <point x="544" y="0"/>
      <point x="560" y="20"/>
      <point x="562" y="61" type="curve" smooth="yes"/>
      <point x="567" y="150"/>
      <point x="564" y="242"/>
      <point x="564" y="331" type="curve" smooth="yes"/>
      <point x="564" y="339"/>
      <point x="569" y="343"/>
      <point x="577" y="343" type="curve" smooth="yes"/>
      <point x="584" y="343"/>
      <point x="590" y="340"/>
      <point x="594" y="334" type="curve"/>
      <point x="649" y="263"/>
      <point x="702" y="178"/>
      <point x="754" y="103" type="curve" smooth="yes"/>
      <point x="771" y="78"/>
      <point x="789" y="49"/>
      <point x="808" y="26" type="curve" smooth="yes"/>
      <point x="823" y="8"/>
      <point x="834" y="0"/>
      <point x="858" y="0" type="curve" smooth="yes"/>
      <point x="1220" y="0" type="line" smooth="yes"/>
      <point x="1243" y="0"/>
      <point x="1306" y="1"/>
      <point x="1306" y="36" type="curve" smooth="yes"/>
      <point x="1306" y="60"/>
      <point x="1280" y="88"/>
      <point x="1265" y="104" type="curve" smooth="yes"/>
      <point x="1184" y="193"/>
      <point x="1098" y="279"/>
      <point x="1018" y="369" type="curve"/>
      <point x="1014" y="374"/>
      <point x="1010" y="379"/>
      <point x="1010" y="385" type="curve" smooth="yes"/>
      <point x="1010" y="394"/>
      <point x="1018" y="398"/>
      <point x="1025" y="402" type="curve" smooth="yes"/>
      <point x="1057" y="420"/>
      <point x="1088" y="438"/>
      <point x="1116" y="462" type="curve" smooth="yes"/>
      <point x="1230" y="560"/>
      <point x="1282" y="713"/>
      <point x="1282" y="860" type="curve" smooth="yes"/>
      <point x="1282" y="1257"/>
      <point x="983" y="1374"/>
    </contour>
    <contour>
      <point x="683" y="690" type="curve" smooth="yes"/>
      <point x="565" y="690" type="line"/>
      <point x="564" y="1001" type="line"/>
      <point x="683" y="1001" type="line" smooth="yes"/>
      <point x="772" y="1001"/>
      <point x="812" y="954"/>
      <point x="812" y="868" type="curve" smooth="yes"/>
      <point x="812" y="776"/>
      <point x="795" y="690"/>
    </contour>
  </outline>
</glyph>
<glyph name="S" format="2">
  <advance width="977"/>
  <unicode hex="0053"/>
  <anchor x="458" y="-32" name="bottom"/>
  <anchor x="458" y="1347" name="top"/>
  <outline>
    <contour>
      <point x="867" y="1294" type="curve" smooth="yes"/>
      <point x="867" y="1322"/>
      <point x="852" y="1335"/>
      <point x="827" y="1344" type="curve" smooth="yes"/>
      <point x="750" y="1373"/>
      <point x="661" y="1381"/>
      <point x="579" y="1381" type="curve" smooth="yes"/>
      <point x="298" y="1381"/>
      <point x="86" y="1277"/>
      <point x="86" y="965" type="curve" smooth="yes"/>
      <point x="86" y="624"/>
      <point x="303" y="676"/>
      <point x="397" y="484" type="curve" smooth="yes"/>
      <point x="405" y="467"/>
      <point x="413" y="448"/>
      <point x="413" y="429" type="curve" smooth="yes"/>
      <point x="413" y="391"/>
      <point x="381" y="387"/>
      <point x="352" y="387" type="curve" smooth="yes"/>
      <point x="298" y="387"/>
      <point x="245" y="391"/>
      <point x="192" y="402" type="curve" smooth="yes"/>
      <point x="182" y="404"/>
      <point x="173" y="406"/>
      <point x="163" y="406" type="curve" smooth="yes"/>
      <point x="125" y="406"/>
      <point x="113" y="382"/>
      <point x="106" y="348" type="curve" smooth="yes"/>
      <point x="88" y="260"/>
      <point x="76" y="169"/>
      <point x="61" y="80" type="curve"/>
      <point x="60" y="75"/>
      <point x="59" y="70"/>
      <point x="59" y="65" type="curve" smooth="yes"/>
      <point x="59" y="36"/>
      <point x="75" y="22"/>
      <point x="101" y="14" type="curve" smooth="yes"/>
      <point x="181" y="-11"/>
      <point x="273" y="-16"/>
      <point x="356" y="-16" type="curve" smooth="yes"/>
      <point x="648" y="-16"/>
      <point x="914" y="56"/>
      <point x="914" y="402" type="curve" smooth="yes"/>
      <point x="914" y="418" type="line"/>
      <point x="906" y="616"/>
      <point x="852" y="656"/>
      <point x="708" y="765" type="curve" smooth="yes"/>
      <point x="667" y="796"/>
      <point x="632" y="830"/>
      <point x="607" y="876" type="curve" smooth="yes"/>
      <point x="598" y="893"/>
      <point x="588" y="913"/>
      <point x="588" y="933" type="curve" smooth="yes"/>
      <point x="588" y="971"/>
      <point x="627" y="973"/>
      <point x="655" y="973" type="curve" smooth="yes"/>
      <point x="690" y="973"/>
      <point x="724" y="962"/>
      <point x="758" y="962" type="curve" smooth="yes"/>
      <point x="794" y="962"/>
      <point x="805" y="984"/>
      <point x="812" y="1015" type="curve" smooth="yes"/>
      <point x="832" y="1101"/>
      <point x="848" y="1189"/>
      <point x="865" y="1276" type="curve"/>
      <point x="866" y="1282"/>
      <point x="867" y="1288"/>
    </contour>
  </outline>
</glyph>
<glyph name="T" format="2">
  <advance width="1112"/>
  <unicode hex="0054"/>
  <anchor x="555" y="0" name="bottom"/>
  <anchor x="555" y="687" name="center"/>
  <anchor x="555" y="1374" name="top"/>
  <outline>
    <contour>
      <point x="53" y="1332" type="curve" smooth="yes"/>
      <point x="53" y="1266"/>
      <point x="58" y="1200"/>
      <point x="60" y="1134" type="curve" smooth="yes"/>
      <point x="62" y="1081"/>
      <point x="61" y="1028"/>
      <point x="64" y="975" type="curve" smooth="yes"/>
      <point x="65" y="947"/>
      <point x="75" y="934"/>
      <point x="105" y="934" type="curve" smooth="yes"/>
      <point x="310" y="934" type="line" smooth="yes"/>
      <point x="317" y="934"/>
      <point x="322" y="927"/>
      <point x="322" y="921" type="curve" smooth="yes"/>
      <point x="322" y="701" type="line" smooth="yes"/>
      <point x="322" y="481"/>
      <point x="316" y="261"/>
      <point x="316" y="41" type="curve" smooth="yes"/>
      <point x="316" y="14"/>
      <point x="327" y="0"/>
      <point x="355" y="0" type="curve" smooth="yes"/>
      <point x="733" y="0" type="line" smooth="yes"/>
      <point x="759" y="0"/>
      <point x="774" y="14"/>
      <point x="774" y="41" type="curve" smooth="yes"/>
      <point x="774" y="282"/>
      <point x="766" y="524"/>
      <point x="766" y="765" type="curve" smooth="yes"/>
      <point x="766" y="921" type="line" smooth="yes"/>
      <point x="766" y="928"/>
      <point x="772" y="934"/>
      <point x="779" y="934" type="curve" smooth="yes"/>
      <point x="1007" y="934" type="line" smooth="yes"/>
      <point x="1037" y="934"/>
      <point x="1047" y="947"/>
      <point x="1048" y="975" type="curve" smooth="yes"/>
      <point x="1051" y="1028"/>
      <point x="1050" y="1081"/>
      <point x="1052" y="1134" type="curve" smooth="yes"/>
      <point x="1054" y="1200"/>
      <point x="1059" y="1266"/>
      <point x="1059" y="1332" type="curve" smooth="yes"/>
      <point x="1059" y="1360"/>
      <point x="1048" y="1374"/>
      <point x="1019" y="1374" type="curve" smooth="yes"/>
      <point x="93" y="1374" type="line" smooth="yes"/>
      <point x="64" y="1374"/>
      <point x="53" y="1360"/>
    </contour>
  </outline>
</glyph>
<glyph name="U" format="2">
  <advance width="1430"/>
  <unicode hex="0055"/>
  <anchor x="714" y="0" name="bottom"/>
  <anchor x="1079" y="19" name="ogonek"/>
  <anchor x="714" y="1440" name="top"/>
  <anchor x="1271" y="1297" name="topright"/>
  <outline>
    <contour>
      <point x="549" y="554" type="curve" smooth="yes"/>
      <point x="549" y="807"/>
      <point x="547" y="1060"/>
      <point x="547" y="1313" type="curve" smooth="yes"/>
      <point x="547" y="1354"/>
      <point x="527" y="1374"/>
      <point x="486" y="1374" type="curve" smooth="yes"/>
      <point x="150" y="1374" type="line" smooth="yes"/>
      <point x="107" y="1374"/>
      <point x="89" y="1353"/>
      <point x="89" y="1311" type="curve" smooth="yes"/>
      <point x="89" y="1242"/>
      <point x="92" y="1172"/>
      <point x="93" y="1102" type="curve" smooth="yes"/>
      <point x="95" y="971"/>
      <point x="97" y="839"/>
      <point x="97" y="708" type="curve" smooth="yes"/>
      <point x="97" y="654"/>
      <point x="96" y="601"/>
      <point x="96" y="548" type="curve" smooth="yes"/>
      <point x="96" y="159"/>
      <point x="354" y="-14"/>
      <point x="719" y="-14" type="curve" smooth="yes"/>
      <point x="1034" y="-14"/>
      <point x="1334" y="217"/>
      <point x="1334" y="548" type="curve" smooth="yes"/>
      <point x="1334" y="601"/>
      <point x="1333" y="654"/>
      <point x="1333" y="708" type="curve" smooth="yes"/>
      <point x="1333" y="839"/>
      <point x="1335" y="971"/>
      <point x="1337" y="1102" type="curve" smooth="yes"/>
      <point x="1338" y="1172"/>
      <point x="1341" y="1242"/>
      <point x="1341" y="1311" type="curve" smooth="yes"/>
      <point x="1341" y="1353"/>
      <point x="1323" y="1374"/>
      <point x="1280" y="1374" type="curve" smooth="yes"/>
      <point x="950" y="1374" type="line" smooth="yes"/>
      <point x="909" y="1374"/>
      <point x="889" y="1354"/>
      <point x="889" y="1313" type="curve" smooth="yes"/>
      <point x="889" y="1060"/>
      <point x="887" y="807"/>
      <point x="887" y="554" type="curve" smooth="yes"/>
      <point x="887" y="453"/>
      <point x="812" y="407"/>
      <point x="719" y="407" type="curve" smooth="yes"/>
      <point x="614" y="407"/>
      <point x="549" y="439"/>
    </contour>
  </outline>
</glyph>
<glyph name="V" format="2">
  <advance width="1405"/>
  <unicode hex="0056"/>
  <anchor x="703" y="0" name="bottom"/>
  <anchor x="703" y="1374" name="top"/>
  <outline>
    <contour>
      <point x="497" y="1374" type="curve" smooth="yes"/>
      <point x="135" y="1374" type="line" smooth="yes"/>
      <point x="106" y="1374"/>
      <point x="67" y="1369"/>
      <point x="67" y="1332" type="curve" smooth="yes"/>
      <point x="67" y="1315"/>
      <point x="73" y="1300"/>
      <point x="80" y="1285" type="curve" smooth="yes"/>
      <point x="184" y="1061"/>
      <point x="291" y="839"/>
      <point x="394" y="614" type="curve" smooth="yes"/>
      <point x="556" y="257" type="line" smooth="yes"/>
      <point x="586" y="191"/>
      <point x="615" y="124"/>
      <point x="647" y="59" type="curve" smooth="yes"/>
      <point x="656" y="40"/>
      <point x="676" y="-1"/>
      <point x="703" y="-1" type="curve" smooth="yes"/>
      <point x="730" y="-1"/>
      <point x="750" y="40"/>
      <point x="759" y="59" type="curve" smooth="yes"/>
      <point x="791" y="124"/>
      <point x="820" y="191"/>
      <point x="850" y="257" type="curve" smooth="yes"/>
      <point x="1012" y="614" type="line" smooth="yes"/>
      <point x="1115" y="839"/>
      <point x="1222" y="1061"/>
      <point x="1326" y="1285" type="curve"/>
      <point x="1333" y="1299"/>
      <point x="1339" y="1315"/>
      <point x="1339" y="1331" type="curve" smooth="yes"/>
      <point x="1339" y="1369"/>
      <point x="1299" y="1374"/>
      <point x="1270" y="1374" type="curve" smooth="yes"/>
      <point x="957" y="1374" type="line" smooth="yes"/>
      <point x="926" y="1374"/>
      <point x="913" y="1361"/>
      <point x="900" y="1335" type="curve" smooth="yes"/>
      <point x="881" y="1297"/>
      <point x="867" y="1250"/>
      <point x="852" y="1210" type="curve" smooth="yes"/>
      <point x="815" y="1114"/>
      <point x="781" y="1017"/>
      <point x="743" y="922" type="curve"/>
      <point x="741" y="916"/>
      <point x="734" y="896"/>
      <point x="724" y="896" type="curve" smooth="yes"/>
      <point x="714" y="896"/>
      <point x="707" y="916"/>
      <point x="705" y="922" type="curve"/>
      <point x="665" y="1022"/>
      <point x="632" y="1126"/>
      <point x="595" y="1227" type="curve" smooth="yes"/>
      <point x="582" y="1261"/>
      <point x="571" y="1301"/>
      <point x="555" y="1334" type="curve" smooth="yes"/>
      <point x="542" y="1361"/>
      <point x="529" y="1374"/>
    </contour>
  </outline>
</glyph>
<glyph name="W" format="2">
  <advance width="2019"/>
  <unicode hex="0057"/>
  <anchor x="1011" y="0" name="bottom"/>
  <anchor x="1011" y="1409" name="top"/>
  <outline>
    <contour>
      <point x="1062" y="665" type="curve"/>
      <point x="1067" y="662"/>
      <point x="1070" y="659"/>
      <point x="1073" y="654" type="curve"/>
      <point x="1159" y="501"/>
      <point x="1232" y="341"/>
      <point x="1314" y="186" type="curve" smooth="yes"/>
      <point x="1343" y="132"/>
      <point x="1370" y="76"/>
      <point x="1402" y="24" type="curve"/>
      <point x="1410" y="10"/>
      <point x="1423" y="-15"/>
      <point x="1442" y="-15" type="curve" smooth="yes"/>
      <point x="1463" y="-15"/>
      <point x="1472" y="14"/>
      <point x="1477" y="30" type="curve"/>
      <point x="1540" y="210"/>
      <point x="1596" y="393"/>
      <point x="1659" y="573" type="curve" smooth="yes"/>
      <point x="1747" y="825"/>
      <point x="1846" y="1073"/>
      <point x="1953" y="1317" type="curve" smooth="yes"/>
      <point x="1957" y="1326"/>
      <point x="1961" y="1335"/>
      <point x="1961" y="1345" type="curve" smooth="yes"/>
      <point x="1961" y="1370"/>
      <point x="1937" y="1374"/>
      <point x="1917" y="1374" type="curve" smooth="yes"/>
      <point x="1557" y="1374" type="line" smooth="yes"/>
      <point x="1537" y="1374"/>
      <point x="1528" y="1364"/>
      <point x="1519" y="1348" type="curve" smooth="yes"/>
      <point x="1483" y="1283"/>
      <point x="1374" y="942"/>
      <point x="1355" y="920" type="curve"/>
      <point x="1353" y="918"/>
      <point x="1351" y="917"/>
      <point x="1349" y="916" type="curve"/>
      <point x="1344" y="917" type="line"/>
      <point x="1332" y="930"/>
      <point x="1190" y="1295"/>
      <point x="1165" y="1349" type="curve" smooth="yes"/>
      <point x="1157" y="1366"/>
      <point x="1147" y="1374"/>
      <point x="1128" y="1374" type="curve" smooth="yes"/>
      <point x="770" y="1374" type="line" smooth="yes"/>
      <point x="754" y="1374"/>
      <point x="724" y="1371"/>
      <point x="724" y="1349" type="curve" smooth="yes"/>
      <point x="724" y="1308"/>
      <point x="821" y="1171"/>
      <point x="821" y="1142" type="curve" smooth="yes"/>
      <point x="821" y="1135"/>
      <point x="732" y="896"/>
      <point x="728" y="891" type="curve"/>
      <point x="727" y="889"/>
      <point x="724" y="888"/>
      <point x="722" y="887" type="curve"/>
      <point x="720" y="887" type="line"/>
      <point x="718" y="888"/>
      <point x="715" y="889"/>
      <point x="714" y="891" type="curve"/>
      <point x="712" y="894"/>
      <point x="711" y="898"/>
      <point x="710" y="901" type="curve"/>
      <point x="670" y="1007"/>
      <point x="626" y="1113"/>
      <point x="582" y="1218" type="curve" smooth="yes"/>
      <point x="564" y="1261"/>
      <point x="549" y="1309"/>
      <point x="526" y="1349" type="curve" smooth="yes"/>
      <point x="517" y="1365"/>
      <point x="508" y="1374"/>
      <point x="488" y="1374" type="curve" smooth="yes"/>
      <point x="102" y="1374" type="line" smooth="yes"/>
      <point x="82" y="1374"/>
      <point x="59" y="1370"/>
      <point x="59" y="1345" type="curve" smooth="yes"/>
      <point x="59" y="1334"/>
      <point x="62" y="1326"/>
      <point x="67" y="1316" type="curve" smooth="yes"/>
      <point x="241" y="946"/>
      <point x="392" y="567"/>
      <point x="536" y="184" type="curve" smooth="yes"/>
      <point x="557" y="128"/>
      <point x="577" y="71"/>
      <point x="599" y="16" type="curve" smooth="yes"/>
      <point x="605" y="2"/>
      <point x="614" y="-25"/>
      <point x="633" y="-25" type="curve" smooth="yes"/>
      <point x="634" y="-25"/>
      <point x="637" y="-24"/>
      <point x="638" y="-24" type="curve"/>
      <point x="656" y="-18"/>
      <point x="662" y="-6"/>
      <point x="672" y="9" type="curve" smooth="yes"/>
      <point x="708" y="63"/>
      <point x="740" y="119"/>
      <point x="773" y="175" type="curve" smooth="yes"/>
      <point x="837" y="283"/>
      <point x="898" y="392"/>
      <point x="961" y="500" type="curve" smooth="yes"/>
      <point x="981" y="536"/>
      <point x="1029" y="628"/>
      <point x="1051" y="655" type="curve"/>
      <point x="1054" y="658"/>
      <point x="1059" y="662"/>
    </contour>
  </outline>
</glyph>
<glyph name="X" format="2">
  <advance width="1350"/>
  <unicode hex="0058"/>
  <anchor x="677" y="0" name="bottom"/>
  <anchor x="677" y="1374" name="top"/>
  <outline>
    <contour>
      <point x="374" y="708" type="curve" smooth="yes"/>
      <point x="374" y="689"/>
      <point x="45" y="158"/>
      <point x="7" y="94" type="curve" smooth="yes"/>
      <point x="-3" y="78"/>
      <point x="-13" y="59"/>
      <point x="-13" y="40" type="curve" smooth="yes"/>
      <point x="-13" y="4"/>
      <point x="32" y="0"/>
      <point x="59" y="0" type="curve" smooth="yes"/>
      <point x="480" y="0" type="line" smooth="yes"/>
      <point x="511" y="0"/>
      <point x="527" y="13"/>
      <point x="538" y="41" type="curve" smooth="yes"/>
      <point x="566" y="110"/>
      <point x="585" y="182"/>
      <point x="613" y="250" type="curve"/>
      <point x="616" y="256"/>
      <point x="621" y="272"/>
      <point x="631" y="272" type="curve" smooth="yes"/>
      <point x="639" y="272"/>
      <point x="646" y="260"/>
      <point x="650" y="254" type="curve" smooth="yes"/>
      <point x="698" y="181"/>
      <point x="737" y="101"/>
      <point x="787" y="29" type="curve" smooth="yes"/>
      <point x="800" y="10"/>
      <point x="815" y="0"/>
      <point x="839" y="0" type="curve" smooth="yes"/>
      <point x="1288" y="0" type="line" smooth="yes"/>
      <point x="1314" y="0"/>
      <point x="1361" y="3"/>
      <point x="1361" y="39" type="curve" smooth="yes"/>
      <point x="1361" y="59"/>
      <point x="1349" y="79"/>
      <point x="1339" y="95" type="curve" smooth="yes"/>
      <point x="1302" y="155"/>
      <point x="978" y="666"/>
      <point x="978" y="683" type="curve" smooth="yes"/>
      <point x="978" y="700"/>
      <point x="1303" y="1218"/>
      <point x="1340" y="1279" type="curve" smooth="yes"/>
      <point x="1350" y="1295"/>
      <point x="1361" y="1315"/>
      <point x="1361" y="1334" type="curve" smooth="yes"/>
      <point x="1361" y="1371"/>
      <point x="1315" y="1374"/>
      <point x="1288" y="1374" type="curve" smooth="yes"/>
      <point x="881" y="1374" type="line" smooth="yes"/>
      <point x="851" y="1374"/>
      <point x="835" y="1361"/>
      <point x="824" y="1334" type="curve" smooth="yes"/>
      <point x="795" y="1266"/>
      <point x="774" y="1195"/>
      <point x="745" y="1127" type="curve"/>
      <point x="742" y="1121"/>
      <point x="737" y="1107"/>
      <point x="728" y="1107" type="curve" smooth="yes"/>
      <point x="719" y="1107"/>
      <point x="712" y="1118"/>
      <point x="708" y="1124" type="curve" smooth="yes"/>
      <point x="660" y="1195"/>
      <point x="622" y="1274"/>
      <point x="573" y="1345" type="curve" smooth="yes"/>
      <point x="559" y="1365"/>
      <point x="546" y="1374"/>
      <point x="521" y="1374" type="curve" smooth="yes"/>
      <point x="79" y="1374" type="line" smooth="yes"/>
      <point x="52" y="1374"/>
      <point x="5" y="1371"/>
      <point x="5" y="1334" type="curve" smooth="yes"/>
      <point x="5" y="1315"/>
      <point x="17" y="1295"/>
      <point x="27" y="1279" type="curve" smooth="yes"/>
      <point x="63" y="1220"/>
      <point x="374" y="725"/>
    </contour>
  </outline>
</glyph>
<glyph name="Y" format="2">
  <advance width="1341"/>
  <unicode hex="0059"/>
  <anchor x="669" y="0" name="bottom"/>
  <anchor x="737" y="1450" name="top"/>
  <anchor x="-20" y="1374" name="topleft"/>
  <outline>
    <contour>
      <point x="432" y="360" type="curve" smooth="yes"/>
      <point x="432" y="261"/>
      <point x="430" y="161"/>
      <point x="430" y="62" type="curve" smooth="yes"/>
      <point x="430" y="20"/>
      <point x="449" y="0"/>
      <point x="491" y="0" type="curve" smooth="yes"/>
      <point x="827" y="0" type="line" smooth="yes"/>
      <point x="869" y="0"/>
      <point x="888" y="20"/>
      <point x="888" y="62" type="curve" smooth="yes"/>
      <point x="888" y="161"/>
      <point x="886" y="261"/>
      <point x="886" y="360" type="curve" smooth="yes"/>
      <point x="886" y="361"/>
      <point x="888" y="368"/>
      <point x="888" y="369" type="curve"/>
      <point x="921" y="449"/>
      <point x="963" y="528"/>
      <point x="1000" y="606" type="curve" smooth="yes"/>
      <point x="1070" y="754"/>
      <point x="1141" y="902"/>
      <point x="1213" y="1049" type="curve" smooth="yes"/>
      <point x="1252" y="1127"/>
      <point x="1292" y="1205"/>
      <point x="1330" y="1284" type="curve" smooth="yes"/>
      <point x="1337" y="1299"/>
      <point x="1345" y="1315"/>
      <point x="1345" y="1332" type="curve" smooth="yes"/>
      <point x="1345" y="1369"/>
      <point x="1303" y="1374"/>
      <point x="1275" y="1374" type="curve" smooth="yes"/>
      <point x="854" y="1374" type="line" smooth="yes"/>
      <point x="820" y="1374"/>
      <point x="805" y="1359"/>
      <point x="794" y="1328" type="curve" smooth="yes"/>
      <point x="783" y="1297"/>
      <point x="777" y="1263"/>
      <point x="769" y="1231" type="curve" smooth="yes"/>
      <point x="743" y="1134"/>
      <point x="721" y="1037"/>
      <point x="693" y="941" type="curve"/>
      <point x="692" y="936"/>
      <point x="684" y="903"/>
      <point x="673" y="903" type="curve" smooth="yes"/>
      <point x="662" y="903"/>
      <point x="654" y="936"/>
      <point x="653" y="941" type="curve"/>
      <point x="625" y="1033"/>
      <point x="602" y="1127"/>
      <point x="576" y="1220" type="curve" smooth="yes"/>
      <point x="566" y="1256"/>
      <point x="558" y="1294"/>
      <point x="545" y="1329" type="curve" smooth="yes"/>
      <point x="534" y="1359"/>
      <point x="520" y="1374"/>
      <point x="486" y="1374" type="curve" smooth="yes"/>
      <point x="65" y="1374" type="line" smooth="yes"/>
      <point x="36" y="1374"/>
      <point x="-4" y="1368"/>
      <point x="-4" y="1331" type="curve" smooth="yes"/>
      <point x="-4" y="1315"/>
      <point x="2" y="1299"/>
      <point x="9" y="1285" type="curve"/>
      <point x="45" y="1206"/>
      <point x="84" y="1129"/>
      <point x="121" y="1050" type="curve" smooth="yes"/>
      <point x="190" y="903"/>
      <point x="257" y="754"/>
      <point x="324" y="606" type="curve" smooth="yes"/>
      <point x="359" y="527"/>
      <point x="399" y="449"/>
      <point x="431" y="369" type="curve"/>
      <point x="431" y="368"/>
      <point x="432" y="361"/>
    </contour>
  </outline>
</glyph>
<glyph name="Z" format="2">
  <advance width="1094"/>
  <unicode hex="005A"/>
  <anchor x="571" y="0" name="bottom"/>
  <anchor x="571" y="1374" name="top"/>
  <outline>
    <contour>
      <point x="59" y="0" type="curve" smooth="yes"/>
      <point x="996" y="0" type="line" smooth="yes"/>
      <point x="1025" y="0"/>
      <point x="1036" y="14"/>
      <point x="1036" y="42" type="curve" smooth="yes"/>
      <point x="1036" y="113"/>
      <point x="1030" y="185"/>
      <point x="1028" y="256" type="curve" smooth="yes"/>
      <point x="1026" y="304"/>
      <point x="1031" y="355"/>
      <point x="1024" y="402" type="curve" smooth="yes"/>
      <point x="1020" y="429"/>
      <point x="1012" y="441"/>
      <point x="983" y="441" type="curve" smooth="yes"/>
      <point x="703" y="441" type="line" smooth="yes"/>
      <point x="693" y="441"/>
      <point x="690" y="444"/>
      <point x="690" y="453" type="curve" smooth="yes"/>
      <point x="690" y="454"/>
      <point x="692" y="459"/>
      <point x="692" y="460" type="curve"/>
      <point x="728" y="553"/>
      <point x="769" y="646"/>
      <point x="808" y="738" type="curve" smooth="yes"/>
      <point x="891" y="932"/>
      <point x="976" y="1124"/>
      <point x="1064" y="1316" type="curve" smooth="yes"/>
      <point x="1068" y="1325"/>
      <point x="1073" y="1336"/>
      <point x="1073" y="1346" type="curve" smooth="yes"/>
      <point x="1073" y="1369"/>
      <point x="1047" y="1374"/>
      <point x="1029" y="1374" type="curve" smooth="yes"/>
      <point x="98" y="1374" type="line" smooth="yes"/>
      <point x="69" y="1374"/>
      <point x="58" y="1360"/>
      <point x="58" y="1332" type="curve" smooth="yes"/>
      <point x="58" y="1259"/>
      <point x="63" y="1185"/>
      <point x="66" y="1112" type="curve" smooth="yes"/>
      <point x="67" y="1067"/>
      <point x="66" y="1020"/>
      <point x="69" y="975" type="curve" smooth="yes"/>
      <point x="71" y="947"/>
      <point x="79" y="934"/>
      <point x="109" y="934" type="curve" smooth="yes"/>
      <point x="391" y="934" type="line" smooth="yes"/>
      <point x="396" y="934"/>
      <point x="402" y="932"/>
      <point x="404" y="927" type="curve"/>
      <point x="404" y="922" type="line" smooth="yes"/>
      <point x="404" y="921"/>
      <point x="403" y="917"/>
      <point x="403" y="916" type="curve"/>
      <point x="365" y="813"/>
      <point x="317" y="711"/>
      <point x="273" y="610" type="curve" smooth="yes"/>
      <point x="192" y="425"/>
      <point x="110" y="241"/>
      <point x="24" y="58" type="curve" smooth="yes"/>
      <point x="19" y="48"/>
      <point x="15" y="40"/>
      <point x="15" y="28" type="curve" smooth="yes"/>
      <point x="15" y="4"/>
      <point x="40" y="0"/>
    </contour>
  </outline>
</glyph>
<glyph name="bracketleft" format="2">
  <advance width="938"/>
  <unicode hex="005B"/>
  <outline>
    <contour>
      <point x="130" y="1594" type="curve" smooth="yes"/>
      <point x="130" y="1500"/>
      <point x="134" y="1405"/>
      <point x="135" y="1311" type="curve" smooth="yes"/>
      <point x="138" y="1113"/>
      <point x="139" y="915"/>
      <point x="139" y="717" type="curve" smooth="yes"/>
      <point x="139" y="494"/>
      <point x="137" y="272"/>
      <point x="134" y="49" type="curve" smooth="yes"/>
      <point x="132" y="-57"/>
      <point x="128" y="-164"/>
      <point x="128" y="-270" type="curve" smooth="yes"/>
      <point x="128" y="-312"/>
      <point x="146" y="-332"/>
      <point x="189" y="-332" type="curve" smooth="yes"/>
      <point x="805" y="-332" type="line" smooth="yes"/>
      <point x="849" y="-332"/>
      <point x="866" y="-311"/>
      <point x="866" y="-269" type="curve" smooth="yes"/>
      <point x="866" y="-217"/>
      <point x="863" y="-164"/>
      <point x="862" y="-111" type="curve" smooth="yes"/>
      <point x="861" y="-72"/>
      <point x="863" y="-32"/>
      <point x="860" y="7" type="curve" smooth="yes"/>
      <point x="857" y="48"/>
      <point x="841" y="67"/>
      <point x="798" y="67" type="curve" smooth="yes"/>
      <point x="602" y="67" type="line" smooth="yes"/>
      <point x="589" y="67"/>
      <point x="582" y="75"/>
      <point x="582" y="88" type="curve" smooth="yes"/>
      <point x="582" y="298"/>
      <point x="580" y="507"/>
      <point x="580" y="717" type="curve" smooth="yes"/>
      <point x="580" y="889"/>
      <point x="581" y="1061"/>
      <point x="581" y="1233" type="curve" smooth="yes"/>
      <point x="581" y="1246"/>
      <point x="588" y="1254"/>
      <point x="601" y="1254" type="curve" smooth="yes"/>
      <point x="796" y="1254" type="line" smooth="yes"/>
      <point x="839" y="1254"/>
      <point x="855" y="1273"/>
      <point x="858" y="1314" type="curve" smooth="yes"/>
      <point x="861" y="1353"/>
      <point x="859" y="1394"/>
      <point x="860" y="1434" type="curve" smooth="yes"/>
      <point x="861" y="1487"/>
      <point x="863" y="1540"/>
      <point x="863" y="1593" type="curve" smooth="yes"/>
      <point x="863" y="1635"/>
      <point x="845" y="1656"/>
      <point x="802" y="1656" type="curve" smooth="yes"/>
      <point x="192" y="1656" type="line" smooth="yes"/>
      <point x="149" y="1656"/>
      <point x="130" y="1636"/>
    </contour>
  </outline>
</glyph>
<glyph name="backslash" format="2">
  <advance width="768"/>
  <unicode hex="005C"/>
  <outline>
    <contour>
      <point x="259" y="1622" type="curve" smooth="yes"/>
      <point x="24" y="1622" type="line" smooth="yes"/>
      <point x="3" y="1622"/>
      <point x="-18" y="1617"/>
      <point x="-18" y="1591" type="curve" smooth="yes"/>
      <point x="-18" y="1584"/>
      <point x="-16" y="1576"/>
      <point x="-14" y="1569" type="curve"/>
      <point x="94" y="1231"/>
      <point x="194" y="892"/>
      <point x="289" y="550" type="curve" smooth="yes"/>
      <point x="322" y="431"/>
      <point x="354" y="312"/>
      <point x="388" y="194" type="curve" smooth="yes"/>
      <point x="405" y="134"/>
      <point x="423" y="44"/>
      <point x="447" y="-11" type="curve" smooth="yes"/>
      <point x="455" y="-30"/>
      <point x="465" y="-40"/>
      <point x="487" y="-40" type="curve" smooth="yes"/>
      <point x="717" y="-40" type="line" smooth="yes"/>
      <point x="738" y="-40"/>
      <point x="760" y="-35"/>
      <point x="760" y="-9" type="curve" smooth="yes"/>
      <point x="760" y="-2"/>
      <point x="758" y="6"/>
      <point x="756" y="13" type="curve" smooth="yes"/>
      <point x="616" y="469"/>
      <point x="490" y="929"/>
      <point x="359" y="1388" type="curve" smooth="yes"/>
      <point x="341" y="1452"/>
      <point x="325" y="1534"/>
      <point x="299" y="1593" type="curve" smooth="yes"/>
      <point x="291" y="1612"/>
      <point x="281" y="1622"/>
    </contour>
  </outline>
</glyph>
<glyph name="bracketright" format="2">
  <advance width="938"/>
  <unicode hex="005D"/>
  <outline>
    <contour>
      <point x="818" y="-290" type="curve" smooth="yes"/>
      <point x="818" y="-181"/>
      <point x="807" y="-70"/>
      <point x="804" y="39" type="curve" smooth="yes"/>
      <point x="797" y="268"/>
      <point x="794" y="496"/>
      <point x="794" y="725" type="curve" smooth="yes"/>
      <point x="794" y="923"/>
      <point x="797" y="1121"/>
      <point x="802" y="1319" type="curve" smooth="yes"/>
      <point x="805" y="1414"/>
      <point x="812" y="1509"/>
      <point x="812" y="1603" type="curve" smooth="yes"/>
      <point x="812" y="1632"/>
      <point x="802" y="1645"/>
      <point x="772" y="1645" type="curve" smooth="yes"/>
      <point x="111" y="1645" type="line" smooth="yes"/>
      <point x="82" y="1645"/>
      <point x="70" y="1632"/>
      <point x="70" y="1603" type="curve" smooth="yes"/>
      <point x="70" y="1541"/>
      <point x="78" y="1480"/>
      <point x="78" y="1418" type="curve" smooth="yes"/>
      <point x="78" y="1381"/>
      <point x="72" y="1332"/>
      <point x="122" y="1332" type="curve" smooth="yes"/>
      <point x="344" y="1332" type="line" smooth="yes"/>
      <point x="352" y="1332"/>
      <point x="357" y="1327"/>
      <point x="357" y="1319" type="curve" smooth="yes"/>
      <point x="357" y="1121"/>
      <point x="359" y="923"/>
      <point x="359" y="725" type="curve" smooth="yes"/>
      <point x="359" y="484"/>
      <point x="355" y="242"/>
      <point x="355" y="1" type="curve" smooth="yes"/>
      <point x="355" y="-2"/>
      <point x="355" y="-4"/>
      <point x="355" y="-7" type="curve"/>
      <point x="354" y="-16"/>
      <point x="345" y="-15"/>
      <point x="339" y="-15" type="curve" smooth="yes"/>
      <point x="118" y="-15" type="line" smooth="yes"/>
      <point x="88" y="-15"/>
      <point x="80" y="-27"/>
      <point x="76" y="-55" type="curve" smooth="yes"/>
      <point x="72" y="-81"/>
      <point x="73" y="-108"/>
      <point x="72" y="-134" type="curve" smooth="yes"/>
      <point x="70" y="-186"/>
      <point x="64" y="-238"/>
      <point x="64" y="-290" type="curve" smooth="yes"/>
      <point x="64" y="-319"/>
      <point x="76" y="-332"/>
      <point x="105" y="-332" type="curve" smooth="yes"/>
      <point x="777" y="-332" type="line" smooth="yes"/>
      <point x="806" y="-332"/>
      <point x="818" y="-319"/>
    </contour>
  </outline>
</glyph>
<glyph name="asciicircum" format="2">
  <advance width="1176"/>
  <unicode hex="005E"/>
  <outline>
    <contour>
      <point x="912" y="1094" type="curve" smooth="yes"/>
      <point x="912" y="1114"/>
      <point x="892" y="1138"/>
      <point x="879" y="1151" type="curve"/>
      <point x="796" y="1240"/>
      <point x="712" y="1329"/>
      <point x="628" y="1417" type="curve" smooth="yes"/>
      <point x="616" y="1429"/>
      <point x="602" y="1440"/>
      <point x="584" y="1440" type="curve" smooth="yes"/>
      <point x="567" y="1440"/>
      <point x="551" y="1429"/>
      <point x="540" y="1417" type="curve" smooth="yes"/>
      <point x="291" y="1150" type="line"/>
      <point x="278" y="1137"/>
      <point x="258" y="1113"/>
      <point x="258" y="1094" type="curve" smooth="yes"/>
      <point x="258" y="1064"/>
      <point x="309" y="1063"/>
      <point x="329" y="1063" type="curve" smooth="yes"/>
      <point x="449" y="1063" type="line" smooth="yes"/>
      <point x="469" y="1063"/>
      <point x="469" y="1045"/>
      <point x="486" y="1045" type="curve" smooth="yes"/>
      <point x="513" y="1045"/>
      <point x="539" y="1065"/>
      <point x="566" y="1065" type="curve" smooth="yes"/>
      <point x="572" y="1065"/>
      <point x="578" y="1061"/>
      <point x="584" y="1061" type="curve" smooth="yes"/>
      <point x="590" y="1061"/>
      <point x="595" y="1064"/>
      <point x="601" y="1064" type="curve" smooth="yes"/>
      <point x="629" y="1064"/>
      <point x="655" y="1045"/>
      <point x="683" y="1045" type="curve" smooth="yes"/>
      <point x="702" y="1045"/>
      <point x="701" y="1063"/>
      <point x="721" y="1063" type="curve" smooth="yes"/>
      <point x="841" y="1063" type="line" smooth="yes"/>
      <point x="861" y="1063"/>
      <point x="912" y="1064"/>
    </contour>
  </outline>
</glyph>
<glyph name="underscore" format="2">
  <advance width="997"/>
  <unicode hex="005F"/>
  <outline>
    <contour>
      <point x="111" y="42" type="curve" smooth="yes"/>
      <point x="111" y="14"/>
      <point x="122" y="0"/>
      <point x="151" y="0" type="curve" smooth="yes"/>
      <point x="845" y="0" type="line" smooth="yes"/>
      <point x="873" y="0"/>
      <point x="886" y="14"/>
      <point x="885" y="42" type="curve" smooth="yes"/>
      <point x="879" y="250" type="line" smooth="yes"/>
      <point x="878" y="275"/>
      <point x="863" y="290"/>
      <point x="838" y="290" type="curve" smooth="yes"/>
      <point x="159" y="290" type="line" smooth="yes"/>
      <point x="131" y="290"/>
      <point x="120" y="276"/>
      <point x="118" y="249" type="curve" smooth="yes"/>
      <point x="114" y="181"/>
      <point x="111" y="111"/>
    </contour>
  </outline>
</glyph>
<glyph name="grave" format="2">
  <advance width="801"/>
  <unicode hex="0060"/>
  <outline>
    <contour>
      <point x="464" y="1055" type="curve" smooth="yes"/>
      <point x="634" y="1055" type="line" smooth="yes"/>
      <point x="652" y="1055"/>
      <point x="681" y="1057"/>
      <point x="681" y="1081" type="curve" smooth="yes"/>
      <point x="681" y="1112"/>
      <point x="560" y="1292"/>
      <point x="535" y="1328" type="curve"/>
      <point x="526" y="1340"/>
      <point x="517" y="1347"/>
      <point x="502" y="1347" type="curve" smooth="yes"/>
      <point x="174" y="1347" type="line" smooth="yes"/>
      <point x="158" y="1347"/>
      <point x="105" y="1346"/>
      <point x="105" y="1324" type="curve" smooth="yes"/>
      <point x="105" y="1321"/>
      <point x="105" y="1318"/>
      <point x="106" y="1316" type="curve"/>
      <point x="113" y="1298"/>
      <point x="136" y="1283"/>
      <point x="151" y="1272" type="curve" smooth="yes"/>
      <point x="209" y="1228"/>
      <point x="270" y="1187"/>
      <point x="329" y="1144" type="curve" smooth="yes"/>
      <point x="366" y="1117"/>
      <point x="402" y="1088"/>
      <point x="440" y="1063" type="curve"/>
      <point x="447" y="1058"/>
      <point x="455" y="1055"/>
    </contour>
  </outline>
</glyph>
<glyph name="a" format="2">
  <advance width="1276"/>
  <unicode hex="0061"/>
  <anchor x="650" y="0" name="bottom"/>
  <anchor x="1438" y="22" name="ogonek"/>
  <anchor x="716" y="1082" name="top"/>
  <outline>
    <contour>
      <point x="470" y="-32" type="curve" smooth="yes"/>
      <point x="573" y="-32"/>
      <point x="662" y="0"/>
      <point x="746" y="58" type="curve" smooth="yes"/>
      <point x="752" y="62"/>
      <point x="759" y="68"/>
      <point x="767" y="68" type="curve" smooth="yes"/>
      <point x="795" y="68"/>
      <point x="759" y="0"/>
      <point x="800" y="0" type="curve" smooth="yes"/>
      <point x="1136" y="0" type="line" smooth="yes"/>
      <point x="1179" y="0"/>
      <point x="1197" y="21"/>
      <point x="1197" y="63" type="curve" smooth="yes"/>
      <point x="1197" y="133"/>
      <point x="1194" y="204"/>
      <point x="1193" y="274" type="curve" smooth="yes"/>
      <point x="1190" y="422"/>
      <point x="1189" y="569"/>
      <point x="1189" y="717" type="curve" smooth="yes"/>
      <point x="1189" y="796"/>
      <point x="1190" y="875"/>
      <point x="1190" y="954" type="curve" smooth="yes"/>
      <point x="1190" y="996"/>
      <point x="1170" y="1016"/>
      <point x="1128" y="1016" type="curve" smooth="yes"/>
      <point x="807" y="1016" type="line" smooth="yes"/>
      <point x="768" y="1016"/>
      <point x="767" y="974"/>
      <point x="745" y="974" type="curve" smooth="yes"/>
      <point x="740" y="974"/>
      <point x="736" y="976"/>
      <point x="732" y="978" type="curve"/>
      <point x="656" y="1022"/>
      <point x="582" y="1044"/>
      <point x="494" y="1044" type="curve" smooth="yes"/>
      <point x="177" y="1044"/>
      <point x="50" y="782"/>
      <point x="50" y="501" type="curve" smooth="yes"/>
      <point x="50" y="238"/>
      <point x="169" y="-32"/>
    </contour>
    <contour>
      <point x="621" y="341" type="curve" smooth="yes"/>
      <point x="526" y="341"/>
      <point x="472" y="434"/>
      <point x="472" y="520" type="curve" smooth="yes"/>
      <point x="472" y="607"/>
      <point x="522" y="719"/>
      <point x="623" y="719" type="curve" smooth="yes"/>
      <point x="676" y="719"/>
      <point x="733" y="702"/>
      <point x="773" y="666" type="curve"/>
      <point x="774" y="405" type="line"/>
      <point x="739" y="361"/>
      <point x="675" y="341"/>
    </contour>
  </outline>
</glyph>
<glyph name="b" format="2">
  <advance width="1278"/>
  <unicode hex="0062"/>
  <anchor x="633" y="0" name="bottom"/>
  <anchor x="633" y="1017" name="top"/>
  <outline>
    <contour>
      <point x="764" y="-32" type="curve" smooth="yes"/>
      <point x="1058" y="-32"/>
      <point x="1228" y="257"/>
      <point x="1228" y="523" type="curve" smooth="yes"/>
      <point x="1228" y="546" type="line" smooth="yes"/>
      <point x="1228" y="809"/>
      <point x="1099" y="1079"/>
      <point x="801" y="1079" type="curve" smooth="yes"/>
      <point x="709" y="1079"/>
      <point x="629" y="1053"/>
      <point x="554" y="1000" type="curve" smooth="yes"/>
      <point x="547" y="995"/>
      <point x="539" y="987"/>
      <point x="530" y="987" type="curve" smooth="yes"/>
      <point x="517" y="987"/>
      <point x="517" y="1010"/>
      <point x="517" y="1017" type="curve" smooth="yes"/>
      <point x="517" y="1118"/>
      <point x="517" y="1218"/>
      <point x="516" y="1319" type="curve" smooth="yes"/>
      <point x="516" y="1369"/>
      <point x="518" y="1420"/>
      <point x="515" y="1470" type="curve" smooth="yes"/>
      <point x="513" y="1511"/>
      <point x="496" y="1531"/>
      <point x="453" y="1531" type="curve" smooth="yes"/>
      <point x="138" y="1531" type="line" smooth="yes"/>
      <point x="94" y="1531"/>
      <point x="76" y="1511"/>
      <point x="76" y="1468" type="curve" smooth="yes"/>
      <point x="76" y="1387"/>
      <point x="80" y="1307"/>
      <point x="82" y="1226" type="curve" smooth="yes"/>
      <point x="85" y="1056"/>
      <point x="87" y="887"/>
      <point x="87" y="717" type="curve" smooth="yes"/>
      <point x="87" y="569"/>
      <point x="86" y="422"/>
      <point x="83" y="274" type="curve" smooth="yes"/>
      <point x="82" y="204"/>
      <point x="79" y="133"/>
      <point x="79" y="63" type="curve" smooth="yes"/>
      <point x="79" y="21"/>
      <point x="97" y="0"/>
      <point x="140" y="0" type="curve" smooth="yes"/>
      <point x="501" y="0" type="line" smooth="yes"/>
      <point x="532" y="0"/>
      <point x="506" y="52"/>
      <point x="525" y="52" type="curve" smooth="yes"/>
      <point x="531" y="52"/>
      <point x="537" y="46"/>
      <point x="541" y="43" type="curve" smooth="yes"/>
      <point x="607" y="-9"/>
      <point x="680" y="-32"/>
    </contour>
    <contour>
      <point x="659" y="359" type="curve" smooth="yes"/>
      <point x="610" y="359"/>
      <point x="554" y="382"/>
      <point x="525" y="423" type="curve"/>
      <point x="525" y="684" type="line"/>
      <point x="559" y="717"/>
      <point x="612" y="737"/>
      <point x="659" y="737" type="curve" smooth="yes"/>
      <point x="755" y="737"/>
      <point x="794" y="615"/>
      <point x="794" y="537" type="curve" smooth="yes"/>
      <point x="794" y="459"/>
      <point x="749" y="359"/>
    </contour>
  </outline>
</glyph>
<glyph name="c" format="2">
  <advance width="883"/>
  <unicode hex="0063"/>
  <anchor x="423" y="0" name="bottom"/>
  <anchor x="431" y="1050" name="top"/>
  <outline>
    <contour>
      <point x="707" y="345" type="curve" smooth="yes"/>
      <point x="677" y="345"/>
      <point x="647" y="329"/>
      <point x="614" y="329" type="curve" smooth="yes"/>
      <point x="514" y="329"/>
      <point x="478" y="410"/>
      <point x="478" y="499" type="curve" smooth="yes"/>
      <point x="478" y="584"/>
      <point x="511" y="693"/>
      <point x="614" y="693" type="curve" smooth="yes"/>
      <point x="646" y="693"/>
      <point x="674" y="674"/>
      <point x="704" y="674" type="curve" smooth="yes"/>
      <point x="727" y="674"/>
      <point x="736" y="689"/>
      <point x="745" y="708" type="curve" smooth="yes"/>
      <point x="759" y="738"/>
      <point x="834" y="919"/>
      <point x="834" y="939" type="curve" smooth="yes"/>
      <point x="834" y="961"/>
      <point x="823" y="972"/>
      <point x="806" y="983" type="curve" smooth="yes"/>
      <point x="733" y="1031"/>
      <point x="639" y="1048"/>
      <point x="553" y="1048" type="curve" smooth="yes"/>
      <point x="212" y="1048"/>
      <point x="45" y="806"/>
      <point x="45" y="485" type="curve" smooth="yes"/>
      <point x="45" y="184"/>
      <point x="186" y="-30"/>
      <point x="507" y="-30" type="curve" smooth="yes"/>
      <point x="596" y="-30"/>
      <point x="704" y="-14"/>
      <point x="785" y="22" type="curve" smooth="yes"/>
      <point x="806" y="31"/>
      <point x="820" y="43"/>
      <point x="820" y="68" type="curve" smooth="yes"/>
      <point x="820" y="84"/>
      <point x="761" y="277"/>
      <point x="751" y="305" type="curve" smooth="yes"/>
      <point x="743" y="327"/>
      <point x="734" y="345"/>
    </contour>
  </outline>
</glyph>
<glyph name="d" format="2">
  <advance width="1278"/>
  <unicode hex="0064"/>
  <anchor x="647" y="0" name="bottom"/>
  <anchor x="961" y="1404" name="center"/>
  <anchor x="647" y="1019" name="top"/>
  <anchor x="1279" y="1019" name="topright"/>
  <outline>
    <contour>
      <point x="449" y="-32" type="curve" smooth="yes"/>
      <point x="551" y="-32"/>
      <point x="631" y="1"/>
      <point x="717" y="54" type="curve"/>
      <point x="726" y="59" type="line"/>
      <point x="733" y="58" type="line"/>
      <point x="740" y="52"/>
      <point x="737" y="36"/>
      <point x="737" y="27" type="curve" smooth="yes"/>
      <point x="737" y="12"/>
      <point x="742" y="0"/>
      <point x="760" y="0" type="curve" smooth="yes"/>
      <point x="1159" y="0" type="line" smooth="yes"/>
      <point x="1188" y="0"/>
      <point x="1199" y="14"/>
      <point x="1199" y="42" type="curve" smooth="yes"/>
      <point x="1199" y="114"/>
      <point x="1192" y="188"/>
      <point x="1189" y="260" type="curve" smooth="yes"/>
      <point x="1184" y="412"/>
      <point x="1181" y="563"/>
      <point x="1181" y="715" type="curve" smooth="yes"/>
      <point x="1181" y="890"/>
      <point x="1184" y="1065"/>
      <point x="1191" y="1239" type="curve" smooth="yes"/>
      <point x="1194" y="1322"/>
      <point x="1205" y="1407"/>
      <point x="1205" y="1490" type="curve" smooth="yes"/>
      <point x="1205" y="1519"/>
      <point x="1195" y="1532"/>
      <point x="1165" y="1532" type="curve" smooth="yes"/>
      <point x="783" y="1532" type="line" smooth="yes"/>
      <point x="751" y="1532"/>
      <point x="745" y="1521"/>
      <point x="741" y="1491" type="curve" smooth="yes"/>
      <point x="735" y="1440"/>
      <point x="739" y="1387"/>
      <point x="739" y="1335" type="curve" smooth="yes"/>
      <point x="739" y="1293"/>
      <point x="741" y="969"/>
      <point x="732" y="960" type="curve"/>
      <point x="727" y="960" type="line"/>
      <point x="717" y="966" type="line"/>
      <point x="640" y="1015"/>
      <point x="562" y="1045"/>
      <point x="469" y="1045" type="curve" smooth="yes"/>
      <point x="155" y="1045"/>
      <point x="60" y="756"/>
      <point x="60" y="490" type="curve" smooth="yes"/>
      <point x="60" y="240"/>
      <point x="156" y="-32"/>
    </contour>
    <contour>
      <point x="626" y="345" type="curve" smooth="yes"/>
      <point x="542" y="345"/>
      <point x="518" y="467"/>
      <point x="518" y="532" type="curve" smooth="yes"/>
      <point x="518" y="591"/>
      <point x="550" y="718"/>
      <point x="626" y="718" type="curve" smooth="yes"/>
      <point x="666" y="718"/>
      <point x="706" y="693"/>
      <point x="734" y="667" type="curve"/>
      <point x="734" y="580"/>
      <point x="734" y="493"/>
      <point x="736" y="406" type="curve"/>
      <point x="714" y="369"/>
      <point x="669" y="345"/>
    </contour>
  </outline>
</glyph>
<glyph name="e" format="2">
  <advance width="1106"/>
  <unicode hex="0065"/>
  <anchor x="601" y="0" name="bottom"/>
  <anchor x="1015" y="22" name="ogonek"/>
  <anchor x="640" y="1086" name="top"/>
  <outline>
    <contour>
      <point x="616" y="-32" type="curve" smooth="yes"/>
      <point x="734" y="-32"/>
      <point x="901" y="-4"/>
      <point x="999" y="66" type="curve" smooth="yes"/>
      <point x="1015" y="78"/>
      <point x="1027" y="88"/>
      <point x="1027" y="110" type="curve" smooth="yes"/>
      <point x="1027" y="132"/>
      <point x="972" y="256"/>
      <point x="959" y="282" type="curve" smooth="yes"/>
      <point x="948" y="305"/>
      <point x="937" y="325"/>
      <point x="908" y="325" type="curve" smooth="yes"/>
      <point x="894" y="325"/>
      <point x="881" y="320"/>
      <point x="869" y="314" type="curve"/>
      <point x="809" y="287"/>
      <point x="748" y="264"/>
      <point x="681" y="264" type="curve" smooth="yes"/>
      <point x="608" y="264"/>
      <point x="545" y="297"/>
      <point x="509" y="362" type="curve"/>
      <point x="507" y="365"/>
      <point x="506" y="369"/>
      <point x="506" y="373" type="curve" smooth="yes"/>
      <point x="506" y="382"/>
      <point x="513" y="386"/>
      <point x="520" y="389" type="curve"/>
      <point x="561" y="405"/>
      <point x="606" y="417"/>
      <point x="648" y="431" type="curve" smooth="yes"/>
      <point x="903" y="515" type="line" smooth="yes"/>
      <point x="940" y="527"/>
      <point x="978" y="538"/>
      <point x="1014" y="552" type="curve" smooth="yes"/>
      <point x="1039" y="562"/>
      <point x="1056" y="574"/>
      <point x="1056" y="604" type="curve" smooth="yes"/>
      <point x="1056" y="608"/>
      <point x="1056" y="612"/>
      <point x="1055" y="616" type="curve"/>
      <point x="1014" y="891"/>
      <point x="872" y="1045"/>
      <point x="584" y="1045" type="curve" smooth="yes"/>
      <point x="246" y="1045"/>
      <point x="50" y="833"/>
      <point x="50" y="500" type="curve" smooth="yes"/>
      <point x="50" y="133"/>
      <point x="263" y="-32"/>
    </contour>
    <contour>
      <point x="480" y="582" type="curve"/>
      <point x="485" y="654"/>
      <point x="500" y="727"/>
      <point x="588" y="727" type="curve" smooth="yes"/>
      <point x="637" y="727"/>
      <point x="672" y="707"/>
      <point x="679" y="655" type="curve"/>
      <point x="613" y="630"/>
      <point x="546" y="606"/>
    </contour>
  </outline>
</glyph>
<glyph name="f" format="2">
  <advance width="807"/>
  <unicode hex="0066"/>
  <anchor x="481" y="0" name="bottom"/>
  <anchor x="481" y="1017" name="top"/>
  <outline>
    <contour>
      <point x="243" y="0" type="curve" smooth="yes"/>
      <point x="559" y="0" type="line" smooth="yes"/>
      <point x="602" y="0"/>
      <point x="620" y="20"/>
      <point x="620" y="62" type="curve" smooth="yes"/>
      <point x="620" y="271"/>
      <point x="617" y="480"/>
      <point x="617" y="689" type="curve" smooth="yes"/>
      <point x="617" y="741"/>
      <point x="737" y="666"/>
      <point x="737" y="759" type="curve" smooth="yes"/>
      <point x="737" y="831"/>
      <point x="738" y="904"/>
      <point x="738" y="976" type="curve" smooth="yes"/>
      <point x="738" y="1069"/>
      <point x="618" y="993"/>
      <point x="618" y="1047" type="curve" smooth="yes"/>
      <point x="618" y="1070" type="line" smooth="yes"/>
      <point x="618" y="1118"/>
      <point x="631" y="1200"/>
      <point x="694" y="1201" type="curve" smooth="yes"/>
      <point x="699" y="1201"/>
      <point x="705" y="1200"/>
      <point x="710" y="1200" type="curve" smooth="yes"/>
      <point x="723" y="1200"/>
      <point x="725" y="1203"/>
      <point x="729" y="1215" type="curve" smooth="yes"/>
      <point x="737" y="1241"/>
      <point x="780" y="1430"/>
      <point x="780" y="1448" type="curve" smooth="yes"/>
      <point x="780" y="1480"/>
      <point x="759" y="1493"/>
      <point x="730" y="1499" type="curve" smooth="yes"/>
      <point x="675" y="1510"/>
      <point x="616" y="1513"/>
      <point x="560" y="1513" type="curve" smooth="yes"/>
      <point x="266" y="1513"/>
      <point x="184" y="1301"/>
      <point x="184" y="1045" type="curve" smooth="yes"/>
      <point x="184" y="991"/>
      <point x="49" y="1075"/>
      <point x="49" y="967" type="curve" smooth="yes"/>
      <point x="49" y="900"/>
      <point x="50" y="833"/>
      <point x="50" y="766" type="curve" smooth="yes"/>
      <point x="50" y="662"/>
      <point x="185" y="743"/>
      <point x="185" y="689" type="curve" smooth="yes"/>
      <point x="185" y="480"/>
      <point x="182" y="271"/>
      <point x="182" y="62" type="curve" smooth="yes"/>
      <point x="182" y="21"/>
      <point x="201" y="0"/>
    </contour>
    <contour>
      <point x="726" y="1199" type="line"/>
      <point x="727" y="1199"/>
      <point x="733" y="1198"/>
      <point x="733" y="1196" type="curve"/>
      <point x="730" y="1195"/>
      <point x="728" y="1194"/>
      <point x="725" y="1194" type="curve"/>
    </contour>
  </outline>
</glyph>
<glyph name="g" format="2">
  <advance width="1253"/>
  <unicode hex="0067"/>
  <anchor x="614" y="0" name="bottom"/>
  <anchor x="614" y="1082" name="top"/>
  <outline>
    <contour>
      <point x="580" y="-416" type="curve" smooth="yes"/>
      <point x="848" y="-416"/>
      <point x="1174" y="-226"/>
      <point x="1174" y="71" type="curve" smooth="yes"/>
      <point x="1174" y="81" type="line"/>
      <point x="1169" y="293"/>
      <point x="1166" y="505"/>
      <point x="1166" y="717" type="curve" smooth="yes"/>
      <point x="1166" y="796"/>
      <point x="1167" y="875"/>
      <point x="1167" y="954" type="curve" smooth="yes"/>
      <point x="1167" y="996"/>
      <point x="1148" y="1016"/>
      <point x="1106" y="1016" type="curve" smooth="yes"/>
      <point x="900" y="1016" type="line" smooth="yes"/>
      <point x="834" y="1016"/>
      <point x="850" y="929"/>
      <point x="821" y="929" type="curve" smooth="yes"/>
      <point x="813" y="929"/>
      <point x="806" y="936"/>
      <point x="801" y="941" type="curve"/>
      <point x="720" y="1013"/>
      <point x="621" y="1045"/>
      <point x="513" y="1045" type="curve" smooth="yes"/>
      <point x="215" y="1045"/>
      <point x="50" y="786"/>
      <point x="50" y="512" type="curve" smooth="yes"/>
      <point x="50" y="244"/>
      <point x="207" y="14"/>
      <point x="493" y="14" type="curve" smooth="yes"/>
      <point x="569" y="14"/>
      <point x="635" y="32"/>
      <point x="698" y="75" type="curve" smooth="yes"/>
      <point x="705" y="80"/>
      <point x="716" y="88"/>
      <point x="725" y="88" type="curve" smooth="yes"/>
      <point x="731" y="88"/>
      <point x="733" y="83"/>
      <point x="733" y="78" type="curve" smooth="yes"/>
      <point x="733" y="72"/>
      <point x="731" y="65"/>
      <point x="729" y="59" type="curve" smooth="yes"/>
      <point x="690" y="-49"/>
      <point x="552" y="-86"/>
      <point x="448" y="-86" type="curve" smooth="yes"/>
      <point x="398" y="-86"/>
      <point x="350" y="-78"/>
      <point x="304" y="-58" type="curve"/>
      <point x="289" y="-52"/>
      <point x="275" y="-46"/>
      <point x="259" y="-46" type="curve" smooth="yes"/>
      <point x="235" y="-46"/>
      <point x="221" y="-59"/>
      <point x="207" y="-76" type="curve"/>
      <point x="179" y="-108"/>
      <point x="151" y="-144"/>
      <point x="126" y="-178" type="curve" smooth="yes"/>
      <point x="117" y="-190"/>
      <point x="110" y="-202"/>
      <point x="110" y="-217" type="curve" smooth="yes"/>
      <point x="110" y="-234"/>
      <point x="119" y="-246"/>
      <point x="130" y="-257" type="curve" smooth="yes"/>
      <point x="246" y="-375"/>
      <point x="420" y="-416"/>
    </contour>
    <contour>
      <point x="601" y="341" type="curve" smooth="yes"/>
      <point x="512" y="341"/>
      <point x="469" y="443"/>
      <point x="469" y="519" type="curve" smooth="yes"/>
      <point x="469" y="590"/>
      <point x="505" y="719"/>
      <point x="595" y="719" type="curve" smooth="yes"/>
      <point x="641" y="719"/>
      <point x="689" y="698"/>
      <point x="721" y="666" type="curve"/>
      <point x="722" y="405" type="line"/>
      <point x="697" y="368"/>
      <point x="646" y="341"/>
    </contour>
  </outline>
</glyph>
<glyph name="h" format="2">
  <advance width="1249"/>
  <unicode hex="0068"/>
  <anchor x="625" y="0" name="bottom"/>
  <anchor x="343" y="1423" name="center"/>
  <anchor x="303" y="1765" name="top"/>
  <outline>
    <contour>
      <point x="140" y="0" type="curve" smooth="yes"/>
      <point x="457" y="0" type="line" smooth="yes"/>
      <point x="498" y="0"/>
      <point x="518" y="20"/>
      <point x="518" y="61" type="curve" smooth="yes"/>
      <point x="518" y="151"/>
      <point x="518" y="243"/>
      <point x="519" y="333" type="curve" smooth="yes"/>
      <point x="520" y="431"/>
      <point x="517" y="695"/>
      <point x="659" y="695" type="curve" smooth="yes"/>
      <point x="721" y="695"/>
      <point x="729" y="649"/>
      <point x="731" y="598" type="curve" smooth="yes"/>
      <point x="734" y="539"/>
      <point x="731" y="478"/>
      <point x="731" y="419" type="curve" smooth="yes"/>
      <point x="731" y="300"/>
      <point x="733" y="180"/>
      <point x="733" y="61" type="curve" smooth="yes"/>
      <point x="733" y="20"/>
      <point x="753" y="0"/>
      <point x="794" y="0" type="curve" smooth="yes"/>
      <point x="1109" y="0" type="line" smooth="yes"/>
      <point x="1152" y="0"/>
      <point x="1170" y="21"/>
      <point x="1170" y="63" type="curve" smooth="yes"/>
      <point x="1170" y="133"/>
      <point x="1167" y="204"/>
      <point x="1166" y="274" type="curve" smooth="yes"/>
      <point x="1163" y="422"/>
      <point x="1162" y="569"/>
      <point x="1162" y="717" type="curve" smooth="yes"/>
      <point x="1162" y="751" type="line" smooth="yes"/>
      <point x="1162" y="938"/>
      <point x="989" y="1046"/>
      <point x="817" y="1046" type="curve" smooth="yes"/>
      <point x="707" y="1046"/>
      <point x="630" y="1015"/>
      <point x="550" y="941" type="curve"/>
      <point x="544" y="936"/>
      <point x="531" y="922"/>
      <point x="522" y="922" type="curve" smooth="yes"/>
      <point x="509" y="922"/>
      <point x="510" y="950"/>
      <point x="510" y="956" type="curve" smooth="yes"/>
      <point x="510" y="1068"/>
      <point x="510" y="1181"/>
      <point x="509" y="1293" type="curve" smooth="yes"/>
      <point x="509" y="1351"/>
      <point x="512" y="1412"/>
      <point x="508" y="1470" type="curve" smooth="yes"/>
      <point x="505" y="1511"/>
      <point x="489" y="1531"/>
      <point x="446" y="1531" type="curve" smooth="yes"/>
      <point x="138" y="1531" type="line" smooth="yes"/>
      <point x="94" y="1531"/>
      <point x="76" y="1511"/>
      <point x="76" y="1468" type="curve" smooth="yes"/>
      <point x="76" y="1387"/>
      <point x="80" y="1307"/>
      <point x="82" y="1226" type="curve" smooth="yes"/>
      <point x="85" y="1056"/>
      <point x="87" y="887"/>
      <point x="87" y="717" type="curve" smooth="yes"/>
      <point x="87" y="569"/>
      <point x="86" y="422"/>
      <point x="83" y="274" type="curve" smooth="yes"/>
      <point x="82" y="204"/>
      <point x="79" y="133"/>
      <point x="79" y="63" type="curve" smooth="yes"/>
      <point x="79" y="21"/>
      <point x="97" y="0"/>
    </contour>
  </outline>
</glyph>
<glyph name="i" format="2">
  <advance width="672"/>
  <unicode hex="0069"/>
  <anchor x="291" y="0" name="bottom"/>
  <anchor x="824" y="22" name="ogonek"/>
  <anchor x="336" y="1653" name="top"/>
  <outline>
    <contour>
      <point x="116" y="669" type="curve" smooth="yes"/>
      <point x="116" y="460"/>
      <point x="109" y="250"/>
      <point x="109" y="41" type="curve" smooth="yes"/>
      <point x="109" y="14"/>
      <point x="122" y="0" name=".hr01"/>
      <point x="149" y="0" type="curve" smooth="yes"/>
      <point x="508" y="0" type="line" smooth="yes"/>
      <point x="534" y="0"/>
      <point x="549" y="14"/>
      <point x="549" y="41" type="curve" smooth="yes"/>
      <point x="549" y="250"/>
      <point x="541" y="460"/>
      <point x="541" y="669" type="curve" smooth="yes"/>
      <point x="541" y="774"/>
      <point x="543" y="878"/>
      <point x="543" y="983" type="curve" smooth="yes"/>
      <point x="543" y="1009"/>
      <point x="528" y="1023"/>
      <point x="502" y="1023" type="curve" smooth="yes"/>
      <point x="155" y="1023" type="line" smooth="yes"/>
      <point x="127" y="1023"/>
      <point x="117" y="1010"/>
      <point x="115" y="983" type="curve" smooth="yes"/>
      <point x="113" y="949"/>
      <point x="115" y="913"/>
      <point x="115" y="878" type="curve" smooth="yes"/>
      <point x="116" y="809"/>
      <point x="116" y="739"/>
    </contour>
    <contour>
      <point x="340" y="1214" type="curve" smooth="yes"/>
      <point x="457" y="1214"/>
      <point x="580" y="1308"/>
      <point x="580" y="1431" type="curve" smooth="yes"/>
      <point x="580" y="1561"/>
      <point x="468" y="1656"/>
      <point x="342" y="1656" type="curve" smooth="yes"/>
      <point x="221" y="1656"/>
      <point x="101" y="1565"/>
      <point x="101" y="1438" type="curve" smooth="yes"/>
      <point x="101" y="1310"/>
      <point x="217" y="1214"/>
    </contour>
  </outline>
</glyph>
<glyph name="j" format="2">
  <advance width="684"/>
  <unicode hex="006A"/>
  <anchor x="388" y="0" name="bottom"/>
  <anchor x="383" y="1595" name="top"/>
  <outline>
    <contour>
      <point x="604" y="-9" type="curve" smooth="yes"/>
      <point x="604" y="233"/>
      <point x="599" y="475"/>
      <point x="599" y="717" type="curve" smooth="yes"/>
      <point x="600" y="955" type="line" smooth="yes"/>
      <point x="600" y="996"/>
      <point x="579" y="1016"/>
      <point x="538" y="1016" type="curve" smooth="yes"/>
      <point x="228" y="1016" type="line" smooth="yes"/>
      <point x="187" y="1016"/>
      <point x="167" y="996"/>
      <point x="167" y="955" type="curve" smooth="yes"/>
      <point x="167" y="717" type="line" smooth="yes"/>
      <point x="167" y="492"/>
      <point x="164" y="266"/>
      <point x="164" y="41" type="curve" smooth="yes"/>
      <point x="164" y="-141"/>
      <point x="35" y="-171"/>
      <point x="35" y="-224" type="curve" smooth="yes"/>
      <point x="35" y="-242"/>
      <point x="46" y="-258" name=".hr01"/>
      <point x="57" y="-271" type="curve"/>
      <point x="87" y="-309"/>
      <point x="122" y="-344"/>
      <point x="154" y="-380" type="curve" smooth="yes"/>
      <point x="180" y="-409"/>
      <point x="204" y="-440"/>
      <point x="231" y="-467" type="curve" smooth="yes"/>
      <point x="243" y="-479"/>
      <point x="255" y="-487"/>
      <point x="273" y="-487" type="curve" smooth="yes"/>
      <point x="281" y="-487"/>
      <point x="289" y="-486"/>
      <point x="296" y="-483" type="curve"/>
      <point x="519" y="-396"/>
      <point x="604" y="-243"/>
    </contour>
    <contour>
      <point x="158" y="1436" type="curve" smooth="yes"/>
      <point x="158" y="1314"/>
      <point x="269" y="1224"/>
      <point x="386" y="1224" type="curve" smooth="yes"/>
      <point x="500" y="1224"/>
      <point x="616" y="1313"/>
      <point x="616" y="1434" type="curve" smooth="yes"/>
      <point x="616" y="1556"/>
      <point x="508" y="1650"/>
      <point x="389" y="1650" type="curve" smooth="yes"/>
      <point x="271" y="1650"/>
      <point x="158" y="1558"/>
    </contour>
  </outline>
</glyph>
<glyph name="k" format="2">
  <advance width="1313"/>
  <unicode hex="006B"/>
  <anchor x="628" y="0" name="bottom"/>
  <anchor x="628" y="1017" name="top"/>
  <outline>
    <contour>
      <point x="140" y="0" type="curve" smooth="yes"/>
      <point x="457" y="0" type="line" smooth="yes"/>
      <point x="499" y="0"/>
      <point x="517" y="20"/>
      <point x="519" y="61" type="curve" smooth="yes" name=".hr01"/>
      <point x="523" y="132"/>
      <point x="515" y="205"/>
      <point x="520" y="276" type="curve"/>
      <point x="521" y="286"/>
      <point x="523" y="291"/>
      <point x="533" y="295" type="curve" smooth="yes"/>
      <point x="561" y="307"/>
      <point x="591" y="316"/>
      <point x="619" y="327" type="curve"/>
      <point x="622" y="328"/>
      <point x="625" y="329"/>
      <point x="628" y="329" type="curve" smooth="yes"/>
      <point x="636" y="329"/>
      <point x="640" y="324"/>
      <point x="644" y="318" type="curve"/>
      <point x="702" y="224"/>
      <point x="750" y="122"/>
      <point x="811" y="30" type="curve" smooth="yes"/>
      <point x="824" y="10"/>
      <point x="840" y="0"/>
      <point x="864" y="0" type="curve" smooth="yes"/>
      <point x="1191" y="0" type="line" smooth="yes"/>
      <point x="1218" y="0"/>
      <point x="1263" y="4"/>
      <point x="1263" y="41" type="curve" smooth="yes"/>
      <point x="1263" y="59"/>
      <point x="1254" y="76"/>
      <point x="1245" y="92" type="curve" smooth="yes"/>
      <point x="1219" y="141"/>
      <point x="1002" y="514"/>
      <point x="1002" y="530" type="curve" smooth="yes"/>
      <point x="1002" y="537"/>
      <point x="1006" y="542"/>
      <point x="1011" y="546" type="curve"/>
      <point x="1142" y="660"/>
      <point x="1232" y="779"/>
      <point x="1262" y="954" type="curve"/>
      <point x="1263" y="959"/>
      <point x="1263" y="964"/>
      <point x="1263" y="969" type="curve" smooth="yes"/>
      <point x="1263" y="1005"/>
      <point x="1237" y="1019"/>
      <point x="1204" y="1019" type="curve" smooth="yes"/>
      <point x="868" y="1019" type="line" smooth="yes"/>
      <point x="827" y="1019"/>
      <point x="811" y="998"/>
      <point x="802" y="961" type="curve" smooth="yes"/>
      <point x="767" y="821"/>
      <point x="677" y="732"/>
      <point x="549" y="671" type="curve" smooth="yes"/>
      <point x="545" y="669"/>
      <point x="540" y="667"/>
      <point x="535" y="667" type="curve" smooth="yes"/>
      <point x="523" y="667"/>
      <point x="521" y="680"/>
      <point x="521" y="689" type="curve" smooth="yes"/>
      <point x="521" y="865"/>
      <point x="521" y="1042"/>
      <point x="520" y="1218" type="curve" smooth="yes"/>
      <point x="519" y="1302"/>
      <point x="522" y="1387"/>
      <point x="518" y="1470" type="curve" smooth="yes"/>
      <point x="516" y="1511"/>
      <point x="498" y="1531"/>
      <point x="456" y="1531" type="curve" smooth="yes"/>
      <point x="138" y="1531" type="line" smooth="yes"/>
      <point x="95" y="1531"/>
      <point x="76" y="1511"/>
      <point x="76" y="1468" type="curve" smooth="yes"/>
      <point x="76" y="1387"/>
      <point x="80" y="1305"/>
      <point x="82" y="1224" type="curve" smooth="yes"/>
      <point x="86" y="1053"/>
      <point x="87" y="882"/>
      <point x="87" y="711" type="curve" smooth="yes"/>
      <point x="87" y="565"/>
      <point x="86" y="419"/>
      <point x="83" y="272" type="curve" smooth="yes"/>
      <point x="82" y="202"/>
      <point x="79" y="133"/>
      <point x="79" y="63" type="curve" smooth="yes"/>
      <point x="79" y="21"/>
      <point x="97" y="0"/>
    </contour>
  </outline>
</glyph>
<glyph name="l" format="2">
  <advance width="672"/>
  <unicode hex="006C"/>
  <anchor x="336" y="0" name="bottom"/>
  <anchor x="336" y="513" name="center"/>
  <anchor x="330" y="1813" name="top"/>
  <anchor x="678" y="1023" name="topright"/>
  <outline>
    <contour>
      <point x="116" y="1473" type="curve" smooth="yes"/>
      <point x="116" y="1214"/>
      <point x="120" y="956"/>
      <point x="120" y="697" type="curve" smooth="yes"/>
      <point x="120" y="486"/>
      <point x="117" y="274"/>
      <point x="117" y="62" type="curve" smooth="yes"/>
      <point x="117" y="21"/>
      <point x="136" y="0"/>
      <point x="178" y="0" type="curve" smooth="yes"/>
      <point x="495" y="0" type="line" smooth="yes"/>
      <point x="537" y="0"/>
      <point x="556" y="21"/>
      <point x="556" y="62" type="curve" smooth="yes"/>
      <point x="556" y="274"/>
      <point x="553" y="486"/>
      <point x="553" y="697" type="curve" smooth="yes"/>
      <point x="553" y="956"/>
      <point x="557" y="1214"/>
      <point x="557" y="1473" type="curve" smooth="yes"/>
      <point x="557" y="1514"/>
      <point x="538" y="1535"/>
      <point x="496" y="1535" type="curve" smooth="yes"/>
      <point x="177" y="1535" type="line" smooth="yes"/>
      <point x="135" y="1535"/>
      <point x="116" y="1514"/>
    </contour>
  </outline>
</glyph>
<glyph name="m" format="2">
  <advance width="1855"/>
  <unicode hex="006D"/>
  <anchor x="929" y="0" name="bottom"/>
  <anchor x="929" y="1017" name="top"/>
  <outline>
    <contour>
      <point x="446" y="1016" type="curve" smooth="yes"/>
      <point x="152" y="1016" type="line" smooth="yes"/>
      <point x="108" y="1016"/>
      <point x="91" y="996"/>
      <point x="90" y="954" type="curve" smooth="yes"/>
      <point x="88" y="876"/>
      <point x="92" y="796"/>
      <point x="92" y="717" type="curve" smooth="yes"/>
      <point x="92" y="499"/>
      <point x="87" y="282"/>
      <point x="79" y="64" type="curve"/>
      <point x="79" y="59" type="line"/>
      <point x="79" y="18"/>
      <point x="101" y="0"/>
      <point x="141" y="0" type="curve" smooth="yes"/>
      <point x="458" y="0" type="line" smooth="yes"/>
      <point x="500" y="0"/>
      <point x="517" y="20"/>
      <point x="519" y="60" type="curve" smooth="yes"/>
      <point x="525" y="153"/>
      <point x="522" y="249"/>
      <point x="523" y="343" type="curve" smooth="yes"/>
      <point x="524" y="418"/>
      <point x="535" y="691"/>
      <point x="643" y="691" type="curve" smooth="yes"/>
      <point x="701" y="691"/>
      <point x="714" y="669"/>
      <point x="714" y="615" type="curve" smooth="yes"/>
      <point x="714" y="431"/>
      <point x="711" y="246"/>
      <point x="711" y="62" type="curve" smooth="yes"/>
      <point x="711" y="20"/>
      <point x="730" y="0"/>
      <point x="772" y="0" type="curve" smooth="yes"/>
      <point x="1088" y="0" type="line" smooth="yes"/>
      <point x="1130" y="0"/>
      <point x="1149" y="20"/>
      <point x="1149" y="62" type="curve" smooth="yes"/>
      <point x="1149" y="151"/>
      <point x="1147" y="240"/>
      <point x="1147" y="329" type="curve" smooth="yes"/>
      <point x="1147" y="408"/>
      <point x="1149" y="691"/>
      <point x="1265" y="691" type="curve" smooth="yes"/>
      <point x="1349" y="691"/>
      <point x="1334" y="643"/>
      <point x="1334" y="581" type="curve" smooth="yes"/>
      <point x="1334" y="574" type="line"/>
      <point x="1335" y="458"/>
      <point x="1335" y="342"/>
      <point x="1337" y="226" type="curve" smooth="yes"/>
      <point x="1338" y="171"/>
      <point x="1337" y="115"/>
      <point x="1340" y="60" type="curve" smooth="yes"/>
      <point x="1342" y="20"/>
      <point x="1359" y="0"/>
      <point x="1401" y="0" type="curve" smooth="yes"/>
      <point x="1714" y="0" type="line" smooth="yes"/>
      <point x="1754" y="0"/>
      <point x="1776" y="18"/>
      <point x="1776" y="59" type="curve"/>
      <point x="1775" y="64" type="line"/>
      <point x="1767" y="293"/>
      <point x="1763" y="522"/>
      <point x="1763" y="751" type="curve" smooth="yes"/>
      <point x="1763" y="918"/>
      <point x="1647" y="1045"/>
      <point x="1477" y="1045" type="curve" smooth="yes"/>
      <point x="1305" y="1045"/>
      <point x="1193" y="889"/>
      <point x="1176" y="889" type="curve" smooth="yes"/>
      <point x="1167" y="889"/>
      <point x="1162" y="897"/>
      <point x="1158" y="903" type="curve" smooth="yes"/>
      <point x="1086" y="1010"/>
      <point x="999" y="1046"/>
      <point x="872" y="1046" type="curve" smooth="yes"/>
      <point x="737" y="1046"/>
      <point x="654" y="1005"/>
      <point x="570" y="901" type="curve" smooth="yes"/>
      <point x="565" y="895"/>
      <point x="559" y="886"/>
      <point x="550" y="886" type="curve" smooth="yes"/>
      <point x="517" y="886"/>
      <point x="525" y="1016"/>
    </contour>
  </outline>
</glyph>
<glyph name="n" format="2">
  <advance width="1249"/>
  <unicode hex="006E"/>
  <anchor x="625" y="0" name="bottom"/>
  <anchor x="625" y="1050" name="top"/>
  <outline>
    <contour>
      <point x="443" y="1016" type="curve" smooth="yes"/>
      <point x="147" y="1016" type="line" smooth="yes"/>
      <point x="103" y="1016"/>
      <point x="88" y="996"/>
      <point x="86" y="954" type="curve" smooth="yes"/>
      <point x="83" y="876"/>
      <point x="87" y="796"/>
      <point x="87" y="717" type="curve" smooth="yes"/>
      <point x="87" y="569"/>
      <point x="86" y="422"/>
      <point x="83" y="274" type="curve" smooth="yes"/>
      <point x="82" y="204"/>
      <point x="79" y="133"/>
      <point x="79" y="63" type="curve" smooth="yes"/>
      <point x="79" y="21"/>
      <point x="97" y="0"/>
      <point x="140" y="0" type="curve" smooth="yes"/>
      <point x="457" y="0" type="line" smooth="yes"/>
      <point x="498" y="0"/>
      <point x="518" y="20"/>
      <point x="518" y="61" type="curve" smooth="yes"/>
      <point x="518" y="151"/>
      <point x="518" y="243"/>
      <point x="519" y="333" type="curve" smooth="yes"/>
      <point x="520" y="430"/>
      <point x="519" y="695"/>
      <point x="659" y="695" type="curve" smooth="yes"/>
      <point x="721" y="695"/>
      <point x="729" y="649"/>
      <point x="731" y="598" type="curve" smooth="yes"/>
      <point x="734" y="535"/>
      <point x="731" y="471"/>
      <point x="731" y="408" type="curve" smooth="yes"/>
      <point x="731" y="292"/>
      <point x="733" y="177"/>
      <point x="733" y="61" type="curve" smooth="yes"/>
      <point x="733" y="20"/>
      <point x="753" y="0"/>
      <point x="794" y="0" type="curve" smooth="yes"/>
      <point x="1109" y="0" type="line" smooth="yes"/>
      <point x="1152" y="0"/>
      <point x="1170" y="21"/>
      <point x="1170" y="63" type="curve" smooth="yes"/>
      <point x="1170" y="133"/>
      <point x="1167" y="204"/>
      <point x="1166" y="274" type="curve" smooth="yes"/>
      <point x="1163" y="422"/>
      <point x="1162" y="569"/>
      <point x="1162" y="717" type="curve" smooth="yes"/>
      <point x="1162" y="750" type="line" smooth="yes"/>
      <point x="1162" y="932"/>
      <point x="1012" y="1045"/>
      <point x="839" y="1045" type="curve" smooth="yes"/>
      <point x="649" y="1045"/>
      <point x="565" y="896"/>
      <point x="546" y="896" type="curve" smooth="yes"/>
      <point x="514" y="896"/>
      <point x="519" y="1016"/>
    </contour>
  </outline>
</glyph>
<glyph name="o" format="2">
  <advance width="1118"/>
  <unicode hex="006F"/>
  <anchor x="561" y="0" name="bottom"/>
  <anchor x="561" y="511" name="center"/>
  <anchor x="1079" y="22" name="ogonek"/>
  <anchor x="561" y="1085" name="top"/>
  <anchor x="967" y="1019" name="topright"/>
  <outline>
    <contour>
      <point x="57" y="491" type="curve" smooth="yes"/>
      <point x="57" y="170"/>
      <point x="240" y="-32"/>
      <point x="566" y="-32" type="curve" smooth="yes"/>
      <point x="898" y="-32"/>
      <point x="1061" y="181"/>
      <point x="1061" y="499" type="curve" smooth="yes"/>
      <point x="1061" y="810"/>
      <point x="910" y="1047"/>
      <point x="576" y="1047" type="curve" smooth="yes"/>
      <point x="240" y="1047"/>
      <point x="57" y="814"/>
    </contour>
    <contour>
      <point x="513" y="525" type="curve" smooth="yes"/>
      <point x="513" y="560"/>
      <point x="514" y="707"/>
      <point x="565.588" y="707" type="curve" smooth="yes"/>
      <point x="617" y="707"/>
      <point x="621" y="561"/>
      <point x="621" y="529" type="curve" smooth="yes"/>
      <point x="621" y="483"/>
      <point x="620" y="339"/>
      <point x="567.975" y="339" type="curve" smooth="yes"/>
      <point x="514" y="339"/>
      <point x="513" y="494"/>
    </contour>
  </outline>
</glyph>
<glyph name="p" format="2">
  <advance width="1311"/>
  <unicode hex="0070"/>
  <anchor x="650" y="0" name="bottom"/>
  <anchor x="650" y="1019" name="top"/>
  <outline>
    <contour>
      <point x="796" y="1046" type="curve" smooth="yes"/>
      <point x="667" y="1046"/>
      <point x="561" y="941"/>
      <point x="548" y="941" type="curve" smooth="yes"/>
      <point x="524" y="941"/>
      <point x="501" y="1016"/>
      <point x="458" y="1016" type="curve" smooth="yes"/>
      <point x="135" y="1016" type="line" smooth="yes"/>
      <point x="107" y="1016"/>
      <point x="97" y="1003"/>
      <point x="95" y="976" type="curve" smooth="yes"/>
      <point x="91" y="915"/>
      <point x="96" y="838"/>
      <point x="96" y="774" type="curve" smooth="yes"/>
      <point x="96" y="436"/>
      <point x="86" y="98"/>
      <point x="61" y="-240" type="curve" smooth="yes"/>
      <point x="58" y="-276"/>
      <point x="53" y="-313"/>
      <point x="53" y="-350" type="curve" smooth="yes"/>
      <point x="53" y="-377"/>
      <point x="67" y="-387"/>
      <point x="93" y="-387" type="curve" smooth="yes"/>
      <point x="490" y="-387" type="line" smooth="yes"/>
      <point x="520" y="-387"/>
      <point x="530" y="-375"/>
      <point x="533" y="-346" type="curve" smooth="yes"/>
      <point x="536" y="-317"/>
      <point x="534" y="-286"/>
      <point x="534" y="-257" type="curve" smooth="yes"/>
      <point x="536" y="-168"/>
      <point x="534" y="-78"/>
      <point x="538" y="11" type="curve"/>
      <point x="538" y="17"/>
      <point x="539" y="32"/>
      <point x="549" y="30" type="curve"/>
      <point x="554" y="28"/>
      <point x="557" y="24"/>
      <point x="561" y="21" type="curve"/>
      <point x="610" y="-18"/>
      <point x="663" y="-32"/>
      <point x="725" y="-32" type="curve" smooth="yes"/>
      <point x="1066" y="-32"/>
      <point x="1251" y="167"/>
      <point x="1251" y="504" type="curve" smooth="yes"/>
      <point x="1251" y="808"/>
      <point x="1132" y="1046"/>
    </contour>
    <contour>
      <point x="685" y="345" type="curve" smooth="yes"/>
      <point x="633" y="345"/>
      <point x="583" y="366"/>
      <point x="550" y="407" type="curve"/>
      <point x="550" y="668" type="line"/>
      <point x="581" y="698"/>
      <point x="627" y="719"/>
      <point x="671" y="719" type="curve" smooth="yes"/>
      <point x="762" y="719"/>
      <point x="803" y="602"/>
      <point x="803" y="527" type="curve" smooth="yes"/>
      <point x="803" y="457"/>
      <point x="773" y="345"/>
    </contour>
  </outline>
</glyph>
